<svg xmlns="http://www.w3.org/2000/svg" width="42" height="42" viewBox="0 0 42 42" fill="none">
  <g clip-path="url(#clip0_25_322)">
    <path d="M41.9997 19.6826C41.7466 15.5876 40.3007 11.6562 37.8403 8.37306C35.3799 5.08991 32.0125 2.59853 28.1532 1.20606C24.294 -0.186415 20.1116 -0.419101 16.1217 0.536682C12.1318 1.49247 8.50881 3.59494 5.69938 6.5849C2.88995 9.57486 1.01689 13.3216 0.311115 17.3632C-0.394658 21.4048 0.0977107 25.5646 1.72752 29.3298C3.35733 33.095 6.05333 36.3009 9.48316 38.5524C12.913 40.8038 16.9267 42.0024 21.0295 42.0003H33.2497C35.5697 41.998 37.7939 41.0754 39.4343 39.4349C41.0748 37.7945 41.9974 35.5702 41.9997 33.2503V19.6826ZM38.4997 33.2503C38.4997 34.6427 37.9466 35.9781 36.962 36.9626C35.9775 37.9472 34.6421 38.5003 33.2497 38.5003H21.0295C18.5601 38.4992 16.1187 37.9776 13.8644 36.9696C11.6102 35.9616 9.5937 34.4897 7.94647 32.6501C6.29127 30.8113 5.04835 28.6399 4.30103 26.2814C3.55372 23.923 3.31929 21.432 3.61347 18.9756C4.07798 15.101 5.8188 11.4911 8.56149 8.71518C11.3042 5.93922 14.8927 4.15501 18.7615 3.64381C19.5161 3.54923 20.2759 3.5013 21.0365 3.50031C25.1148 3.48919 29.0669 4.91414 32.1997 7.52531C34.0294 9.04597 35.5312 10.9223 36.6141 13.0407C37.6971 15.159 38.3386 17.4752 38.4997 19.8488V33.2503Z" fill="white"/>
    <path d="M13.9997 15.7497H20.9997C21.4638 15.7497 21.9089 15.5653 22.2371 15.2371C22.5653 14.9089 22.7497 14.4638 22.7497 13.9997C22.7497 13.5356 22.5653 13.0904 22.2371 12.7623C21.9089 12.4341 21.4638 12.2497 20.9997 12.2497H13.9997C13.5356 12.2497 13.0904 12.4341 12.7623 12.7623C12.4341 13.0904 12.2497 13.5356 12.2497 13.9997C12.2497 14.4638 12.4341 14.9089 12.7623 15.2371C13.0904 15.5653 13.5356 15.7497 13.9997 15.7497Z" fill="white"/>
    <path d="M27.9997 19.2503H13.9997C13.5356 19.2503 13.0904 19.4347 12.7623 19.7629C12.4341 20.0911 12.2497 20.5362 12.2497 21.0003C12.2497 21.4644 12.4341 21.9096 12.7623 22.2378C13.0904 22.566 13.5356 22.7503 13.9997 22.7503H27.9997C28.4638 22.7503 28.9089 22.566 29.2371 22.2378C29.5653 21.9096 29.7497 21.4644 29.7497 21.0003C29.7497 20.5362 29.5653 20.0911 29.2371 19.7629C28.9089 19.4347 28.4638 19.2503 27.9997 19.2503Z" fill="white"/>
    <path d="M27.9997 26.25H13.9997C13.5356 26.25 13.0904 26.4344 12.7623 26.7626C12.4341 27.0908 12.2497 27.5359 12.2497 28C12.2497 28.4641 12.4341 28.9093 12.7623 29.2375C13.0904 29.5656 13.5356 29.75 13.9997 29.75H27.9997C28.4638 29.75 28.9089 29.5656 29.2371 29.2375C29.5653 28.9093 29.7497 28.4641 29.7497 28C29.7497 27.5359 29.5653 27.0908 29.2371 26.7626C28.9089 26.4344 28.4638 26.25 27.9997 26.25Z" fill="white"/>
  </g>
  <defs>
    <clipPath id="clip0_25_322">
      <rect width="42" height="42" fill="white"/>
    </clipPath>
  </defs>
</svg>