<svg xmlns="http://www.w3.org/2000/svg" width="141" height="141" viewBox="0 0 141 141" fill="none">
  <g clip-path="url(#clip0_32_67)">
    <path d="M141 93.9995V123.375C141 128.049 139.143 132.532 135.838 135.837C132.532 139.143 128.049 141 123.375 141H94C85.7579 140.991 77.663 138.815 70.5273 134.691C63.3916 130.566 57.466 124.637 53.345 117.5C57.7739 117.468 62.1879 116.98 66.5167 116.043C69.8135 120.165 73.9956 123.492 78.7531 125.778C83.5106 128.065 88.7216 129.251 94 129.25H123.375C124.933 129.25 126.427 128.631 127.529 127.529C128.631 126.427 129.25 124.933 129.25 123.375V93.9995C129.249 88.7193 128.059 83.5071 125.768 78.7494C123.478 73.9917 120.146 69.8107 116.019 66.5163C116.964 62.1882 117.461 57.7743 117.5 53.3445C124.638 57.4655 130.566 63.3911 134.691 70.5268C138.816 77.6625 140.992 85.7575 141 93.9995ZM105.615 56.6991C106.164 49.13 105.078 41.5313 102.43 34.4193C99.7813 27.3074 95.6331 20.8488 90.2669 15.4826C84.9006 10.1163 78.4421 5.96811 71.3301 3.3198C64.2182 0.671492 56.6194 -0.414838 49.0503 0.134625C35.6372 1.66643 23.2469 8.04928 14.2126 18.0812C5.17834 28.1132 0.123489 41.102 -4.57764e-05 54.6018L-4.57764e-05 84.2118C-4.57764e-05 99.0873 8.85358 105.75 17.625 105.75H51.1125C64.6179 105.633 77.6146 100.582 87.6537 91.547C97.6928 82.5121 104.081 70.1177 105.615 56.6991ZM81.9562 23.7991C86.1271 27.9792 89.3514 33.0064 91.411 38.5406C93.4706 44.0748 94.3174 49.9868 93.8942 55.8766C92.6403 66.3557 87.5991 76.0151 79.7198 83.0364C71.8404 90.0577 61.6662 93.9567 51.1125 93.9995H17.625C12.173 93.9995 11.75 86.5089 11.75 84.2118V54.6018C11.7989 44.0525 15.7018 33.8848 22.724 26.0121C29.7462 18.1395 39.4035 13.1047 49.8787 11.8553C50.854 11.7847 51.8292 11.7495 52.8045 11.7495C58.2169 11.7445 63.5773 12.806 68.5793 14.8736C73.5813 16.9411 78.1269 19.9741 81.9562 23.7991Z" fill="white"/>
  </g>
  <defs>
    <clipPath id="clip0_32_67">
      <rect width="141" height="141" fill="white"/>
    </clipPath>
  </defs>
</svg>