<svg xmlns="http://www.w3.org/2000/svg" width="64" height="63" viewBox="0 0 64 63" fill="none">
  <path d="M62.4 34.6181C62.0544 35.3805 61.4997 36.0301 60.8 36.4922C57.296 39.1557 53.864 41.907 50.304 44.4668C44.1566 48.9959 36.558 51.1235 28.944 50.4479C25.7861 50.217 22.6829 49.5015 19.744 48.3266C19.616 48.2787 19.48 48.2309 19.36 48.1751C19.1941 48.059 19.073 47.8898 19.0168 47.6957C18.9607 47.5015 18.9729 47.294 19.0514 47.1077C19.1298 46.9214 19.2699 46.7675 19.4483 46.6715C19.6267 46.5755 19.8327 46.5433 20.032 46.5801C21.056 46.923 22.056 47.3776 23.104 47.6408C32.9067 50.299 41.8827 48.5924 50.032 42.521C53.232 40.1286 56.384 37.6485 59.56 35.2082L60.032 34.8254C55.3024 33.2251 50.4167 32.1265 45.456 31.5479C46.0927 34.3468 45.7512 37.2785 44.488 39.8575C44.1251 40.5553 43.7135 41.2269 43.256 41.8671C43.1998 41.9888 43.1173 42.0967 43.0144 42.183C42.9115 42.2692 42.7908 42.3317 42.6608 42.366C42.5309 42.4003 42.3949 42.4055 42.2627 42.3813C42.1305 42.3571 42.0052 42.3041 41.896 42.226C41.448 41.899 41.416 41.4285 41.832 40.8224C42.7823 39.5572 43.4413 38.0989 43.7621 36.551C44.0829 35.0031 44.0576 33.4038 43.688 31.8668C43.608 31.4841 43.464 31.3086 43.048 31.2927C41.888 31.2448 40.728 31.1491 39.56 31.0694C39.768 31.8668 40.016 32.5208 40.136 33.2305C40.2881 34.1912 40.2402 35.1727 39.9955 36.1141C39.7507 37.0556 39.3143 37.9367 38.7133 38.7028C38.1123 39.4689 37.3596 40.1035 36.502 40.5673C35.6445 41.031 34.7003 41.3139 33.7284 41.3983C32.7565 41.4827 31.7775 41.3669 30.8524 41.0581C29.9273 40.7492 29.0758 40.254 28.3509 39.6031C27.626 38.9522 27.0433 38.1596 26.6388 37.2745C26.2344 36.3895 26.0169 35.431 26 34.4586C26 33.9881 26.096 33.5176 26.104 33.0471C26.112 32.5766 26.056 32.2895 26.024 31.819C24.832 32.0343 23.752 32.2177 22.672 32.441C22.5927 32.4811 22.5235 32.5385 22.4694 32.6089C22.4154 32.6793 22.378 32.7609 22.36 32.8477C22.0768 34.8983 22.3895 36.9868 23.2609 38.8655C24.1324 40.7443 25.5261 42.3345 27.2768 43.4475C29.0275 44.5606 31.0617 45.1498 33.1381 45.1453C35.2146 45.1408 37.2462 44.5428 38.992 43.4222C39.368 43.1829 39.792 43.0394 40.136 43.3584C40.3548 43.5918 40.4751 43.9002 40.472 44.2196C40.3953 44.4985 40.2151 44.738 39.968 44.8895C38.2708 45.988 36.3337 46.6639 34.3197 46.8604C32.3058 47.0569 30.2739 46.7682 28.3953 46.0186C26.5166 45.2691 24.8461 44.0806 23.5243 42.5532C22.2025 41.0258 21.2682 39.2042 20.8 37.2418C20.5632 35.8293 20.403 34.405 20.32 32.9753C20.2086 32.9585 20.0954 32.9585 19.984 32.9753C16.92 33.9323 13.864 34.9052 10.792 35.8462C10.416 35.9658 10.336 36.1732 10.312 36.5241C10.2399 38.0614 10.4237 39.6001 10.856 41.0776C10.9459 41.3072 11.1126 41.4988 11.328 41.6199C13.04 42.6832 14.76 43.7252 16.488 44.746C16.888 44.9852 17.184 45.2643 17.112 45.7747C17.0949 45.9124 17.0443 46.0439 16.9646 46.1578C16.885 46.2716 16.7787 46.3644 16.655 46.428C16.5312 46.4917 16.3938 46.5242 16.2546 46.523C16.1153 46.5217 15.9785 46.4865 15.856 46.4206C15.5042 46.2425 15.1624 46.0455 14.832 45.8305C12.96 44.6981 11.056 43.6135 9.23199 42.4173C7.30851 41.3036 5.28998 40.3615 3.19999 39.6023C2.92095 39.5138 2.66288 39.3697 2.44144 39.1787C2.22001 38.9877 2.03984 38.7538 1.91189 38.4913C1.78394 38.2287 1.71087 37.943 1.69714 37.6514C1.68341 37.3599 1.72929 37.0685 1.83199 36.7952C2.03782 36.3128 2.37614 35.8981 2.80799 35.599C3.98517 34.9569 5.03881 34.1118 5.91999 33.1029C5.98498 33.0174 6.0682 32.9472 6.16365 32.8976C6.25911 32.8479 6.36441 32.82 6.47199 32.8158C7.496 33.0152 7.99999 32.2018 8.79999 31.8987C7.99999 31.2368 7.99999 30.862 8.65599 30.1124C9.31199 29.3628 10.016 28.5813 10.704 27.8237C10.8422 27.6189 11.0562 27.4771 11.2991 27.4293C11.542 27.3815 11.794 27.4315 12 27.5685C12.44 27.9273 12.44 28.4377 12 28.9641C11.56 29.4904 11.008 30.0805 10.56 30.7105C10.736 30.6068 10.912 30.5032 11.096 30.4075L17.448 26.763C17.6189 26.6251 17.8321 26.5499 18.052 26.5499C18.2719 26.5499 18.4851 26.6251 18.656 26.763C18.7776 26.86 18.871 26.9876 18.9264 27.1326C18.9818 27.2777 18.9973 27.4348 18.9711 27.5879C18.945 27.7409 18.8783 27.8841 18.7778 28.0027C18.6774 28.1213 18.5469 28.2109 18.4 28.2623C17.704 28.6371 16.968 28.9322 16.296 29.3468C12.832 31.4601 9.37599 33.5973 5.89599 35.7266C5.86462 35.7475 5.83782 35.7746 5.8172 35.8061C5.79657 35.8376 5.78256 35.8729 5.77599 35.91C23.112 28.4058 40.8 27.1139 58.944 32.4251C58.144 31.8589 57.304 31.2608 56.448 30.7265C49.4819 26.2701 41.2794 24.1262 33.016 24.6019C29.4455 24.7848 25.9181 25.4639 22.536 26.6195L22.256 26.7152C21.608 26.9146 21.104 26.7152 20.944 26.2048C20.9057 26.0816 20.8944 25.9515 20.9109 25.8236C20.9273 25.6956 20.9712 25.5726 21.0394 25.463C21.1077 25.3533 21.1988 25.2596 21.3065 25.1881C21.4143 25.1166 21.5362 25.069 21.664 25.0485C22.968 24.6498 24.264 24.251 25.584 23.9001C35.0994 21.6144 45.1205 22.785 53.848 27.2017L54.584 27.5844C54.584 27.5844 54.656 27.5844 54.808 27.5047L53.352 26.141C53.1876 26.0004 53.0447 25.8365 52.928 25.6546C52.8394 25.4751 52.8149 25.2709 52.8587 25.0757C52.9025 24.8805 53.0119 24.7061 53.1688 24.5813C53.3256 24.4566 53.5206 24.3891 53.7212 24.3899C53.9219 24.3908 54.1162 24.4599 54.272 24.586C55.168 25.4711 56.056 26.3723 56.904 27.2973C57.288 27.72 57.184 28.1427 56.616 28.7567C57.416 29.0598 57.872 29.8253 58.808 29.7854C59.008 29.7854 59.248 30.0247 59.424 30.1922C60.128 30.8541 60.84 31.5 61.488 32.2098C61.8291 32.6301 62.1342 33.0782 62.4 33.5495V34.6181ZM34.568 30.9976C34.5714 31.7831 34.3627 32.5551 33.9638 33.2326C33.5649 33.91 32.9905 34.468 32.3008 34.8481C31.6112 35.2281 30.8316 35.4162 30.044 35.3925C29.2563 35.3689 28.4895 35.1345 27.824 34.7138C27.8182 34.7988 27.8182 34.884 27.824 34.969C27.849 35.1626 27.8864 35.3544 27.936 35.5432C28.1635 36.5466 28.6837 37.4606 29.431 38.1701C30.1783 38.8796 31.1195 39.3529 32.136 39.5305C33.1679 39.7297 34.2359 39.6207 35.2059 39.2171C36.1759 38.8135 37.0047 38.1333 37.5883 37.2619C38.172 36.3905 38.4844 35.3667 38.4865 34.3189C38.4886 33.2712 38.1802 32.2461 37.6 31.3724C37.4752 31.1876 37.2828 31.0588 37.064 31.0135C36.216 30.9737 35.416 30.9976 34.568 30.9976ZM27.816 31.5479C27.8975 32.1439 28.2013 32.6874 28.6668 33.0702C29.1324 33.453 29.7255 33.6469 30.328 33.6133C30.6495 33.6073 30.9664 33.537 31.2601 33.4065C31.5538 33.276 31.8182 33.088 32.0375 32.8537C32.2569 32.6194 32.4268 32.3435 32.5372 32.0425C32.6476 31.7414 32.6961 31.4214 32.68 31.1013L27.816 31.5479ZM4.68799 38.2785L8.73599 39.993L8.48799 36.8032L4.68799 38.2785Z" fill="white"/>
  <path d="M15.928 13.3257C15.76 13.6287 15.696 13.9397 15.512 14.0514C15.2478 14.2317 14.9239 14.3031 14.608 14.2508C14.36 14.163 14.024 13.7483 14.056 13.541C14.2307 12.5401 14.4712 11.5518 14.776 10.5824C14.912 10.1597 15.368 10.088 15.784 10.1677C16.536 10.3113 17.296 10.4548 18.04 10.6143C18.648 10.7499 18.96 11.1486 18.88 11.6351C18.8 12.1215 18.36 12.4325 17.72 12.3608H17.416C17.824 13.0147 18.216 13.5968 18.56 14.171C19.064 14.9685 19.056 15.4948 18.56 15.8218C18.064 16.1487 17.6 15.9494 17.048 15.0961L15.928 13.3257Z" fill="white"/>
  <path d="M48.344 13.2858C47.856 14.0833 47.424 14.7452 46.968 15.431C46.905 15.5657 46.8088 15.6823 46.6882 15.7697C46.5677 15.8572 46.4269 15.9127 46.2789 15.931C46.131 15.9493 45.9808 15.9299 45.8424 15.8745C45.7041 15.8192 45.5821 15.7297 45.488 15.6144C45.354 15.4529 45.2807 15.2498 45.2807 15.0402C45.2807 14.8307 45.354 14.6276 45.488 14.4661L46.824 12.3528C46.576 12.3528 46.408 12.4006 46.248 12.3528C46.0373 12.3551 45.8329 12.2812 45.6726 12.1449C45.5123 12.0085 45.4069 11.8189 45.376 11.6111C45.325 11.4071 45.3569 11.1912 45.4648 11.0105C45.5726 10.8298 45.7478 10.6988 45.952 10.6462C46.848 10.4229 47.76 10.2554 48.68 10.1199C49.184 10.0481 49.48 10.3751 49.608 10.8456C49.8 11.5633 49.992 12.289 50.168 13.0067C50.344 13.7244 50.104 14.1152 49.608 14.2587C49.112 14.4023 48.704 14.171 48.456 13.533L48.344 13.2858Z" fill="white"/>
  <path d="M37.256 18.7166C36.096 18.6608 34.936 18.6209 33.768 18.5571C33.6545 18.5592 33.5418 18.539 33.4361 18.4977C33.3305 18.4563 33.2341 18.3947 33.1523 18.3162C33.0706 18.2377 33.0052 18.1439 32.9599 18.0402C32.9145 17.9365 32.8901 17.8249 32.888 17.7118C32.8793 17.5999 32.8933 17.4873 32.9291 17.3809C32.9649 17.2745 33.0218 17.1763 33.0964 17.0922C33.1711 17.0082 33.2619 16.9399 33.3635 16.8915C33.4652 16.8432 33.5755 16.8156 33.688 16.8106C34.984 16.8106 36.288 16.9143 37.576 17.0339C37.685 17.0499 37.7896 17.0882 37.8831 17.1463C37.9766 17.2045 38.0571 17.2812 38.1194 17.3718C38.1818 17.4624 38.2247 17.5649 38.2454 17.6728C38.2662 17.7807 38.2643 17.8917 38.24 17.9989C38.2316 18.1142 38.1981 18.2263 38.1419 18.3274C38.0857 18.4286 38.0081 18.5163 37.9145 18.5846C37.8209 18.6529 37.7135 18.7 37.5998 18.7228C37.4861 18.7456 37.3688 18.7435 37.256 18.7166Z" fill="white"/>
  <path d="M26.528 19.514C26.3265 19.5147 26.1321 19.4395 25.9838 19.3035C25.8355 19.1674 25.7441 18.9806 25.728 18.7804C25.7011 18.6738 25.6965 18.5629 25.7146 18.4545C25.7326 18.3462 25.773 18.2427 25.8331 18.1506C25.8932 18.0585 25.9717 17.9798 26.0638 17.9194C26.1558 17.8589 26.2594 17.8181 26.368 17.7995C27.424 17.5523 28.488 17.3529 29.568 17.1376C29.7595 17.0915 29.9551 17.0648 30.152 17.0578C30.2572 17.0457 30.3637 17.0544 30.4655 17.0836C30.5672 17.1128 30.6621 17.1618 30.7447 17.2278C30.8273 17.2938 30.896 17.3755 30.9466 17.4682C30.9973 17.5609 31.0291 17.6626 31.04 17.7676C31.097 17.9696 31.0718 18.1858 30.97 18.3694C30.8682 18.553 30.6979 18.6892 30.496 18.7485C29.168 19.0356 27.864 19.2589 26.528 19.514Z" fill="white"/>
  <path d="M45.336 19.3546C45.336 20.152 44.84 20.5986 44.224 20.4311C43.008 20.1015 41.824 19.7347 40.672 19.3306C40.5645 19.3012 40.4643 19.2497 40.3779 19.1794C40.2915 19.1092 40.2208 19.0217 40.1703 18.9225C40.1199 18.8234 40.0907 18.7149 40.0848 18.6039C40.0789 18.4929 40.0963 18.3819 40.136 18.278C40.1618 18.1668 40.2102 18.0621 40.2782 17.9702C40.3461 17.8783 40.4322 17.8013 40.5311 17.7438C40.6299 17.6863 40.7396 17.6495 40.8533 17.6358C40.9669 17.6221 41.0822 17.6316 41.192 17.6639C42.384 18.0068 43.592 18.3577 44.744 18.7724C45.024 18.8761 45.208 19.227 45.336 19.3546Z" fill="white"/>
  <path d="M19.752 22.3291C19.512 22.1138 19.12 21.9304 19.056 21.6672C19.0159 21.4977 19.0168 21.3211 19.0585 21.1519C19.1002 20.9828 19.1816 20.826 19.296 20.6943C20.488 20.0563 21.696 19.4742 22.96 18.9399C23.0541 18.9014 23.1555 18.8843 23.257 18.8896C23.3585 18.8949 23.4576 18.9226 23.5471 18.9706C23.6366 19.0187 23.7143 19.0859 23.7746 19.1674C23.8349 19.249 23.8764 19.3428 23.896 19.4423C23.96 19.7533 23.896 20.3195 23.68 20.4232C22.472 21.0771 21.208 21.6353 19.968 22.2175C19.9284 22.2256 19.8876 22.2256 19.848 22.2175L19.752 22.3291Z" fill="white"/>
  <path d="M47.872 20.1999C48.0349 20.2491 48.1929 20.3132 48.344 20.3913C49.304 20.9654 50.272 21.5396 51.216 22.1457C51.3388 22.2009 51.4478 22.2826 51.5351 22.3848C51.6225 22.487 51.6861 22.6073 51.7212 22.7369C51.7564 22.8665 51.7624 23.0023 51.7386 23.1345C51.7149 23.2667 51.6621 23.392 51.584 23.5014C51.264 23.932 50.784 23.9719 50.224 23.621C49.288 23.0389 48.352 22.4647 47.408 21.8985C47.2151 21.8155 47.0591 21.6652 46.9693 21.4759C46.8795 21.2865 46.8619 21.071 46.92 20.8697C46.9725 20.6633 47.0973 20.4823 47.2718 20.3595C47.4464 20.2366 47.6593 20.18 47.872 20.1999Z" fill="white"/>
  <path d="M17.776 23.2781C17.6231 23.5497 17.4406 23.8038 17.232 24.0357C16.368 24.7853 15.488 25.503 14.608 26.2287C14.5258 26.3144 14.4271 26.3825 14.3178 26.4291C14.2085 26.4757 14.0909 26.4997 13.972 26.4997C13.8531 26.4997 13.7355 26.4757 13.6262 26.4291C13.5169 26.3825 13.4182 26.3144 13.336 26.2287C13.2471 26.1419 13.1782 26.0368 13.1343 25.9207C13.0903 25.8046 13.0722 25.6803 13.0814 25.5566C13.0905 25.4328 13.1266 25.3126 13.1872 25.2042C13.2477 25.0957 13.3313 25.0018 13.432 24.9289C14.336 24.1314 15.248 23.3339 16.208 22.6481C16.3554 22.5657 16.5189 22.5159 16.6873 22.5021C16.8557 22.4884 17.0251 22.511 17.184 22.5684C17.424 22.6322 17.6 22.991 17.776 23.2781Z" fill="white"/>
</svg>