<svg xmlns="http://www.w3.org/2000/svg" width="64" height="63" viewBox="0 0 64 63" fill="none">
  <path d="M33.408 59.0127C33.2239 58.8926 33.077 58.7238 32.9837 58.5252C32.8904 58.3266 32.8545 58.106 32.88 57.8882C32.88 55.759 32.88 53.6297 32.88 51.5085C31.92 51.4128 30.992 51.349 30.072 51.2134C27.9906 50.8915 25.9833 50.2029 24.144 49.1799C24.029 49.1431 23.9238 49.0808 23.8363 48.9977C23.7489 48.9146 23.6815 48.8128 23.6391 48.7C23.5968 48.5872 23.5806 48.4663 23.5919 48.3464C23.6031 48.2264 23.6414 48.1106 23.704 48.0076C23.944 47.5929 24.376 47.4972 24.904 47.7843C27.6447 49.2911 30.7546 50.0012 33.88 49.8338C35.6643 49.7384 37.4221 49.3615 39.088 48.7173C40.44 48.199 41.792 47.6806 43.144 47.1782C43.2423 47.1265 43.3504 47.0957 43.4613 47.088C43.5723 47.0802 43.6836 47.0956 43.7882 47.1331C43.8929 47.1706 43.9885 47.2294 44.069 47.3059C44.1496 47.3823 44.2133 47.4746 44.256 47.577C44.299 47.6791 44.3201 47.7891 44.3181 47.8998C44.3161 48.0106 44.291 48.1197 44.2443 48.2202C44.1976 48.3208 44.1305 48.4105 44.0471 48.4838C43.9637 48.557 43.8659 48.6121 43.76 48.6456C40.8 49.6823 37.976 51.0858 34.776 51.333C34.6757 51.3533 34.5769 51.3799 34.48 51.4128V54.3634C34.48 55.5437 34.48 56.7558 34.48 57.9121C34.5114 58.1289 34.4762 58.35 34.3791 58.5464C34.282 58.7429 34.1275 58.9054 33.936 59.0127H33.408Z" fill="white"/>
  <path d="M44.336 30.9896C44.336 32.7281 44.296 34.4745 44.336 36.221C44.456 40.4715 41.936 44.3472 36.816 45.4716C29.904 47.0028 23.768 42.1382 22.584 35.886C22.2411 34.1671 22.3063 32.3921 22.7744 30.7027C23.2425 29.0134 24.1006 27.4567 25.28 26.1569C26.736 24.4504 28.248 22.7916 29.744 21.1249C30.152 20.6624 30.624 20.5906 30.984 20.9096C31.344 21.2286 31.368 21.7071 30.984 22.1616C29.544 23.7566 28.096 25.4073 26.656 27.0262C20.96 33.4697 25.216 42.4731 32.176 43.9485C33.6484 44.3305 35.1934 44.3379 36.6694 43.9701C38.1454 43.6023 39.5052 42.8709 40.624 41.8431C41.3033 41.2294 41.8448 40.4795 42.2129 39.6425C42.581 38.8055 42.7674 37.9004 42.76 36.9866C42.8 32.9992 42.848 29.0119 42.76 25.0883C42.6598 21.1682 41.2555 17.3923 38.768 14.3544C38.376 13.852 38.288 13.86 37.848 14.3544L33.512 19.219C33.464 19.2748 33.424 19.3306 33.376 19.3785C33.3098 19.4675 33.2256 19.5419 33.1289 19.5967C33.0322 19.6516 32.9252 19.6857 32.8145 19.697C32.7038 19.7082 32.592 19.6964 32.4862 19.6621C32.3804 19.6279 32.2829 19.572 32.2 19.4981C32.1188 19.4234 32.054 19.3328 32.0097 19.2319C31.9653 19.131 31.9425 19.0221 31.9425 18.9119C31.9425 18.8018 31.9653 18.6929 32.0097 18.592C32.054 18.4911 32.1188 18.4005 32.2 18.3258C33.1333 17.2731 34.1013 16.1886 35.104 15.0721C35.68 14.4262 36.248 13.7722 36.832 13.1343C37.0124 12.9025 37.2448 12.7162 37.5105 12.5903C37.7763 12.4644 38.068 12.4025 38.3622 12.4095C38.6563 12.4164 38.9447 12.4922 39.2042 12.6305C39.4637 12.7689 39.6869 12.966 39.856 13.206C42.6414 16.5845 44.2103 20.7962 44.312 25.1681C44.376 27.1059 44.312 29.0438 44.312 30.9896H44.336Z" fill="white"/>
  <path d="M18.672 26.165C19.2344 27.0546 19.5914 28.0577 19.7173 29.1017C19.8433 30.1458 19.7349 31.2046 19.4 32.2018C18.9594 33.5523 18.1063 34.7318 16.96 35.5751C16.7939 35.6663 16.6656 35.8135 16.5982 35.9902C16.5308 36.1669 16.5286 36.3618 16.592 36.54C17.3261 40.073 19.1968 43.2705 21.92 45.6471C22.424 46.0937 22.496 46.5403 22.144 46.9231C21.792 47.3059 21.344 47.266 20.84 46.8274C17.7789 44.1153 15.7032 40.4705 14.936 36.4603C14.6381 34.6533 14.1721 32.878 13.544 31.1571C13.2935 30.4696 13.2785 29.7188 13.5014 29.0219C13.7243 28.325 14.1725 27.7214 14.776 27.3053C17.024 25.4552 19.288 23.6131 21.536 21.7709C23.208 20.3993 24.856 19.0196 26.536 17.6719C30.2129 14.7378 32.8418 10.6992 34.032 6.15649C34.096 5.91725 34.168 5.678 34.248 5.44674C34.2649 5.33395 34.3058 5.22608 34.3681 5.1304C34.4303 5.03472 34.5124 4.95346 34.6088 4.89211C34.7053 4.83075 34.8138 4.79073 34.927 4.77473C35.0403 4.75873 35.1557 4.76714 35.2654 4.79938C35.3752 4.83162 35.4767 4.88694 35.5631 4.96162C35.6496 5.0363 35.719 5.12859 35.7666 5.23227C35.8142 5.33595 35.839 5.44861 35.8393 5.56264C35.8395 5.67668 35.8152 5.78944 35.768 5.89332C34.5952 10.8881 31.8236 15.3668 27.872 18.6528L18.984 25.9018L18.672 26.165ZM16.088 34.1397C17.1222 33.3351 17.8239 32.1799 18.0599 30.8935C18.2959 29.6071 18.0496 28.2791 17.368 27.1618C16.6694 27.7181 15.9992 28.309 15.36 28.9322C15.1309 29.1932 14.9862 29.5171 14.9449 29.8614C14.9035 30.2057 14.9673 30.5545 15.128 30.8621C15.368 31.4681 15.584 32.0822 15.768 32.7042C15.904 33.1986 16 33.6612 16.088 34.1795V34.1397Z" fill="white"/>
  <path d="M25.6 33.8765C25.5819 31.8927 26.2676 29.9664 27.536 28.4377C28.064 27.7998 28.616 27.1777 29.176 26.5717C29.3802 26.318 29.6341 26.1085 29.9223 25.9559C30.2104 25.8034 30.5267 25.711 30.8519 25.6844C31.1771 25.6579 31.5043 25.6977 31.8135 25.8014C32.1227 25.9052 32.4075 26.0707 32.6503 26.2878C32.8932 26.505 33.0892 26.7692 33.2261 27.0644C33.3631 27.3596 33.4383 27.6795 33.4471 28.0046C33.4558 28.3297 33.398 28.6532 33.2771 28.9553C33.1562 29.2573 32.9748 29.5317 32.744 29.7615C32.28 30.3198 31.776 30.8381 31.32 31.3565C30.952 31.7562 30.6783 32.2329 30.5191 32.7518C30.3599 33.2706 30.3192 33.8184 30.4 34.3549C30.4766 34.6809 30.4837 35.0193 30.4208 35.3482C30.358 35.6771 30.2266 35.9891 30.0352 36.2642C29.8437 36.5393 29.5965 36.7713 29.3094 36.9451C29.0224 37.1189 28.702 37.2308 28.3688 37.2734C28.0357 37.3161 27.6973 37.2885 27.3755 37.1926C27.0538 37.0966 26.7558 36.9345 26.5008 36.7165C26.2459 36.4986 26.0397 36.2297 25.8955 35.9273C25.7514 35.6249 25.6725 35.2957 25.664 34.961C25.6 34.5384 25.6 34.1157 25.6 33.8765ZM27.2 33.6611C27.24 34.012 27.272 34.3629 27.32 34.7138C27.4 35.3199 27.736 35.6229 28.248 35.5113C28.76 35.3996 28.984 35.0567 28.888 34.4825C28.7731 33.7392 28.8247 32.9797 29.0391 32.2586C29.2535 31.5375 29.6254 30.8727 30.128 30.3118C30.568 29.7695 31.056 29.2591 31.52 28.7168C31.607 28.6434 31.6773 28.5523 31.7261 28.4496C31.7749 28.3469 31.8011 28.235 31.803 28.1213C31.8049 28.0077 31.7824 27.895 31.737 27.7907C31.6916 27.6865 31.6244 27.5931 31.5398 27.5168C31.4553 27.4406 31.3554 27.3832 31.2468 27.3486C31.1382 27.314 31.0234 27.3029 30.9102 27.3161C30.797 27.3293 30.6879 27.3665 30.5902 27.4251C30.4926 27.4838 30.4086 27.5626 30.344 27.6562C29.8 28.2543 29.248 28.8524 28.744 29.4824C27.7471 30.6532 27.1774 32.1262 27.128 33.6611H27.2Z" fill="white"/>
</svg>