<svg xmlns="http://www.w3.org/2000/svg" width="56" height="55" viewBox="0 0 56 55" fill="none">
  <path d="M17.976 27.688C17.976 26.8108 17.976 25.9962 17.976 25.1816C17.976 24.3671 18.298 24.0399 19.117 24.0399H23.443V22.2089H22.813C19.18 22.2089 15.554 22.2089 11.921 22.2089C11.6459 22.2317 11.3698 22.1788 11.1228 22.056C10.8759 21.9332 10.6677 21.7452 10.521 21.5127C9.58681 20.1422 9.0082 18.563 8.83679 16.9161C8.66537 15.2691 8.90648 13.6056 9.5386 12.0738C10.1707 10.542 11.1742 9.18971 12.4595 8.13742C13.7449 7.08514 15.2721 6.36561 16.905 6.04304C20.139 5.44932 23.4755 5.76766 26.537 6.96202C27.5148 7.34845 28.6042 7.34845 29.582 6.96202C32.7984 5.67892 36.3312 5.39967 39.711 6.16139C41.2842 6.54678 42.7402 7.3052 43.9547 8.37185C45.1692 9.4385 46.106 10.7817 46.6852 12.2867C47.2643 13.7917 47.4685 15.4137 47.2804 17.0142C47.0923 18.6148 46.5175 20.1463 45.605 21.4778C45.4572 21.7309 45.2413 21.938 44.9816 22.0758C44.7219 22.2135 44.4287 22.2765 44.135 22.2576C40.544 22.2576 36.953 22.2576 33.362 22.2576H32.662V24.0886H36.939C37.807 24.0886 38.122 24.3949 38.122 25.2443C38.122 26.0937 38.122 26.8665 38.122 27.7367C39.522 27.7367 40.838 27.7367 42.168 27.7367C43.204 27.7367 43.519 28.057 43.393 29.0873C42.966 32.5196 42.518 35.9449 42.077 39.3702C41.748 41.8975 41.377 44.4177 41.111 46.9449C40.9887 48.1072 40.4636 49.191 39.6258 50.0103C38.7879 50.8296 37.6895 51.3335 36.519 51.4354C35.3453 51.543 34.1725 51.2212 33.2202 50.5304C32.268 49.8396 31.6016 48.8272 31.346 47.6829C30.289 43.0392 29.295 38.3747 28.28 33.724C28.238 33.55 28.189 33.369 28.14 33.1949H27.986C27.9092 33.3598 27.8438 33.5296 27.79 33.7032C26.796 38.2424 25.8067 42.784 24.822 47.3278C24.248 49.9734 22.239 51.5956 19.663 51.4633C18.4423 51.3796 17.2928 50.8614 16.425 50.0034C15.5573 49.1455 15.0294 48.0053 14.938 46.7918C14.378 42.1899 13.762 37.6019 13.167 33.007C12.992 31.6702 12.81 30.3335 12.663 28.9899C12.565 28.1057 12.901 27.7576 13.79 27.7576C15.176 27.681 16.534 27.688 17.976 27.688ZM28 20.3848C33.124 20.3848 38.241 20.3848 43.358 20.3848C43.5976 20.4083 43.8383 20.3529 44.0432 20.2272C44.2481 20.1014 44.4058 19.9122 44.492 19.6886C45.0918 18.5761 45.4242 17.3404 45.4629 16.0787C45.5017 14.8169 45.2458 13.5634 44.7154 12.4165C44.1849 11.2697 43.3944 10.2607 42.4059 9.46895C41.4173 8.67717 40.2577 8.12409 39.018 7.85316C36.055 7.26833 32.9848 7.55627 30.184 8.68164C28.8095 9.2315 27.2745 9.2315 25.9 8.68164C23.2873 7.67158 20.4577 7.34556 17.682 7.73481C16.3642 7.92943 15.1133 8.43848 14.0363 9.21844C12.9592 9.99841 12.0881 11.0261 11.4972 12.2137C10.9064 13.4013 10.6134 14.7136 10.6433 16.0383C10.6732 17.363 11.0251 18.6608 11.669 19.8209C11.7495 20.0062 11.8872 20.1614 12.062 20.2639C12.2369 20.3665 12.4399 20.4113 12.642 20.3918C17.773 20.3778 22.897 20.3848 28 20.3848ZM14.637 29.5399C14.812 30.9323 14.987 32.3247 15.162 33.7171C15.715 37.9987 16.282 42.3082 16.8 46.6456C16.878 47.4064 17.222 48.1158 17.7721 48.6502C18.3222 49.1846 19.0434 49.51 19.81 49.5696C20.5621 49.6134 21.3042 49.3809 21.8952 48.9163C22.4863 48.4517 22.8851 47.7873 23.016 47.0494C23.331 45.657 23.632 44.2646 23.94 42.8234C24.64 39.5234 25.34 36.2234 26.11 32.9304C26.1972 32.4752 26.4429 32.0652 26.8039 31.7723C27.1649 31.4795 27.6182 31.3226 28.084 31.3291C28.5379 31.3329 28.977 31.49 29.3293 31.7747C29.6816 32.0593 29.9262 32.4545 30.023 32.8956C30.149 33.3899 30.247 33.8911 30.359 34.3924C31.2923 38.6021 32.2093 42.8095 33.11 47.0146C33.2308 47.7253 33.6008 48.3704 34.1544 48.8356C34.7079 49.3008 35.4093 49.5559 36.134 49.5557C36.8765 49.5505 37.5941 49.2885 38.1638 48.8147C38.7334 48.3409 39.1195 47.6848 39.256 46.9589C39.333 46.569 39.361 46.1721 39.41 45.7753L41.09 32.7215C41.223 31.6563 41.356 30.5911 41.489 29.512L14.637 29.5399ZM19.824 27.6462H36.274V25.9057H19.824V27.6462ZM25.34 23.9981H30.8V22.2367H25.34V23.9981Z" fill="white"/>
</svg>