<svg xmlns="http://www.w3.org/2000/svg" width="68" height="67" viewBox="0 0 68 67" fill="none">
<path d="M8.41501 32.5756C8.59161 31.9775 8.95994 31.4537 9.46353 31.0845C9.96713 30.7153 10.5782 30.5211 11.203 30.5317C15.742 30.1246 20.264 29.6327 24.803 29.1747L26.1375 29.0305C26.4764 28.9879 26.8205 29.0162 27.1478 29.1137C27.4751 29.2112 27.7784 29.3758 28.0384 29.5969C28.2983 29.8179 28.5092 30.0907 28.6576 30.3977C28.8059 30.7047 28.8885 31.0391 28.9 31.3798C28.9 32.6519 28.9 33.9241 28.9 35.2132C28.831 36.1944 28.443 37.1264 27.795 37.8677C26.7628 39.173 26.1694 40.7698 26.0992 42.431C26.029 44.0922 26.4856 45.7332 27.404 47.1205C27.5765 47.3825 27.7638 47.6345 27.965 47.8753C28.39 48.4011 28.407 48.8252 28.0245 49.139C27.642 49.4528 27.234 49.3341 26.792 48.8167C25.5418 47.3339 24.7797 45.5029 24.6094 43.5727C24.4391 41.6425 24.8687 39.7068 25.84 38.0289C26.095 37.5879 26.435 37.1808 26.69 36.7567C26.945 36.3327 27.149 35.9086 27.3785 35.4676L27.2765 35.3319L9.91101 37.096V53.3201C9.87141 53.6022 9.89799 53.8897 9.98864 54.1598C10.0793 54.4299 10.2315 54.6753 10.4334 54.8767C10.6353 55.0782 10.8813 55.2301 11.152 55.3205C11.4227 55.411 11.7108 55.4375 11.9935 55.398H55.879C56.1659 55.4399 56.4587 55.414 56.7338 55.3224C57.0089 55.2308 57.2586 55.0761 57.4628 54.8707C57.667 54.6652 57.8201 54.4149 57.9096 54.1397C57.9992 53.8645 58.0228 53.5722 57.9785 53.2862C57.9785 48.0732 57.9785 42.863 57.9785 37.6557V37.1044L55.845 36.867C55.165 36.7991 54.485 36.7398 53.8135 36.6634C53.142 36.5871 52.9635 36.2987 52.9635 35.8577C52.9635 35.4167 53.3715 35.1284 53.9325 35.1792L57.5025 35.5524H57.9275C57.9275 34.7043 57.9275 33.8138 57.9275 32.9572C57.8961 32.7182 57.7771 32.4993 57.5934 32.3427C57.4098 32.1861 57.1745 32.1029 56.933 32.1091L50.2265 31.3798L41.7945 30.5317C40.9445 30.4468 40.5195 30.8115 40.511 31.6342C40.5025 32.4568 40.511 33.0505 40.511 33.7884L43.979 34.1446L50.422 34.8061C51.051 34.8739 51.357 35.1962 51.272 35.6542C51.187 36.1122 50.813 36.3411 50.2095 36.2818L41.0635 35.3743H40.63C40.6819 35.9016 40.9128 36.3953 41.2845 36.7737C42.2734 37.9874 42.9529 39.422 43.265 40.9548C43.6009 42.6668 43.4539 44.4382 42.8404 46.0718C42.2268 47.7054 41.1708 49.1369 39.7899 50.2069C38.4091 51.277 36.7576 51.9435 35.0195 52.1323C33.2813 52.3211 31.5248 52.0247 29.9455 51.2762C29.3845 51.0218 29.1805 50.6232 29.376 50.1906C29.5715 49.7581 30.005 49.6648 30.5745 49.9192C31.7218 50.4569 32.9811 50.7139 34.2478 50.669C35.5146 50.624 36.7523 50.2783 37.8584 49.6605C38.9645 49.0428 39.907 48.1709 40.6078 47.117C41.3086 46.0632 41.7475 44.8578 41.888 43.6009C42.0174 42.5812 41.9331 41.5459 41.6405 40.5604C41.3479 39.575 40.8532 38.6609 40.188 37.8762C39.3418 36.8835 38.9044 35.6076 38.964 34.3057C38.964 33.3898 38.964 32.4823 38.964 31.5663C38.9498 31.2016 39.0165 30.8382 39.1595 30.5021C39.3025 30.1661 39.5182 29.8658 39.7911 29.6226C40.064 29.3795 40.3874 29.1996 40.7382 29.0958C41.0889 28.9919 41.4584 28.9667 41.82 29.022L56.202 30.5317C56.627 30.5317 57.052 30.608 57.4855 30.6928C58.0484 30.7905 58.5589 31.0829 58.9273 31.5187C59.2957 31.9545 59.4985 32.5058 59.5 33.076C59.5 34.0089 59.5 34.9333 59.5 35.8662C59.5 41.6672 59.5 47.4767 59.5 53.2862C59.5178 53.7681 59.4359 54.2484 59.2595 54.6973C59.0831 55.1462 58.8159 55.554 58.4746 55.8954C58.1333 56.2367 57.7252 56.5043 57.2757 56.6813C56.8262 56.8584 56.345 56.9412 55.862 56.9246C41.2873 56.8567 26.69 56.8454 12.07 56.8906C11.2573 56.9688 10.4441 56.7457 9.78566 56.264C9.12722 55.7822 8.66957 55.0754 8.50001 54.2785C8.50001 54.2785 8.45751 54.2276 8.44051 54.2022L8.41501 32.5756ZM9.91951 35.6203L27.3785 33.8562C27.3785 33.1268 27.3785 32.4314 27.3785 31.736C27.3785 30.8879 26.9535 30.4977 26.095 30.591L21.93 31.0066L10.88 32.1261C10.6448 32.1266 10.4179 32.2132 10.2424 32.3696C10.0669 32.5259 9.95507 32.741 9.92801 32.9742C9.89401 33.8053 9.91951 34.6704 9.91951 35.6203Z" fill="#1D2E66"/>
<path d="M27.897 12.4586C28.526 12.9505 29.1295 13.3576 29.6565 13.8495C30.9693 15.0466 31.9766 16.5393 32.5946 18.2033C33.2126 19.8672 33.4234 21.6544 33.2095 23.4161C33.2095 23.6959 33.2095 23.9758 33.15 24.2642C33.157 24.3683 33.142 24.4727 33.106 24.5707C33.07 24.6687 33.0138 24.7581 32.9411 24.833C32.8683 24.908 32.7807 24.9669 32.6837 25.006C32.5867 25.0451 32.4826 25.0634 32.378 25.0598C32.2735 25.0563 32.1709 25.0309 32.0768 24.9852C31.9827 24.9396 31.8993 24.8749 31.8319 24.7951C31.7644 24.7153 31.7145 24.6223 31.6853 24.5221C31.6562 24.4219 31.6484 24.3167 31.6625 24.2133C31.6625 23.5518 31.756 22.8902 31.756 22.2287C31.8066 20.5364 31.4001 18.8617 30.5791 17.38C29.7581 15.8983 28.5528 14.6643 27.0895 13.8071C26.486 13.4254 25.8485 13.1032 25.228 12.7385C24.9962 12.6487 24.8074 12.4742 24.7001 12.2505C24.5927 12.0268 24.5748 11.7706 24.65 11.5342C24.7775 11.0847 25.143 10.8642 25.7295 10.8557C27.9489 10.6917 30.1673 11.1875 32.1045 12.2805C33.6502 13.151 34.9367 14.4151 35.8327 15.9438C36.7287 17.4725 37.2021 19.2111 37.2045 20.982C37.332 26.4523 37.366 31.931 37.4255 37.4013C37.4185 37.5967 37.4571 37.7912 37.5382 37.9693C37.6193 38.1473 37.7408 38.3042 37.893 38.4275C38.5962 39.0591 39.1355 39.8514 39.4648 40.7365C39.7941 41.6215 39.9035 42.573 39.7838 43.5095C39.6641 44.446 39.3187 45.3396 38.7773 46.1139C38.2359 46.8881 37.5145 47.5199 36.6749 47.9552C35.8353 48.3905 34.9025 48.6164 33.9563 48.6135C33.0101 48.6106 32.0787 48.379 31.2418 47.9385C30.4049 47.498 29.6875 46.8617 29.1509 46.0841C28.6142 45.3066 28.2744 44.4109 28.1605 43.4737C28.0262 42.4703 28.1626 41.4494 28.5555 40.5161C28.9485 39.5829 29.5838 38.7711 30.396 38.1645C30.547 38.0545 30.6697 37.9102 30.7539 37.7436C30.8381 37.577 30.8815 37.3928 30.8805 37.2062C31.059 34.0004 31.263 30.7861 31.4585 27.5802C31.4585 27.0375 31.79 26.7321 32.2235 26.7321C32.657 26.7321 32.98 27.0968 32.946 27.6735C32.81 30.167 32.657 32.6689 32.504 35.1708C32.4615 35.9001 32.3765 36.6295 32.368 37.3504C32.3745 37.7405 32.2849 38.1263 32.107 38.4738C31.9292 38.8213 31.6685 39.1199 31.348 39.3434C30.7073 39.8315 30.2148 40.4873 29.9252 41.2378C29.6355 41.9883 29.56 42.8043 29.707 43.5951C29.8541 44.3858 30.218 45.1205 30.7582 45.7174C31.2985 46.3142 31.994 46.75 32.7675 46.9763C33.7173 47.2563 34.7344 47.2047 35.6509 46.83C36.5673 46.4553 37.3282 45.7799 37.808 44.9154C38.2955 44.0563 38.4712 43.0558 38.3055 42.0825C38.1398 41.1093 37.6429 40.2227 36.8985 39.5724C36.5879 39.3132 36.3408 38.9868 36.1758 38.6179C36.0108 38.249 35.9324 37.8474 35.9465 37.4437C35.8898 31.9819 35.819 26.5229 35.734 21.0668C35.7083 19.0165 34.964 17.0399 33.6303 15.4799C32.2966 13.9199 30.4577 12.875 28.4325 12.5264C28.2555 12.4931 28.0767 12.4705 27.897 12.4586Z" fill="#1D2E66"/>
<path d="M47.668 23.009V20.5071C47.668 20.0067 47.668 19.5148 47.668 19.0144C47.6655 18.9221 47.6822 18.8303 47.717 18.7447C47.7518 18.6591 47.804 18.5816 47.8703 18.5171C47.9365 18.4526 48.0154 18.4024 48.102 18.3698C48.1886 18.3372 48.281 18.3228 48.3735 18.3275C48.4646 18.3181 48.5567 18.3271 48.6444 18.3537C48.732 18.3803 48.8135 18.4242 48.8839 18.4826C48.9544 18.5411 49.0125 18.613 49.0547 18.6941C49.097 18.7752 49.1225 18.8639 49.13 18.9551C49.1469 19.1356 49.1469 19.3173 49.13 19.4978V22.9835C49.2915 22.8733 49.3935 22.797 49.504 22.7376C49.6461 22.6335 49.8224 22.5871 49.9975 22.6075C50.1725 22.628 50.3333 22.7138 50.4475 22.8479C50.5155 22.9106 50.5697 22.9867 50.6068 23.0713C50.6439 23.156 50.6631 23.2474 50.6631 23.3397C50.6631 23.4321 50.6439 23.5235 50.6068 23.6082C50.5697 23.6928 50.5155 23.7689 50.4475 23.8316C49.929 24.366 49.385 24.8833 48.824 25.3667C48.7527 25.4329 48.6687 25.4838 48.577 25.5164C48.4853 25.5489 48.3879 25.5625 48.2908 25.5561C48.1937 25.5498 48.0989 25.5237 48.0123 25.4794C47.9256 25.4352 47.849 25.3737 47.787 25.2989L46.41 24.0097C46.002 23.6196 45.951 23.221 46.24 22.8733C46.529 22.5256 46.9285 22.5341 47.379 22.8733L47.668 23.009Z" fill="#1D2E66"/>
<path d="M18.819 22.9666V19.676C18.819 19.4894 18.819 19.3113 18.819 19.1332C18.819 18.6158 19.1335 18.2851 19.5755 18.2851C19.6835 18.2808 19.7912 18.3008 19.8904 18.3436C19.9897 18.3864 20.0781 18.4508 20.149 18.5322C20.22 18.6136 20.2717 18.7099 20.3005 18.8139C20.3292 18.9179 20.3342 19.027 20.315 19.1332C20.315 20.2442 20.315 21.3552 20.315 22.4662C20.315 22.6189 20.315 22.78 20.315 22.9581C21.012 22.5341 21.3605 22.5171 21.658 22.8903C21.9555 23.2634 21.8705 23.6451 21.284 24.1963L20.1535 25.248C20.0797 25.3447 19.9846 25.423 19.8755 25.477C19.7664 25.5309 19.6463 25.559 19.5245 25.559C19.4027 25.559 19.2826 25.5309 19.1735 25.477C19.0644 25.423 18.9693 25.3447 18.8955 25.248C18.4592 24.8522 18.0257 24.4451 17.595 24.0267C17.187 23.6366 17.136 23.2295 17.4335 22.8903C17.731 22.551 18.105 22.5595 18.581 22.8903C18.657 22.9251 18.7369 22.9507 18.819 22.9666Z" fill="#1D2E66"/>
<path d="M20.5955 41.557H21.1395C21.3047 41.5821 21.4565 41.6622 21.5701 41.7844C21.6838 41.9066 21.7527 42.0636 21.7655 42.2298C21.7783 42.396 21.7343 42.5617 21.6407 42.6998C21.5471 42.8378 21.4094 42.9402 21.25 42.9903C20.8374 43.0327 20.4216 43.0327 20.009 42.9903C19.8233 42.9772 19.6503 42.8914 19.5277 42.7516C19.4051 42.6118 19.3428 42.4293 19.3545 42.2439C19.3567 42.052 19.4347 41.8686 19.5716 41.7337C19.7084 41.5987 19.8931 41.523 20.0855 41.523L20.5955 41.557Z" fill="#1D2E66"/>
<path d="M47.379 43.0327C47.1483 43.0301 46.9182 43.0103 46.6905 42.9733C46.5172 42.9367 46.3631 42.8385 46.2568 42.697C46.1506 42.5556 46.0995 42.3804 46.113 42.2041C46.1265 42.0279 46.2037 41.8625 46.3303 41.7388C46.4568 41.6151 46.6241 41.5414 46.801 41.5315C47.1804 41.5104 47.5606 41.5104 47.94 41.5315C48.134 41.5314 48.3205 41.6065 48.4601 41.7411C48.5997 41.8756 48.6814 42.0589 48.688 42.2524C48.6847 42.4438 48.611 42.6274 48.481 42.7681C48.3509 42.9089 48.1735 42.997 47.9825 43.0157C47.7844 43.0284 47.5856 43.0284 47.3875 43.0157L47.379 43.0327Z" fill="#1D2E66"/>
<path d="M21.692 50.2924H22.236C22.3286 50.2935 22.4202 50.3128 22.5053 50.3492C22.5905 50.3856 22.6677 50.4384 22.7324 50.5045C22.7971 50.5707 22.8481 50.6489 22.8826 50.7348C22.917 50.8206 22.9341 50.9124 22.933 51.0048C22.9436 51.0966 22.9352 51.1896 22.9085 51.2781C22.8817 51.3666 22.8371 51.4487 22.7774 51.5194C22.7177 51.5901 22.6442 51.6478 22.5613 51.6892C22.4784 51.7305 22.388 51.7544 22.2955 51.7596C21.8663 51.8105 21.4326 51.8105 21.0035 51.7596C20.9111 51.7525 20.8212 51.7265 20.7394 51.683C20.6577 51.6396 20.5858 51.5798 20.5283 51.5073C20.4708 51.4348 20.429 51.3512 20.4054 51.2618C20.3819 51.1724 20.3771 51.0792 20.3915 50.9878C20.3915 50.8034 20.4649 50.6265 20.5956 50.4961C20.7264 50.3657 20.9036 50.2924 21.0885 50.2924C21.2925 50.2754 21.488 50.2924 21.692 50.2924Z" fill="#1D2E66"/>
<path d="M46.325 51.7766C46.1269 51.7894 45.9281 51.7894 45.73 51.7766C45.6339 51.7691 45.5402 51.7427 45.4543 51.699C45.3685 51.6552 45.2922 51.595 45.2298 51.5216C45.1673 51.4483 45.1201 51.3634 45.0907 51.2718C45.0613 51.1802 45.0503 51.0837 45.0585 50.9879C45.0651 50.8034 45.1432 50.6286 45.2764 50.5005C45.4096 50.3723 45.5875 50.3008 45.7725 50.3009C46.1408 50.3009 46.5063 50.3009 46.869 50.3009C47.0539 50.3132 47.2276 50.3936 47.3565 50.5265C47.4854 50.6593 47.5603 50.8352 47.5667 51.02C47.573 51.2048 47.5104 51.3854 47.3909 51.5267C47.2714 51.6681 47.1036 51.7601 46.92 51.7851C46.7245 51.7851 46.5205 51.7851 46.325 51.7851V51.7766Z" fill="#1D2E66"/>
<path d="M14.4925 48.2146H13.991C13.8954 48.2157 13.8005 48.1979 13.7119 48.1621C13.6233 48.1264 13.5426 48.0735 13.4746 48.0064C13.4066 47.9394 13.3526 47.8595 13.3158 47.7715C13.279 47.6835 13.26 47.5891 13.26 47.4937C13.253 47.3008 13.3221 47.1128 13.4524 46.9701C13.5827 46.8274 13.7638 46.7414 13.957 46.7304C14.3362 46.705 14.7168 46.705 15.096 46.7304C15.2798 46.756 15.4475 46.8489 15.5665 46.991C15.6855 47.1332 15.7473 47.3143 15.7399 47.4994C15.7324 47.6844 15.6563 47.8601 15.5264 47.9922C15.3964 48.1244 15.2218 48.2037 15.0365 48.2146H14.4925Z" fill="#1D2E66"/>
<path d="M53.4395 48.2146C53.2525 48.2146 53.074 48.2146 52.887 48.2146C52.7098 48.1986 52.5443 48.1193 52.4209 47.9914C52.2975 47.8636 52.2245 47.6956 52.2152 47.5183C52.2059 47.341 52.261 47.1663 52.3703 47.0262C52.4797 46.8862 52.636 46.7902 52.8105 46.7558C53.2368 46.705 53.6677 46.705 54.094 46.7558C54.2684 46.7887 54.4251 46.8831 54.5355 47.0217C54.6459 47.1603 54.7027 47.3339 54.6955 47.5108C54.6883 47.6877 54.6175 47.8562 54.4962 47.9854C54.3748 48.1145 54.211 48.1959 54.0345 48.2146C53.8305 48.223 53.635 48.2146 53.4395 48.2146Z" fill="#1D2E66"/>
</svg>