<svg xmlns="http://www.w3.org/2000/svg" width="59" height="58" viewBox="0 0 59 58" fill="none">
  <path d="M1.47501 24.0002C1.65201 23.1486 1.77738 22.2823 2.01338 21.4527C2.59663 19.41 3.65415 17.5324 5.10058 15.9716C6.54701 14.4107 8.34182 13.2103 10.3401 12.4671C12.3385 11.724 14.4843 11.459 16.6045 11.6935C18.7246 11.928 20.7597 12.6555 22.5454 13.8172C22.7193 13.9178 22.8824 14.0359 23.0321 14.1696C23.1715 14.3021 23.259 14.4797 23.2789 14.6705C23.2988 14.8614 23.2497 15.053 23.1406 15.2112C23.0314 15.3693 22.8693 15.4836 22.6832 15.5335C22.4971 15.5835 22.2992 15.5659 22.125 15.4838C21.9805 15.4096 21.8423 15.3237 21.712 15.2268C20.1804 14.2155 18.4356 13.5684 16.6126 13.3356C14.7896 13.1028 12.9372 13.2905 11.1987 13.8842C9.46023 14.4779 7.88222 15.4618 6.58671 16.7596C5.2912 18.0575 4.3129 19.6346 3.72748 21.3689C3.14206 23.1033 2.96519 24.9485 3.21057 26.7617C3.45594 28.575 4.11697 30.3078 5.14255 31.8262C6.16812 33.3445 7.53076 34.6076 9.12508 35.518C10.7194 36.4283 12.5027 36.9613 14.337 37.0759C16.5495 37.1934 18.8136 37.1347 21.0556 37.1273C21.3075 37.1121 21.5592 37.1615 21.7864 37.2708C22.0137 37.38 22.209 37.5455 22.3536 37.7514C24.5364 40.4187 27.264 42.5935 30.3555 44.1314C30.4956 44.2048 30.6505 44.2709 30.7906 44.3516C30.9009 44.3939 31.0006 44.4596 31.0828 44.5442C31.1649 44.6288 31.2275 44.7302 31.2661 44.8414C31.3048 44.9526 31.3185 45.0708 31.3065 45.1879C31.2944 45.3049 31.2568 45.4179 31.1963 45.519C31.1464 45.6225 31.0745 45.714 30.9856 45.7872C30.8968 45.8603 30.793 45.9134 30.6815 45.9428C30.57 45.9721 30.4534 45.9769 30.3398 45.957C30.2262 45.9371 30.1183 45.8928 30.0236 45.8273C28.969 45.262 27.907 44.6967 26.8966 44.0506C24.802 42.6914 22.9165 41.037 21.299 39.139C21.1016 38.9455 20.8384 38.8329 20.5615 38.8233C18.4154 38.7792 16.2619 38.8233 14.1231 38.7425C11.1046 38.5272 8.24412 37.3168 5.99369 35.3025C3.74326 33.2883 2.23115 30.585 1.69626 27.6197C1.62988 27.2086 1.54876 26.8048 1.47501 26.3937V24.0002Z" fill="#1D2E66"/>
  <path d="M51.9274 26.2468L52.864 26.7167C52.9781 26.7568 53.0823 26.8208 53.1696 26.9043C53.2568 26.9878 53.3251 27.089 53.3698 27.201C53.4145 27.3129 53.4346 27.4331 53.4288 27.5535C53.423 27.6738 53.3913 27.7916 53.336 27.8987C53.2834 27.9997 53.2102 28.0886 53.121 28.1597C53.0319 28.2308 52.9288 28.2825 52.8183 28.3115C52.7079 28.3406 52.5926 28.3463 52.4798 28.3283C52.367 28.3103 52.2592 28.269 52.1634 28.2071C50.9613 27.6418 49.7813 27.0471 48.5791 26.4744C48.1001 26.2234 47.5511 26.1369 47.0176 26.2285C46.4841 26.3202 45.996 26.5847 45.6291 26.981C45.2536 27.3618 45.0098 27.8517 44.9328 28.3797C44.8559 28.9078 44.95 29.4465 45.2014 29.9177C46.3322 32.3111 47.4655 34.7045 48.6013 37.098C48.6612 37.2102 48.7153 37.3253 48.7635 37.443C48.8107 37.5412 48.8379 37.6478 48.8434 37.7566C48.8489 37.8653 48.8327 37.9741 48.7956 38.0765C48.7586 38.179 48.7014 38.2731 48.6276 38.3534C48.5537 38.4337 48.4645 38.4986 48.3653 38.5443C48.2651 38.5909 48.1564 38.6164 48.0459 38.6192C47.9354 38.6221 47.8255 38.6022 47.7231 38.5608C47.6206 38.5195 47.5279 38.4576 47.4506 38.3789C47.3733 38.3003 47.3131 38.2066 47.2738 38.1038C46.6321 36.7823 46.0274 35.4461 45.371 34.1319C45.2438 33.8792 45.0364 33.6754 44.781 33.5519C43.1328 32.8174 41.343 32.4515 39.5374 32.48C39.3054 32.5061 39.083 32.5866 38.8884 32.7149L31.8084 36.9144C31.641 37.0246 31.4632 37.118 31.2774 37.1934C31.1052 37.2505 30.9186 37.2479 30.7481 37.186C30.5775 37.1241 30.433 37.0065 30.3381 36.8525C30.2432 36.6985 30.2035 36.517 30.2254 36.3376C30.2473 36.1582 30.3296 35.9915 30.4588 35.8645C30.6169 35.7341 30.7902 35.6232 30.975 35.5342C33.5341 34.0071 36.1006 32.4947 38.6598 30.9602C39.0812 30.7331 39.4254 30.3864 39.6486 29.9642C39.8718 29.542 39.964 29.0633 39.9135 28.5888C39.9 28.1032 39.7341 27.6339 39.4392 27.2468C39.1443 26.8597 38.735 26.5742 38.2689 26.4304C37.7855 26.3194 37.2896 26.2725 36.7939 26.2909C36.5462 26.2972 36.2995 26.3242 36.0564 26.3716C35.8308 26.4112 35.5984 26.3703 35.4001 26.2562C35.2019 26.142 35.0503 25.9619 34.9723 25.7476C34.7394 25.2225 34.3204 24.8013 33.7952 24.5643C33.2701 24.3273 32.6757 24.2911 32.1255 24.4628C32.4033 26.0176 32.232 27.619 31.6314 29.0807L34.0578 27.9721C34.22 27.8987 34.3823 27.8106 34.5519 27.7445C34.6505 27.6829 34.7612 27.643 34.8765 27.6273C34.9919 27.6117 35.1093 27.6207 35.2208 27.6538C35.3324 27.6869 35.4356 27.7433 35.5235 27.8192C35.6115 27.8952 35.6821 27.9889 35.7308 28.0942C35.7794 28.1995 35.805 28.3139 35.8057 28.4298C35.8064 28.5457 35.7823 28.6604 35.7349 28.7663C35.6875 28.8722 35.618 28.9668 35.531 29.0438C35.444 29.1208 35.3415 29.1785 35.2304 29.2129C33.8365 29.8737 32.4353 30.5124 31.0266 31.1585C30.3555 31.4742 29.6918 31.8119 28.9985 32.0909C28.378 32.3338 27.8147 32.7019 27.3438 33.1719C26.873 33.6418 26.5048 34.2037 26.2624 34.822C26.1001 35.2038 25.9453 35.5929 25.7683 35.9747C25.7307 36.0776 25.6727 36.172 25.5977 36.2521C25.5227 36.3322 25.4322 36.3965 25.3317 36.441C25.2312 36.4856 25.1227 36.5095 25.0127 36.5114C24.9027 36.5132 24.7935 36.493 24.6915 36.4519C24.5931 36.4132 24.5034 36.3553 24.4276 36.2817C24.3519 36.208 24.2917 36.1201 24.2505 36.0231C24.2093 35.926 24.1879 35.8217 24.1877 35.7164C24.1874 35.611 24.2083 35.5066 24.249 35.4094C24.9865 33.2582 26.1223 31.4301 28.3864 30.5858C28.6658 30.482 28.9218 30.3241 29.1395 30.1212C29.3572 29.9183 29.5324 29.6745 29.6549 29.4038C30.512 27.9905 30.8067 26.3091 30.4809 24.6904C30.4582 24.5921 30.4261 24.4962 30.385 24.404C29.5516 24.6757 28.733 24.9473 27.907 25.2043C27.7142 25.2526 27.5158 25.2748 27.317 25.2704C27.202 25.2911 27.084 25.2872 26.9706 25.2591C26.8572 25.231 26.7511 25.1793 26.6593 25.1074C26.5675 25.0354 26.492 24.9449 26.4379 24.8418C26.3838 24.7387 26.3523 24.6254 26.3455 24.5093C26.3387 24.3932 26.3567 24.2769 26.3983 24.1682C26.4399 24.0596 26.5042 23.9609 26.587 23.8788C26.6698 23.7967 26.7691 23.733 26.8784 23.6919C26.9877 23.6508 27.1045 23.6333 27.2211 23.6405C28.0812 23.586 28.9077 23.288 29.6033 22.7815C29.3232 22.4757 29.0278 22.1841 28.7183 21.9078C28.5591 21.7889 28.4334 21.6312 28.3533 21.4499C28.2733 21.2686 28.2415 21.0698 28.261 20.8726C28.32 19.5952 27.7374 19.1033 26.4763 19.3529C26.2661 19.4162 26.0406 19.4063 25.8368 19.3249C25.633 19.2435 25.4632 19.0954 25.3553 18.9051C25.0013 18.3764 24.6178 17.8699 24.2343 17.3633C24.1533 17.2832 24.0897 17.1874 24.0474 17.0818C24.0052 16.9763 23.9852 16.8632 23.9886 16.7496C23.9921 16.636 24.0189 16.5244 24.0675 16.4216C24.1161 16.3187 24.1854 16.2269 24.2711 16.1519C24.3576 16.0778 24.4586 16.0226 24.5677 15.9897C24.6768 15.9568 24.7916 15.9469 24.9048 15.9607C25.018 15.9745 25.127 16.0117 25.2249 16.07C25.3228 16.1282 25.4074 16.2061 25.4733 16.2987C25.5122 16.3364 25.5468 16.3783 25.5765 16.4235C25.782 16.814 26.0872 17.1438 26.4613 17.3796C26.8355 17.6155 27.2654 17.7491 27.7079 17.7671C29.0133 17.8625 29.7286 18.8977 29.9204 20.3587C29.9733 20.6107 30.0844 20.847 30.2449 21.0488C30.6874 21.6435 31.1594 22.2162 31.6166 22.7815C32.2892 22.7304 32.9648 22.7304 33.6374 22.7815C34.1156 22.863 34.5727 23.0388 34.9817 23.2985C35.3908 23.5582 35.7436 23.8966 36.0195 24.2939C36.0958 24.4159 36.2063 24.5128 36.3374 24.5729C36.4685 24.6329 36.6144 24.6533 36.757 24.6316C37.5174 24.5126 38.2961 24.6055 39.0066 24.9002C39.7172 25.1948 40.3319 25.6796 40.7826 26.3008C41.2332 26.9221 41.5022 27.6554 41.5597 28.4195C41.6172 29.1837 41.4609 29.9487 41.1083 30.6299C41.09 30.6877 41.0752 30.7465 41.064 30.8061L44.1689 31.4228C43.0036 29.3891 42.8045 27.3995 44.5819 25.6815C46.4846 23.8387 48.557 24.338 50.5925 25.5567C50.867 24.9662 51.308 24.4679 51.8619 24.1225C52.4158 23.777 53.0586 23.5994 53.7121 23.6111C54.605 23.6265 55.462 23.9639 56.1239 24.5607C56.7858 25.1575 57.2077 25.9732 57.3111 26.8562C57.6041 28.4543 57.49 30.1001 56.9793 31.643C56.5073 33.1114 55.4158 33.7575 53.8596 33.8456C54.3095 34.5797 54.7446 35.3139 55.1576 36.0481C55.8406 37.141 56.2026 38.4025 56.2026 39.6896C56.2026 40.9768 55.8406 42.2382 55.1576 43.3311C54.383 44.592 53.2621 45.6059 51.9274 46.2532C48.5341 48.0537 44.7013 48.8703 40.8649 48.6099C38.3727 48.494 35.9084 48.037 33.5415 47.2516H33.4383C32.8188 47.0461 32.568 46.6716 32.7008 46.1724C32.8335 45.6732 33.2834 45.5116 33.9029 45.6805C35.0313 45.9815 36.1154 46.3339 37.2806 46.5542C41.7056 47.3911 46.0421 47.2296 50.2016 45.3134C50.8446 45.0136 51.4634 44.665 52.0528 44.2709C53.2314 43.5288 54.0678 42.3533 54.38 41.0003C54.6921 39.6472 54.4548 38.2262 53.7195 37.0466C52.51 34.9762 51.2563 32.9352 50.032 30.8795C49.9435 30.7253 49.8403 30.5711 49.7591 30.4096C49.703 30.3156 49.6665 30.2113 49.6517 30.103C49.6369 29.9946 49.6442 29.8844 49.6731 29.7789C49.702 29.6734 49.7519 29.5748 49.8199 29.4889C49.8879 29.403 49.9726 29.3316 50.0689 29.279C50.1605 29.2261 50.2618 29.1921 50.3668 29.179C50.4719 29.1659 50.5785 29.174 50.6803 29.2027C50.7822 29.2315 50.8771 29.2804 50.9596 29.3465C51.0421 29.4125 51.1104 29.4944 51.1604 29.5873C51.5513 30.1967 51.8979 30.8354 52.2888 31.4448C52.482 31.743 52.7547 31.9818 53.0763 32.1348C53.398 32.2877 53.7559 32.3488 54.1104 32.3111C54.4408 32.2855 54.7529 32.1499 54.9964 31.9262C55.2399 31.7024 55.4006 31.4035 55.4526 31.0777C55.8247 29.8066 55.8929 28.4665 55.6518 27.1645C55.3641 25.7476 54.1768 24.962 53.0336 25.4686C52.6371 25.6864 52.266 25.9474 51.9274 26.2468Z" fill="#1D2E66"/>
  <path d="M17.0805 34.176C16.4652 34.1671 15.8598 34.0202 15.3094 33.7462C14.759 33.4722 14.2777 33.0783 13.9014 32.5936C13.5251 32.1089 13.2634 31.5459 13.1358 30.9467C13.0082 30.3474 13.0179 29.7272 13.1644 29.1322C13.3616 28.4486 13.771 27.8447 14.334 27.4068C14.897 26.969 15.5848 26.7197 16.2987 26.6947C16.8519 26.6947 17.1837 26.9443 17.228 27.4289C17.2478 27.5418 17.2421 27.6578 17.2112 27.7682C17.1803 27.8787 17.125 27.9809 17.0494 28.0674C16.9738 28.1539 16.8798 28.2226 16.7742 28.2683C16.6685 28.3141 16.554 28.3358 16.4389 28.3319C16.055 28.3243 15.6798 28.4454 15.3735 28.6758C15.0671 28.9062 14.8476 29.2324 14.75 29.602C14.6279 30.0358 14.6423 30.4964 14.7913 30.9217C14.9403 31.3471 15.2168 31.7167 15.5834 31.9808C15.8909 32.2684 16.2775 32.4583 16.6939 32.5263C17.1103 32.5943 17.5375 32.5373 17.9212 32.3626C18.2065 32.2323 18.4503 32.0263 18.6259 31.7674C18.8015 31.5084 18.9022 31.2063 18.9169 30.8942C19.0054 30.2188 19.352 29.9031 19.8756 29.9838C20.3992 30.0646 20.6131 30.4831 20.532 31.1218C20.4503 31.9706 20.049 32.7572 19.4088 33.3237C18.7686 33.8902 17.9369 34.1947 17.0805 34.176Z" fill="#1D2E66"/>
  <path d="M21.4613 22.2896C22.1988 22.2896 22.5159 22.0914 22.6929 21.5995C22.9289 20.9681 23.305 20.7405 23.7844 20.9093C24.2638 21.0782 24.4481 21.5334 24.2269 22.1795C24.0444 22.7229 23.6848 23.19 23.205 23.5066C22.7253 23.8232 22.1531 23.9711 21.5793 23.9268C20.9598 23.8828 20.5836 23.545 20.6131 23.0605C20.6159 22.9537 20.6403 22.8487 20.6848 22.7515C20.7293 22.6544 20.7931 22.5673 20.8723 22.4953C20.9515 22.4233 21.0445 22.368 21.1457 22.3326C21.2469 22.2973 21.3542 22.2826 21.4613 22.2896Z" fill="#1D2E66"/>
</svg>