<svg xmlns="http://www.w3.org/2000/svg" width="61" height="60" viewBox="0 0 61 60" fill="none">
  <path d="M23.973 4.55698C24.136 4.69633 24.2608 4.87473 24.3355 5.07536C24.4102 5.276 24.4324 5.49227 24.4 5.70381C24.4 6.46331 24.4 7.28356 24.3543 8.06584C24.3151 8.72984 24.1335 9.37778 23.8218 9.96601C23.5101 10.5542 23.0754 11.0691 22.5471 11.476C22.1583 11.7874 21.7236 12.0608 21.3043 12.3342C21.2229 12.4014 21.1285 12.451 21.0269 12.4798C20.9253 12.5087 20.8188 12.5163 20.7141 12.502C20.6094 12.4877 20.5089 12.4519 20.4188 12.3969C20.3288 12.3418 20.2512 12.2688 20.191 12.1823C20.1283 12.092 20.0861 11.9892 20.0672 11.881C20.0482 11.7729 20.053 11.6619 20.0813 11.5558C20.1096 11.4497 20.1606 11.3509 20.2309 11.2663C20.3012 11.1817 20.389 11.1133 20.4884 11.0658C20.801 10.8456 21.1289 10.6405 21.4415 10.4127C21.8683 10.1221 22.2205 9.73561 22.4695 9.28437C22.7185 8.83312 22.8575 8.32983 22.875 7.8152C22.875 7.10888 22.875 6.40255 22.875 5.69622C22.8503 5.48049 22.8823 5.26206 22.9678 5.06235C23.0534 4.86263 23.1895 4.68849 23.363 4.55698H23.973Z" fill="#1D2E66"/>
  <path d="M35.8375 43.4126L37.8352 46.6253C37.9725 46.838 38.1097 47.0506 38.2317 47.2709C38.3017 47.3564 38.352 47.4561 38.3794 47.5629C38.4067 47.6698 38.4103 47.7813 38.39 47.8898C38.3697 47.9982 38.3259 48.1009 38.2617 48.1908C38.1975 48.2806 38.1144 48.3555 38.0182 48.4101C37.9258 48.4629 37.8232 48.4957 37.7172 48.5066C37.6113 48.5174 37.5042 48.506 37.4029 48.4731C37.3016 48.4402 37.2083 48.3865 37.1291 48.3154C37.0499 48.2444 36.9866 48.1577 36.9431 48.0607C36.4551 47.3013 35.9824 46.5418 35.502 45.7823C35.1436 45.1975 34.7395 44.6202 34.4192 44.0278C34.3722 43.9222 34.2884 43.8371 34.1833 43.7883C34.0782 43.7394 33.9589 43.7301 33.8474 43.762C31.4684 44.0886 29.0817 44.4 26.7027 44.719H26.352C25.4446 44.7797 25.1854 44.5291 25.254 43.6253C23.5434 42.927 22.0418 41.8022 20.8934 40.3591C19.7451 38.9161 18.9885 37.2031 18.6965 35.3848C18.5421 35.433 18.384 35.4686 18.2237 35.4911C18.0992 35.4886 17.9772 35.4556 17.8683 35.3952C17.7595 35.3348 17.6672 35.2487 17.5995 35.1446C17.5318 35.0404 17.4907 34.9213 17.4799 34.7977C17.4691 34.6741 17.4889 34.5497 17.5375 34.4354C17.8882 33.5468 18.3 32.6734 18.6431 31.7696C18.1719 31.6807 17.7359 31.4598 17.3861 31.133C17.0364 30.8061 16.7874 30.3868 16.6683 29.924C16.5552 29.4384 16.5924 28.93 16.775 28.4658C16.865 28.3013 16.8951 28.111 16.8604 27.9269C16.8256 27.7429 16.7281 27.5764 16.5844 27.4557C16.3312 27.2199 16.1351 26.9299 16.0109 26.6075C15.8867 26.2852 15.8377 25.9389 15.8676 25.5949C15.9109 25.1683 16.0783 24.7636 16.3492 24.4303C16.62 24.0971 16.9827 23.8499 17.3926 23.719L16.9656 23.0962L15.1051 20.3468C14.737 19.8473 14.4768 19.2771 14.3411 18.6723C14.2055 18.0675 14.1972 17.4413 14.3169 16.8332C14.4365 16.2251 14.6815 15.6483 15.0364 15.1393C15.3912 14.6302 15.8482 14.2001 16.3785 13.8759C16.8207 13.5721 17.2706 13.2683 17.7205 12.9797C17.802 12.9065 17.8984 12.8517 18.0032 12.819C18.1079 12.7863 18.2185 12.7765 18.3274 12.7903C18.4363 12.8041 18.5409 12.8412 18.6341 12.899C18.7273 12.9567 18.8069 13.0339 18.8674 13.1251C18.9279 13.2163 18.9679 13.3195 18.9847 13.4275C19.0015 13.5356 18.9947 13.646 18.9647 13.7512C18.9347 13.8563 18.8823 13.9538 18.811 14.037C18.7397 14.1201 18.6512 14.187 18.5516 14.2329C18.056 14.5823 17.5451 14.9013 17.0266 15.2506C16.7062 15.4691 16.4322 15.7485 16.2204 16.0727C16.0086 16.3968 15.8631 16.7595 15.7922 17.1398C15.7214 17.5201 15.7266 17.9106 15.8076 18.2889C15.8886 18.6672 16.0437 19.0258 16.2641 19.3443C17.1562 20.7114 18.0865 22.0481 19.0091 23.3848C19.1279 23.5355 19.2995 23.6358 19.4895 23.6658C21.5916 23.8314 23.5678 24.7296 25.071 26.2025C25.4828 26.5975 25.8945 26.962 26.2986 27.4025C26.4741 27.5445 26.6062 27.7325 26.6801 27.9453C26.754 28.1581 26.7667 28.3872 26.7167 28.6068C26.6667 28.8264 26.5561 29.0277 26.3974 29.188C26.2386 29.3483 26.038 29.4612 25.8182 29.5139C24.0874 30.1215 22.3565 30.7215 20.618 31.2987C20.5462 31.3098 20.4774 31.3349 20.4154 31.3727C20.3535 31.4105 20.2996 31.4601 20.2571 31.5188C20.2145 31.5774 20.1841 31.6439 20.1675 31.7143C20.1509 31.7847 20.1485 31.8577 20.1605 31.9291C20.0803 33.4047 20.2034 34.8843 20.5265 36.3266C21.1629 38.4699 22.5677 40.3055 24.474 41.4846C26.3803 42.6636 28.6552 43.1038 30.866 42.7215C33.4356 42.281 35.9824 41.7266 38.5367 41.2025C38.8265 41.1418 39.1086 41.0278 39.3984 40.9367C40.0007 40.7544 40.4125 40.9367 40.565 41.3848C40.7175 41.8329 40.443 42.2126 39.8787 42.3721C38.6816 42.6987 37.4692 42.9949 36.2721 43.3063L35.8375 43.4126ZM23.5689 26.9392C22.7924 26.2781 21.8891 25.7811 20.914 25.4782C19.9388 25.1753 18.912 25.0729 17.8959 25.1772C17.819 25.182 17.7439 25.202 17.6749 25.236C17.6059 25.2701 17.5444 25.3175 17.494 25.3755C17.4436 25.4334 17.4053 25.5008 17.3814 25.5737C17.3574 25.6466 17.3483 25.7235 17.3545 25.8C17.4158 26.1042 17.5759 26.3799 17.8102 26.5845C18.0445 26.789 18.3399 26.911 18.6507 26.9316C19.1557 26.8557 19.6651 26.8126 20.1757 26.8025C21.3042 26.8177 22.4099 26.8861 23.5689 26.9392ZM23.6375 28.6557C23.5309 28.6062 23.4214 28.5631 23.3096 28.5266C21.8006 28.239 20.2532 28.2107 18.7346 28.443C18.5346 28.498 18.3583 28.6171 18.2329 28.7818C18.1075 28.9465 18.04 29.1477 18.0407 29.3544C18.0407 29.8329 18.6279 30.357 19.0701 30.2051C20.5875 29.719 22.0439 29.2025 23.6375 28.6557Z" fill="#1D2E66"/>
  <path d="M23.2867 21.5696C22.6814 21.5285 22.1047 21.2972 21.6397 20.9089C21.2509 20.5975 20.8772 20.2709 20.4655 19.9595C20.386 19.8787 20.2911 19.8144 20.1863 19.7706C20.0816 19.7268 19.9691 19.7042 19.8555 19.7042C19.7419 19.7042 19.6294 19.7268 19.5247 19.7706C19.4199 19.8144 19.325 19.8787 19.2455 19.9595C18.7956 20.3544 18.3762 20.3772 18.056 20.0278C17.9857 19.9445 17.9332 19.8476 17.9019 19.7432C17.8706 19.6389 17.861 19.5292 17.8739 19.4211C17.8868 19.3129 17.9217 19.2085 17.9767 19.1143C18.0316 19.0201 18.1053 18.9381 18.1932 18.8734C18.5917 18.4677 19.1247 18.2201 19.6928 18.1768C20.261 18.1335 20.8256 18.2974 21.2814 18.638C21.7007 18.9494 22.0896 19.2911 22.4937 19.6177C22.7354 19.8767 23.0671 20.0342 23.4212 20.0582C23.7754 20.0822 24.1254 19.9709 24.4 19.7468C24.6589 19.5279 24.8272 19.2212 24.8723 18.8859C24.9173 18.5507 24.836 18.2107 24.644 17.9316C24.339 17.3696 24.0187 16.8228 23.7137 16.2608C23.6442 16.1747 23.5942 16.0746 23.5675 15.9674C23.5407 15.8602 23.5378 15.7485 23.5588 15.64C23.5799 15.5315 23.6244 15.429 23.6894 15.3394C23.7543 15.2499 23.8381 15.1755 23.9349 15.1215C24.0303 15.0672 24.1365 15.034 24.246 15.0243C24.3555 15.0147 24.4659 15.0287 24.5695 15.0655C24.673 15.1023 24.7674 15.161 24.8461 15.2375C24.9247 15.314 24.9859 15.4066 25.0252 15.5089C25.3912 16.1468 25.7877 16.7848 26.1004 17.4456C26.314 17.9011 26.4052 18.404 26.3649 18.9052C26.3246 19.4063 26.1542 19.8884 25.8705 20.3043C25.5868 20.7201 25.1995 21.0553 24.7466 21.2772C24.2936 21.499 23.7906 21.5998 23.2867 21.5696Z" fill="#1D2E66"/>
  <path d="M12.4669 39.8658C13.2294 39.8658 13.9232 39.8658 14.5942 39.8658C15.128 39.8658 15.4787 40.1772 15.4635 40.6253C15.4642 40.7325 15.442 40.8386 15.3986 40.9366C15.3551 41.0347 15.2913 41.1225 15.2114 41.1942C15.1314 41.2659 15.0372 41.32 14.9347 41.3529C14.8323 41.3857 14.7241 41.3966 14.6171 41.3848C13.9232 41.3848 13.237 41.3848 12.4897 41.3848L12.7337 41.7494C12.839 41.8946 12.8849 42.0742 12.8623 42.2518C12.8396 42.4295 12.7501 42.5919 12.6117 42.7063C12.553 42.7746 12.4808 42.8301 12.3996 42.8693C12.3184 42.9085 12.2299 42.9305 12.1397 42.9341C12.0495 42.9377 11.9596 42.9227 11.8755 42.89C11.7914 42.8573 11.715 42.8077 11.651 42.7443C11.0829 42.1949 10.5433 41.617 10.0345 41.0127C9.97619 40.9399 9.93289 40.8565 9.90707 40.767C9.88126 40.6776 9.87344 40.584 9.88407 40.4915C9.89469 40.3991 9.92356 40.3096 9.969 40.2283C10.0144 40.147 10.0756 40.0754 10.1489 40.0177C10.5911 39.5544 11.0257 39.0911 11.4756 38.6354C11.9255 38.1797 12.2762 38.1797 12.627 38.4911C12.9777 38.8025 12.9472 39.1671 12.627 39.6076L12.4669 39.8658Z" fill="#1D2E66"/>
  <path d="M18.0179 48.7291H18.5287C18.6989 48.7242 18.8646 48.7832 18.9931 48.8943C19.1217 49.0055 19.2036 49.1606 19.2226 49.3291C19.2704 49.4912 19.2524 49.6656 19.1726 49.8147C19.0928 49.9638 18.9574 50.0758 18.7956 50.1266C17.9969 50.3287 17.1874 50.486 16.3709 50.5975C15.982 50.6506 15.7304 50.3544 15.6084 49.9671C15.4482 49.3139 15.2729 48.6683 15.1204 48.0152C15.0694 47.9168 15.0406 47.8084 15.0361 47.6977C15.0316 47.5871 15.0515 47.4768 15.0943 47.3745C15.1371 47.2723 15.2018 47.1807 15.2839 47.106C15.3661 47.0313 15.4636 46.9754 15.5697 46.9423C15.6758 46.9091 15.7879 46.8995 15.8981 46.914C16.0083 46.9286 16.114 46.9669 16.2078 47.0265C16.3016 47.086 16.3811 47.1652 16.4409 47.2586C16.5007 47.352 16.5393 47.4573 16.5539 47.5671C16.6036 47.6888 16.6469 47.813 16.6835 47.9392C17.1029 47.2861 17.446 46.6937 17.8501 46.1164C17.8947 46.0253 17.9571 45.9439 18.0337 45.8771C18.1103 45.8103 18.1996 45.7595 18.2962 45.7277C18.3929 45.6958 18.495 45.6836 18.5965 45.6916C18.6979 45.6997 18.7968 45.7279 18.8871 45.7747C18.9828 45.8263 19.0662 45.8978 19.1319 45.9843C19.1975 46.0707 19.2438 46.1702 19.2676 46.276C19.2914 46.3817 19.2923 46.4913 19.2701 46.5974C19.2478 46.7035 19.2031 46.8037 19.1387 46.8911C18.8032 47.5063 18.422 48.0911 18.0179 48.7291Z" fill="#1D2E66"/>
  <path d="M47.275 36.881C47.4809 37.0329 47.7706 37.1468 47.8545 37.3519C47.9241 37.6003 47.9241 37.863 47.8545 38.1114C47.8545 38.2329 47.6563 38.3392 47.5266 38.4152C46.1694 39.243 44.8121 40.0785 43.4396 40.8759C43.3523 40.9506 43.2491 41.0047 43.1379 41.034C43.0266 41.0633 42.9101 41.0671 42.7971 41.0452C42.6841 41.0233 42.5776 40.9762 42.4855 40.9074C42.3934 40.8386 42.3182 40.75 42.2654 40.6481C42.0519 40.238 42.2654 39.843 42.7458 39.5468C44.0649 38.7873 45.3764 37.9519 46.6955 37.1544C46.8833 37.0524 47.0768 36.9611 47.275 36.881Z" fill="#1D2E66"/>
  <path d="M40.0236 54.0835C40.0236 54.4481 40.0236 54.843 40.0236 55.1848C40.0236 55.762 39.7034 56.1114 39.2611 56.0962C38.8189 56.081 38.4986 55.7544 38.4986 55.2C38.5635 53.7519 38.4379 52.3017 38.125 50.8861C38.1015 50.7922 38.0973 50.6945 38.1128 50.599C38.1284 50.5035 38.1632 50.4121 38.2153 50.3305C38.2673 50.2488 38.3355 50.1785 38.4157 50.1238C38.4958 50.0692 38.5863 50.0314 38.6816 50.0126C38.779 49.9818 38.8819 49.9725 38.9832 49.9854C39.0845 49.9984 39.1818 50.0332 39.2682 50.0874C39.3546 50.1417 39.4281 50.214 39.4835 50.2995C39.5389 50.385 39.5749 50.4815 39.589 50.5823C39.7872 51.7291 39.9321 52.8608 40.0999 54.0456L40.0236 54.0835Z" fill="#1D2E66"/>
  <path d="M17.5375 36.9418C17.7397 36.9418 17.9337 37.0218 18.0767 37.1642C18.2197 37.3066 18.3 37.4998 18.3 37.7013C18.3353 38.5849 18.5479 39.4526 18.9252 40.2531C18.9955 40.3416 19.0451 40.4445 19.0704 40.5544C19.0957 40.6642 19.0962 40.7784 19.0717 40.8885C19.0473 40.9985 18.9985 41.1018 18.929 41.1908C18.8595 41.2798 18.7709 41.3522 18.6698 41.4029C18.5687 41.4535 18.4575 41.4811 18.3443 41.4836C18.2311 41.4862 18.1188 41.4636 18.0155 41.4175C17.9122 41.3714 17.8205 41.303 17.7471 41.2172C17.6736 41.1314 17.6203 41.0304 17.5909 40.9215C17.05 39.9286 16.7693 38.8157 16.775 37.6861C16.7693 37.5855 16.7852 37.4849 16.8217 37.391C16.8582 37.2971 16.9144 37.212 16.9866 37.1415C17.0589 37.071 17.1454 37.0167 17.2404 36.9823C17.3354 36.9478 17.4367 36.934 17.5375 36.9418Z" fill="#1D2E66"/>
  <path d="M20.1148 42.0228C20.4121 42.1671 20.5875 42.2582 20.7705 42.3342C21.533 42.6608 22.2193 43.0101 22.9741 43.2836C23.5308 43.481 23.7976 43.7696 23.6833 44.2405C23.5689 44.7114 23.2029 44.8633 22.6539 44.757C21.6314 44.5553 20.6658 44.1327 19.825 43.519C19.5276 43.2987 19.337 42.9949 19.5124 42.6532C19.6832 42.4165 19.8859 42.2044 20.1148 42.0228Z" fill="#1D2E66"/>
</svg>