<svg xmlns="http://www.w3.org/2000/svg" width="65" height="64" viewBox="0 0 65 64" fill="none">
  <path d="M4.33875 32.8992C4.7775 32.4051 5.20812 31.919 5.68749 31.4491C5.75841 31.3581 5.84797 31.2833 5.9502 31.2296C6.05243 31.1759 6.16497 31.1445 6.28032 31.1376C6.39567 31.1307 6.51116 31.1484 6.6191 31.1896C6.72703 31.2307 6.82493 31.2943 6.90624 31.3762C6.9927 31.4522 7.06194 31.5457 7.10937 31.6505C7.1568 31.7552 7.18133 31.8689 7.18133 31.9838C7.18133 32.0987 7.1568 32.2123 7.10937 32.3171C7.06194 32.4219 6.9927 32.5154 6.90624 32.5914C6.63 32.9073 6.3375 33.2071 6.045 33.5149C5.39499 34.1873 4.9725 34.1711 4.42 33.4501L4.33875 32.8992Z" fill="#1D2E66"/>
  <path d="M9.25438 35.4349H9.82313C14.5844 35.3539 19.3456 35.281 24.1069 35.1838C25.243 35.163 26.3643 35.4425 27.3569 35.9939C28.5838 36.6501 29.7944 37.2739 31.0538 37.9463C31.5052 38.217 32.022 38.3601 32.5488 38.3601C33.0755 38.3601 33.5924 38.217 34.0438 37.9463C35.3031 37.2658 36.5788 36.6258 37.8381 35.9453C38.7973 35.4285 39.8766 35.1742 40.9663 35.2081L55.3069 35.4592H55.9C51.6263 33.0289 47.4013 30.5337 43.1356 28.1276C42.0231 27.4753 40.7647 27.1107 39.4748 27.0668C38.1849 27.023 36.9045 27.3013 35.75 27.8765C35.1163 28.1681 34.4988 28.4759 33.8731 28.7919C33.4677 29.011 33.0139 29.1257 32.5528 29.1257C32.0917 29.1257 31.6379 29.011 31.2325 28.7919C30.2953 28.292 29.3264 27.8536 28.3319 27.4795C27.3632 27.1481 26.3377 27.014 25.3161 27.0849C24.2945 27.1559 23.2976 27.4306 22.3844 27.8927L22.0919 28.0466C21.8979 28.1486 21.6713 28.1697 21.4618 28.1051C21.2523 28.0406 21.0771 27.8956 20.9747 27.7023C20.8723 27.5089 20.8512 27.2829 20.916 27.074C20.9807 26.8651 21.1261 26.6904 21.32 26.5884C22.597 25.891 24.0173 25.4947 25.4719 25.4299C27.2419 25.3803 28.9953 25.7818 30.5663 26.5965C33.0688 27.8035 32.0856 27.8278 34.58 26.5965C36.1259 25.7679 37.8656 25.3655 39.6195 25.4311C41.3735 25.4966 43.0781 26.0275 44.5575 26.9691C48.2842 29.1673 52.0379 31.3276 55.8188 33.4501C56.8344 34.0172 57.9963 34.3251 59.0688 34.8192C59.4242 34.9891 59.7109 35.2749 59.8813 35.6294C59.9496 35.8072 59.9703 35.9997 59.9411 36.1879C59.912 36.3761 59.834 36.5535 59.715 36.7024C59.596 36.8514 59.44 36.9668 59.2626 37.0372C59.0851 37.1076 58.8922 37.1305 58.7031 37.1038C58.206 37.0643 57.7066 37.1445 57.2471 37.3376C56.7875 37.5308 56.3813 37.8312 56.0625 38.2137C53.7713 40.2228 51.4529 42.2022 49.1075 44.1519C48.6016 44.548 48.0572 44.8927 47.4825 45.1808C47.3876 45.236 47.2825 45.2714 47.1735 45.285C47.0645 45.2985 46.9539 45.2899 46.8483 45.2596C46.7427 45.2293 46.6444 45.178 46.5593 45.1087C46.4742 45.0395 46.4041 44.9537 46.3531 44.8567C46.3013 44.7613 46.2692 44.6565 46.2587 44.5485C46.2482 44.4405 46.2596 44.3316 46.2922 44.228C46.3248 44.1245 46.3779 44.0286 46.4484 43.9459C46.5189 43.8633 46.6053 43.7956 46.7025 43.7468C49.2131 42.3129 51.1631 40.1661 53.3813 38.3676C53.8606 37.9787 54.3075 37.5575 54.7788 37.1605V36.9823C53.3894 36.9823 52 36.9823 50.6106 36.9823C47.431 36.9445 44.2515 36.8932 41.0719 36.8284C40.2203 36.8075 39.3786 37.0146 38.6344 37.4278C37.4319 38.0678 36.1969 38.6754 35.0269 39.3316C34.3141 39.7587 33.4982 39.9844 32.6666 39.9844C31.835 39.9844 31.0191 39.7587 30.3063 39.3316C29.0713 38.6511 27.8281 37.9625 26.5444 37.3792C25.8661 37.0555 25.1268 36.8788 24.375 36.8608C19.7925 36.8608 15.2181 36.9985 10.6356 37.0795H10.335C11.0988 37.7519 11.7894 38.3676 12.5044 38.959C14.1294 40.3686 15.7544 41.8835 17.55 43.1311C18.8816 44.0404 20.381 44.6769 21.9613 45.0037C23.5416 45.3305 25.1712 45.3411 26.7556 45.0349C28.4863 44.7595 30.2006 44.3868 31.9313 44.2248C33.1414 44.2164 34.3496 44.3249 35.5388 44.5489C37.5213 44.7919 39.4794 45.3104 41.5025 45.1484C42.0875 45.0997 42.6644 45.0025 43.2494 44.9215C43.8344 44.8405 44.3138 45.0673 44.395 45.5696C44.4763 46.0719 44.1513 46.4284 43.5256 46.5661C41.3083 46.946 39.0385 46.8992 36.8388 46.4284C35.6016 46.1579 34.3475 45.9711 33.085 45.8694C31.9945 45.8866 30.9073 45.995 29.835 46.1934C28.3075 46.3878 26.7881 46.7038 25.2525 46.7929C23.3934 46.9172 21.5281 46.6687 19.767 46.062C18.0058 45.4553 16.3845 44.5028 14.9988 43.2608C12.74 41.3219 10.4921 39.3721 8.25501 37.4116C8.12897 37.2822 7.97472 37.1834 7.80423 37.123C7.63374 37.0626 7.45158 37.0422 7.27188 37.0633C6.94248 37.0997 6.61004 37.0997 6.28063 37.0633C6.01968 37.0485 5.77211 36.9432 5.58073 36.7657C5.38935 36.5882 5.26618 36.3496 5.23251 36.0911C5.1797 35.8278 5.22161 35.5544 5.35088 35.3188C5.48015 35.0833 5.68851 34.9007 5.93938 34.803C6.15607 34.7034 6.37855 34.6168 6.60563 34.5438C9.85563 33.442 12.5938 31.4491 15.5431 29.837C16.3556 29.3995 17.1681 28.9215 17.9319 28.4597C18.4844 28.1438 18.9719 28.2248 19.2319 28.6623C19.4919 29.0997 19.3375 29.5615 18.7769 29.8856C15.8681 31.5706 12.9513 33.2395 10.0425 34.9165C9.79063 35.0542 9.52251 35.1595 9.23001 35.281L9.25438 35.4349Z" fill="#1D2E66"/>
  <path d="M54.2506 15.8461C53.7631 16.6076 53.365 17.3043 52.8856 17.9443C52.7861 18.0653 52.6626 18.1645 52.5227 18.2356C52.3829 18.3067 52.2298 18.3482 52.0731 18.3575C51.9364 18.3422 51.8057 18.2926 51.6934 18.2133C51.5812 18.1339 51.4909 18.0274 51.4312 17.9038C51.3902 17.7551 51.3791 17.5998 51.3986 17.4469C51.4182 17.2939 51.4679 17.1463 51.545 17.0127C51.9187 16.3321 52.3575 15.6759 52.8287 14.9468C52.5931 14.9468 52.4387 15.0116 52.2762 15.0116C52.0873 15.0158 51.9028 14.9542 51.7545 14.8374C51.6062 14.7206 51.5034 14.5559 51.4637 14.3716C51.4344 14.2759 51.4252 14.1751 51.4367 14.0757C51.4481 13.9762 51.48 13.8802 51.5303 13.7935C51.5806 13.7069 51.6483 13.6315 51.7291 13.5721C51.8099 13.5126 51.9021 13.4704 52 13.4481C52.8443 13.2429 53.6985 13.0806 54.5594 12.962C55.0225 12.8972 55.2987 13.2132 55.3719 13.6506C55.5506 14.323 55.7294 14.9954 55.8919 15.6678C56.0544 16.3403 55.8919 16.7372 55.3719 16.8749C54.8519 17.0127 54.4944 16.7696 54.2912 16.1377L54.2506 15.8461Z" fill="#1D2E66"/>
  <path d="M11.0338 15.8866C10.9834 16.0608 10.921 16.2314 10.8469 16.397C10.7698 16.5744 10.6316 16.7185 10.4572 16.8031C10.2829 16.8878 10.0839 16.9075 9.89626 16.8587C9.80299 16.8459 9.71323 16.8146 9.63225 16.7667C9.55127 16.7188 9.48071 16.6553 9.4247 16.5798C9.36869 16.5043 9.32837 16.4185 9.3061 16.3273C9.28383 16.236 9.28006 16.1413 9.29501 16.0486C9.47209 15.1736 9.69447 14.3083 9.96126 13.4562C9.9889 13.3601 10.0359 13.2706 10.0993 13.1931C10.1627 13.1157 10.2413 13.0519 10.3302 13.0057C10.4191 12.9594 10.5165 12.9317 10.6165 12.9242C10.7165 12.9167 10.817 12.9296 10.9119 12.962C11.6513 13.0997 12.3906 13.2294 13.1219 13.3914C13.2368 13.4005 13.3485 13.4339 13.4494 13.4893C13.5504 13.5447 13.6384 13.621 13.7076 13.7129C13.7767 13.8049 13.8255 13.9104 13.8506 14.0226C13.8757 14.1348 13.8766 14.251 13.8531 14.3635C13.7638 14.8415 13.3819 15.0765 12.8131 15.0035L12.4556 14.963C12.9106 15.6922 13.3331 16.3403 13.7231 17.0127C13.8696 17.217 13.9361 17.4677 13.91 17.7175C13.8206 17.9686 13.5606 18.3089 13.3331 18.3413C13.1703 18.352 13.0071 18.3279 12.8543 18.2706C12.7016 18.2133 12.5629 18.1242 12.4475 18.0091C12.0503 17.4945 11.6893 16.9531 11.3669 16.3889C11.2694 16.2025 11.1638 16.0729 11.0338 15.8866Z" fill="#1D2E66"/>
  <path d="M54.2263 52.3342C54.3563 52.0425 54.3888 51.7509 54.5431 51.6618C54.8065 51.4721 55.1294 51.383 55.4531 51.4106C55.5915 51.4773 55.7108 51.5775 55.8002 51.702C55.8897 51.8266 55.9463 51.9715 55.965 52.1235C55.8034 53.0419 55.5808 53.9485 55.2988 54.8375C55.185 55.2263 54.795 55.3316 54.3888 55.2587C53.6494 55.121 52.91 54.9914 52.1706 54.8294C52.0514 54.8213 51.9354 54.7871 51.8309 54.7292C51.7264 54.6713 51.6361 54.5912 51.5662 54.4945C51.4964 54.3977 51.4488 54.2869 51.4269 54.1697C51.405 54.0526 51.4092 53.932 51.4394 53.8167C51.5369 53.3468 51.9106 53.1443 52.5038 53.2172C52.612 53.2232 52.7205 53.2232 52.8288 53.2172L51.5206 51.1514C51.4491 51.0714 51.3941 50.978 51.359 50.8766C51.3239 50.7753 51.3094 50.668 51.3162 50.561C51.323 50.454 51.351 50.3494 51.3987 50.2532C51.4463 50.1571 51.5126 50.0714 51.5938 50.001C51.6864 49.9097 51.7998 49.8419 51.9243 49.8034C52.0488 49.7649 52.1807 49.7568 52.309 49.7799C52.4373 49.8029 52.5581 49.8564 52.6613 49.9357C52.7645 50.0151 52.847 50.1181 52.9019 50.236C53.3488 50.9327 53.7631 51.6132 54.2263 52.3342Z" fill="#1D2E66"/>
  <path d="M11.0338 52.3666C11.5131 51.6213 11.9275 50.9407 12.3744 50.2764C12.4314 50.1489 12.5205 50.0383 12.6331 49.9552C12.7457 49.8722 12.8778 49.8195 13.0168 49.8024C13.1558 49.7853 13.2969 49.8043 13.4263 49.8575C13.5557 49.9108 13.6692 49.9965 13.7556 50.1063C13.8859 50.2542 13.9577 50.4442 13.9577 50.641C13.9577 50.8378 13.8859 51.0278 13.7556 51.1757L12.4475 53.2334H12.9188C13.1202 53.2036 13.3256 53.2504 13.4941 53.3644C13.6626 53.4784 13.7821 53.6514 13.8288 53.8491C13.8619 53.9496 13.8734 54.0559 13.8626 54.1612C13.8518 54.2664 13.8189 54.3682 13.766 54.4599C13.7131 54.5516 13.6414 54.6312 13.5556 54.6934C13.4699 54.7557 13.3719 54.7992 13.2681 54.8213C12.4556 55.0157 11.6431 55.1777 10.7819 55.3073C10.5697 55.34 10.3532 55.2876 10.1797 55.1616C10.0061 55.0356 9.88962 54.8463 9.85564 54.6349C9.67689 53.9463 9.49814 53.2577 9.32751 52.561C9.15689 51.8643 9.37626 51.5483 9.84751 51.4025C10.3188 51.2567 10.725 51.4997 10.9363 52.1235C10.9688 52.1478 10.985 52.2045 11.0338 52.3666Z" fill="#1D2E66"/>
  <path d="M32.5894 20.8851C32.8819 20.6015 33.1256 20.3585 33.4019 20.1317C33.5538 19.9832 33.758 19.9001 33.9706 19.9001C34.1833 19.9001 34.3875 19.9832 34.5394 20.1317C34.6907 20.2834 34.7757 20.4888 34.7757 20.7028C34.7757 20.9168 34.6907 21.1221 34.5394 21.2739C34.4663 21.3549 34.385 21.4279 34.3038 21.5089C32.8656 22.9266 31.8094 22.8456 30.5988 21.2334C30.4682 21.0781 30.4008 20.8796 30.4098 20.6771C30.4189 20.4747 30.5037 20.2829 30.6475 20.1398C30.7123 20.0608 30.7926 19.996 30.8835 19.9492C30.9744 19.9025 31.074 19.8748 31.176 19.868C31.2781 19.8611 31.3805 19.8753 31.4768 19.9095C31.5732 19.9437 31.6615 19.9972 31.7363 20.0668C32.0206 20.3342 32.2725 20.5934 32.5894 20.8851Z" fill="#1D2E66"/>
  <path d="M16.7294 21.8734C16.6264 22.1197 16.4956 22.3535 16.3394 22.5701C15.6 23.3803 14.8444 24.1904 14.0806 24.96C14.0097 25.051 13.9201 25.1258 13.8179 25.1795C13.7157 25.2332 13.6031 25.2646 13.4878 25.2715C13.3725 25.2784 13.257 25.2607 13.149 25.2195C13.0411 25.1784 12.9432 25.1148 12.8619 25.0329C12.7754 24.9569 12.7062 24.8634 12.6587 24.7586C12.6113 24.6539 12.5868 24.5403 12.5868 24.4253C12.5868 24.3104 12.6113 24.1968 12.6587 24.092C12.7062 23.9873 12.7754 23.8938 12.8619 23.8177C13.6094 23.0076 14.3406 22.1975 15.1369 21.436C15.2666 21.3354 15.4162 21.2632 15.5758 21.2242C15.7354 21.1851 15.9014 21.18 16.0631 21.2091C16.3394 21.282 16.51 21.6385 16.7294 21.8734Z" fill="#1D2E66"/>
  <path d="M49.3188 21.0633C49.5502 21.1599 49.7686 21.2851 49.9688 21.436C50.7813 22.2461 51.545 23.0562 52.3087 23.8663C52.3886 23.942 52.4523 24.0331 52.4958 24.1341C52.5392 24.2351 52.5616 24.3438 52.5616 24.4537C52.5616 24.5636 52.5392 24.6723 52.4958 24.7733C52.4523 24.8742 52.3886 24.9653 52.3087 25.041C52.228 25.1233 52.1306 25.1875 52.0229 25.2293C51.9153 25.2712 51.8 25.2896 51.6847 25.2835C51.5693 25.2773 51.4566 25.2468 51.3541 25.1938C51.2516 25.1408 51.1615 25.0666 51.09 24.9762C50.2775 24.1661 49.5219 23.356 48.7988 22.5458C48.7105 22.4078 48.6519 22.253 48.6267 22.0913C48.6016 21.9295 48.6103 21.7643 48.6525 21.6061C48.75 21.363 49.0831 21.2172 49.3188 21.0633Z" fill="#1D2E66"/>
  <path d="M25.2281 17.1423C26.3575 17.4744 27.5031 17.7823 28.6244 18.1549C28.7261 18.1863 28.8201 18.2384 28.9004 18.3081C28.9806 18.3778 29.0454 18.4635 29.0906 18.5596C29.1357 18.6557 29.1602 18.7601 29.1625 18.8662C29.1647 18.9723 29.1447 19.0777 29.1038 19.1757C29.0694 19.281 29.0138 19.3781 28.9403 19.4611C28.8668 19.5441 28.7771 19.6112 28.6766 19.6583C28.576 19.7054 28.4669 19.7314 28.3559 19.7348C28.245 19.7382 28.1345 19.7188 28.0313 19.678L24.9031 18.9083C24.793 18.8966 24.6863 18.8625 24.5899 18.8082C24.4934 18.7539 24.4091 18.6805 24.3421 18.5924C24.2751 18.5044 24.2269 18.4037 24.2004 18.2964C24.174 18.1891 24.1698 18.0776 24.1881 17.9686C24.245 17.4987 24.5944 17.2557 25.1875 17.2719L25.2281 17.1423Z" fill="#1D2E66"/>
  <path d="M18.2325 20.5367C18.0781 20.3909 17.7206 20.2208 17.6637 19.9696C17.6319 19.8111 17.6373 19.6475 17.6796 19.4914C17.7219 19.3354 17.7999 19.1913 17.9075 19.0704C18.968 18.315 20.1789 17.7956 21.4581 17.5473C21.5537 17.5259 21.6525 17.5236 21.7489 17.5406C21.8454 17.5576 21.9374 17.5935 22.0198 17.6463C22.1022 17.699 22.1733 17.7676 22.2289 17.848C22.2845 17.9283 22.3235 18.0189 22.3438 18.1144C22.418 18.2876 22.4213 18.483 22.353 18.6586C22.2847 18.8342 22.1501 18.9762 21.9781 19.0542C20.8812 19.5484 19.7681 20.002 18.6631 20.4638C18.5226 20.5033 18.3782 20.5278 18.2325 20.5367Z" fill="#1D2E66"/>
  <path d="M43.6719 17.5149C44.0667 17.6045 44.4549 17.7209 44.8338 17.8633C45.6463 18.2035 46.3938 18.5681 47.1494 18.9732C47.247 19.0226 47.3336 19.0911 47.4039 19.1747C47.4743 19.2583 47.527 19.3552 47.5589 19.4596C47.5908 19.5641 47.6011 19.6738 47.5894 19.7823C47.5777 19.8908 47.5441 19.9959 47.4906 20.0911C47.4391 20.1897 47.3678 20.2767 47.2811 20.3466C47.1944 20.4165 47.0942 20.4679 46.9867 20.4975C46.8793 20.5271 46.7668 20.5344 46.6564 20.5188C46.546 20.5033 46.44 20.4652 46.345 20.4071C45.3619 19.9777 44.3706 19.5969 43.3794 19.1514C43.1836 19.0945 43.0164 18.9663 42.9111 18.7922C42.8057 18.6181 42.7699 18.4109 42.8106 18.2116C42.8838 17.7661 43.1925 17.5716 43.6719 17.5149Z" fill="#1D2E66"/>
  <path d="M40.0075 17.1423C40.6169 17.2638 40.9662 17.5392 40.9906 18.0334C41.015 18.5276 40.7062 18.8435 40.1781 18.9327C39.2194 19.1352 38.2606 19.362 37.31 19.6213C36.7087 19.7914 36.3106 19.6861 36.1075 19.2162C36.059 19.1065 36.0355 18.9873 36.0388 18.8674C36.042 18.7476 36.0719 18.6299 36.1263 18.5229C36.1808 18.416 36.2583 18.3224 36.3534 18.2489C36.4485 18.1755 36.5588 18.124 36.6762 18.0982C37.7569 17.7418 38.8862 17.4582 40.0075 17.1423Z" fill="#1D2E66"/>
  <path d="M11.1394 26.0699C11.3344 26.2157 11.6594 26.3372 11.7488 26.5641C11.8078 26.6995 11.8348 26.8466 11.8278 26.9941C11.8207 27.1416 11.7798 27.2855 11.7081 27.4147C10.8956 28.3463 10.0831 29.2375 9.18126 30.0962C9.11093 30.1664 9.02667 30.2212 8.93387 30.2571C8.84108 30.293 8.74179 30.3092 8.64236 30.3046C8.54294 30.3 8.44556 30.2748 8.35648 30.2306C8.26739 30.1863 8.18855 30.124 8.12501 30.0476C8.04576 29.9897 7.97934 29.9161 7.92988 29.8315C7.88042 29.7468 7.849 29.6529 7.83756 29.5556C7.82613 29.4583 7.83493 29.3597 7.86341 29.2659C7.8919 29.1722 7.93946 29.0853 8.00313 29.0106C8.81563 28.079 9.70938 27.1879 10.5788 26.2967C10.7518 26.1909 10.9413 26.1142 11.1394 26.0699Z" fill="#1D2E66"/>
  <path d="M54.0394 26.0456C54.2832 26.1408 54.5129 26.2689 54.7219 26.4263C55.5344 27.2364 56.2819 28.0466 57.0375 28.8567C57.1111 28.9344 57.1687 29.0257 57.2069 29.1256C57.2451 29.2254 57.2632 29.3318 57.2602 29.4386C57.2572 29.5454 57.2331 29.6506 57.1893 29.7481C57.1455 29.8457 57.0829 29.9337 57.005 30.0071C56.9271 30.0805 56.8355 30.1379 56.7353 30.176C56.6352 30.2141 56.5285 30.2321 56.4214 30.2291C56.3142 30.2261 56.2087 30.2021 56.1109 30.1584C56.0131 30.1148 55.9249 30.0523 55.8512 29.9747C55.0387 29.1645 54.275 28.3544 53.5519 27.5443C53.4647 27.4043 53.4068 27.2481 53.3817 27.0853C53.3566 26.9224 53.3647 26.7561 53.4056 26.5964C53.4625 26.3777 53.8037 26.2319 54.0394 26.0456Z" fill="#1D2E66"/>
  <path d="M41.4375 50.5681C40.5356 50.5195 40.1375 50.2764 40.1294 49.7013C40.1212 49.1261 40.5275 48.8911 41.4131 48.8425C42.2987 48.7939 42.9731 48.6643 43.7612 48.5752C43.9075 48.5752 44.0456 48.5185 44.1919 48.5104C44.3011 48.4921 44.413 48.4962 44.5206 48.5226C44.6282 48.549 44.7292 48.5971 44.8175 48.6639C44.9058 48.7307 44.9794 48.8147 45.0339 48.9109C45.0884 49.0071 45.1226 49.1134 45.1344 49.2233C45.1503 49.3341 45.143 49.4471 45.1129 49.555C45.0828 49.6629 45.0307 49.7635 44.9596 49.8503C44.8886 49.937 44.8004 50.0082 44.7004 50.0592C44.6004 50.1103 44.4909 50.1401 44.3787 50.1468C43.4037 50.3007 42.4206 50.4304 41.4375 50.5681Z" fill="#1D2E66"/>
  <path d="M34.4256 48.0891C35.49 48.2592 36.6356 48.4294 37.7731 48.6319C37.9809 48.675 38.1636 48.7974 38.282 48.973C38.4005 49.1486 38.4453 49.3635 38.4069 49.5716C38.3901 49.6771 38.3526 49.7782 38.2964 49.8692C38.2403 49.9601 38.1667 50.0391 38.0799 50.1016C37.9931 50.1641 37.8947 50.2088 37.7905 50.2333C37.6862 50.2577 37.5782 50.2614 37.4725 50.2441C36.3512 50.082 35.23 49.9038 34.1087 49.7094C33.8998 49.6717 33.7139 49.554 33.5908 49.3814C33.4678 49.2088 33.4175 48.995 33.4506 48.7858C33.464 48.6741 33.5005 48.5664 33.5579 48.4695C33.6154 48.3726 33.6924 48.2887 33.7841 48.2232C33.8758 48.1577 33.9803 48.1119 34.0907 48.0888C34.2012 48.0657 34.3152 48.0658 34.4256 48.0891Z" fill="#1D2E66"/>
  <path d="M23.6356 50.5519C22.6931 50.4223 21.7425 50.3008 20.8081 50.1468C20.6912 50.142 20.5768 50.112 20.4726 50.059C20.3684 50.006 20.2769 49.9311 20.2044 49.8396C20.1319 49.748 20.08 49.642 20.0524 49.5286C20.0248 49.4153 20.0221 49.2973 20.0444 49.1828C20.0607 49.0678 20.1016 48.9576 20.1644 48.8598C20.2272 48.7619 20.3103 48.6787 20.4082 48.6157C20.506 48.5526 20.6163 48.5114 20.7316 48.4946C20.8469 48.4778 20.9644 48.486 21.0763 48.5185C22.0919 48.6238 23.1075 48.7534 24.1313 48.8587C24.7 48.9154 25.0738 49.2638 25.0413 49.7499C25.0088 50.236 24.6513 50.5033 24.0825 50.5114H23.6438L23.6356 50.5519Z" fill="#1D2E66"/>
  <path d="M9.4575 41.3894C9.69853 41.4925 9.92969 41.6173 10.1481 41.762C10.9606 42.4425 11.7731 43.1392 12.5856 43.8441C12.6826 43.9085 12.7645 43.9929 12.8259 44.0917C12.8873 44.1905 12.9266 44.3012 12.9412 44.4165C12.9559 44.5317 12.9455 44.6488 12.9108 44.7597C12.876 44.8706 12.8178 44.9728 12.74 45.0592C12.6667 45.1494 12.5748 45.2228 12.4706 45.2744C12.3663 45.3261 12.2522 45.3548 12.1358 45.3586C12.0195 45.3625 11.9037 45.3414 11.7963 45.2967C11.6888 45.252 11.5923 45.1849 11.5131 45.0998C10.7006 44.3949 9.82313 43.6901 9.07563 42.9286C8.97648 42.797 8.9064 42.6459 8.86999 42.4853C8.83358 42.3248 8.83167 42.1583 8.86438 41.997C8.86438 41.762 9.21375 41.6 9.4575 41.3894Z" fill="#1D2E66"/>
  <path d="M52.9913 45.4157C52.7881 45.2456 52.4469 45.0997 52.3738 44.8648C52.3263 44.7162 52.3133 44.5587 52.3358 44.4043C52.3583 44.2499 52.4158 44.1027 52.5038 43.9737C53.3163 43.1635 54.2506 42.4101 55.1444 41.6648C55.2207 41.5966 55.3103 41.5447 55.4076 41.5125C55.5049 41.4803 55.6078 41.4684 55.71 41.4775C55.8121 41.4866 55.9112 41.5166 56.0012 41.5655C56.0912 41.6145 56.1702 41.6814 56.2331 41.762C56.382 41.9135 56.4654 42.1171 56.4654 42.3291C56.4654 42.5412 56.382 42.7448 56.2331 42.8962C55.38 43.6658 54.5025 44.4192 53.6169 45.1565C53.4215 45.2715 53.2109 45.3587 52.9913 45.4157Z" fill="#1D2E66"/>
  <path d="M30.875 48.0729C31.3706 48.0729 31.6875 48.3078 31.7525 48.7777C31.7788 48.8769 31.784 48.9804 31.7678 49.0817C31.7517 49.1831 31.7145 49.2799 31.6587 49.366C31.6029 49.4522 31.5296 49.5258 31.4436 49.5821C31.3577 49.6385 31.2608 49.6763 31.1594 49.6932C30.0056 49.9119 28.8437 50.0901 27.6819 50.2359C27.5805 50.2531 27.4767 50.2493 27.3769 50.2246C27.2772 50.2 27.1836 50.1551 27.102 50.0927C27.0204 50.0304 26.9526 49.9519 26.9027 49.8623C26.8529 49.7726 26.8222 49.6737 26.8125 49.5716C26.7835 49.4731 26.7757 49.3695 26.7897 49.2677C26.8037 49.1659 26.839 49.0683 26.8935 48.9811C26.948 48.8939 27.0203 48.8191 27.1057 48.7617C27.1912 48.7044 27.2879 48.6656 27.3894 48.6481C28.5106 48.4213 29.6969 48.2592 30.875 48.0729Z" fill="#1D2E66"/>
  <path d="M17.55 49.1018C17.3995 49.0635 17.2526 49.012 17.1112 48.9478C16.1931 48.4456 15.275 47.9514 14.3812 47.4248C14.2682 47.3802 14.1666 47.3108 14.0841 47.2218C14.0015 47.1328 13.94 47.0264 13.9041 46.9106C13.8683 46.7948 13.8589 46.6724 13.8768 46.5524C13.8947 46.4325 13.9394 46.3181 14.0075 46.2177C14.0745 46.1201 14.1608 46.0372 14.2612 45.9741C14.3615 45.9111 14.4738 45.8691 14.591 45.8509C14.7082 45.8327 14.8279 45.8386 14.9427 45.8682C15.0576 45.8979 15.1651 45.9507 15.2587 46.0233C16.1525 46.5256 17.0462 47.0278 17.9481 47.5139C18.139 47.5855 18.296 47.726 18.3878 47.9076C18.4797 48.0892 18.4996 48.2986 18.4437 48.4942C18.3956 48.6872 18.2778 48.8558 18.113 48.9678C17.9482 49.0799 17.7478 49.1275 17.55 49.1018Z" fill="#1D2E66"/>
  <path d="M51.4231 46.6552C51.2037 46.9387 51.0737 47.2385 50.8544 47.3681C49.8956 47.9406 48.9206 48.4807 47.9294 48.9884C47.8297 49.0472 47.7186 49.0841 47.6034 49.0966C47.4883 49.1091 47.3718 49.0969 47.2618 49.0608C47.1518 49.0248 47.0507 48.9657 46.9655 48.8875C46.8802 48.8094 46.8127 48.7139 46.7675 48.6076C46.7179 48.5038 46.691 48.3906 46.6886 48.2756C46.6863 48.1606 46.7085 48.0464 46.7539 47.9406C46.7992 47.8349 46.8667 47.74 46.9517 47.6622C47.0367 47.5844 47.1373 47.5256 47.2469 47.4896C48.1487 46.9954 49.0262 46.4689 49.9444 46.0071C50.2329 45.8758 50.5599 45.8556 50.8625 45.9504C51.0819 46.0395 51.1875 46.3798 51.4231 46.6552Z" fill="#1D2E66"/>
  <path d="M7.79187 40.0283C7.81102 40.1772 7.78834 40.3284 7.72636 40.4651C7.66438 40.6018 7.56554 40.7187 7.44086 40.8027C7.31617 40.8867 7.17054 40.9345 7.0202 40.9408C6.86985 40.9471 6.7207 40.9117 6.58937 40.8385C6.03976 40.4471 5.52833 40.005 5.06187 39.518C4.9294 39.3858 4.85498 39.2066 4.85498 39.0197C4.85498 38.8329 4.9294 38.6537 5.06187 38.5215C5.11346 38.4442 5.17986 38.3778 5.25726 38.3261C5.33466 38.2745 5.42154 38.2386 5.5129 38.2205C5.60426 38.2025 5.6983 38.2026 5.78961 38.2209C5.88093 38.2391 5.96772 38.2752 6.045 38.3271C6.60601 38.7537 7.14307 39.2108 7.65375 39.6962C7.75937 39.7529 7.7675 39.9554 7.79187 40.0283Z" fill="#1D2E66"/>
  <path d="M58.045 40.9681C57.8825 40.8304 57.5575 40.6764 57.4681 40.4415C57.4217 40.3007 57.4071 40.1515 57.4254 40.0044C57.4437 39.8573 57.4943 39.7161 57.5738 39.5909C58.0142 39.1276 58.4956 38.7046 59.0119 38.3271C59.0819 38.2656 59.1641 38.2195 59.2531 38.1917C59.3422 38.1639 59.4361 38.1551 59.5287 38.1657C59.6214 38.1764 59.7108 38.2064 59.7911 38.2538C59.8715 38.3011 59.9409 38.3647 59.995 38.4405C60.1575 38.6835 60.2794 39.2101 60.1494 39.3559C59.6185 39.9013 59.0512 40.4102 58.4513 40.879C58.3863 40.9276 58.2725 40.9195 58.045 40.9681Z" fill="#1D2E66"/>
  <path d="M58.8575 31.1413C59.4019 31.1413 60.8644 32.7048 60.8238 33.2314C60.8128 33.3671 60.7678 33.4979 60.6928 33.6117C60.6177 33.7255 60.5151 33.8186 60.3945 33.8824C60.2738 33.9462 60.1389 33.9786 60.0024 33.9767C59.8658 33.9748 59.7319 33.9386 59.6131 33.8714C59.0611 33.4264 58.5695 32.9117 58.1506 32.3403C58.0832 32.2173 58.0488 32.079 58.051 31.9389C58.0532 31.7988 58.0917 31.6616 58.163 31.5408C58.2342 31.42 58.3356 31.3197 58.4574 31.2497C58.5791 31.1796 58.717 31.1423 58.8575 31.1413Z" fill="#1D2E66"/>
</svg>