<svg xmlns="http://www.w3.org/2000/svg" width="58" height="57" viewBox="0 0 58 57" fill="none">
  <path d="M15.283 5.64951C15.4404 5.76576 15.5629 5.92271 15.637 6.10334C15.7111 6.28396 15.7341 6.48135 15.7035 6.67406C15.6307 8.28236 15.2208 9.85773 14.5 11.299C13.9127 12.4679 13.3327 13.6295 12.7745 14.8056C12.5062 15.3828 12.2887 15.9744 12.0132 16.6382L13.804 16.8547C13.717 16.6887 13.6445 16.5877 13.5937 16.4723C13.5143 16.3328 13.4889 16.1693 13.5223 16.0124C13.5556 15.8556 13.6455 15.7163 13.775 15.6209C13.8364 15.5672 13.9082 15.5265 13.9859 15.5013C14.0636 15.4761 14.1457 15.467 14.2271 15.4744C14.3085 15.4818 14.3876 15.5057 14.4594 15.5445C14.5313 15.5833 14.5944 15.6363 14.645 15.7003C15.0872 16.2342 15.5077 16.797 15.9065 17.3742C15.9545 17.4432 15.9884 17.521 16.006 17.6031C16.0236 17.6852 16.0247 17.77 16.0092 17.8526C15.9937 17.9351 15.9619 18.0138 15.9157 18.084C15.8694 18.1542 15.8096 18.2146 15.7397 18.2617C15.2757 18.6585 14.8117 19.0553 14.3405 19.4377C14.2774 19.505 14.2011 19.5587 14.1163 19.5954C14.0314 19.6321 13.94 19.651 13.8475 19.651C13.755 19.651 13.6635 19.6321 13.5787 19.5954C13.4939 19.5587 13.4176 19.505 13.3545 19.4377C13.2902 19.3722 13.2402 19.2941 13.2077 19.2084C13.1752 19.1226 13.1609 19.0312 13.1656 18.9397C13.1704 18.8482 13.1942 18.7586 13.2354 18.6767C13.2766 18.5948 13.3345 18.5223 13.4052 18.4637L13.5647 18.2977C13.5647 18.2977 13.5647 18.2977 13.5647 18.2256C13.3617 18.2256 13.1587 18.1606 12.9557 18.139L11.832 18.038C11.7145 19.2689 11.8513 20.5107 12.2341 21.6871C12.6169 22.8634 13.2375 23.9493 14.0577 24.878C14.1447 24.7048 14.2027 24.5677 14.2825 24.4379C14.3522 24.2833 14.4805 24.1625 14.6394 24.1017C14.7983 24.0409 14.9749 24.045 15.1307 24.1132C15.2133 24.1436 15.289 24.1901 15.3535 24.2498C15.4179 24.3096 15.4699 24.3815 15.5063 24.4613C15.5427 24.5411 15.5628 24.6273 15.5656 24.7149C15.5683 24.8026 15.5536 24.8899 15.5222 24.9718C15.4659 25.1764 15.383 25.3729 15.2757 25.5562C15.1162 25.8304 15.2105 25.9819 15.4425 26.1551C16.8704 27.1485 18.5253 27.7711 20.2565 27.9661C21.0975 28.0887 21.9457 28.2114 22.7867 28.3485C22.8766 28.353 22.9647 28.3755 23.0457 28.4144C23.1268 28.4534 23.1992 28.5081 23.2586 28.5753C23.3181 28.6426 23.3634 28.721 23.3919 28.806C23.4205 28.8909 23.4316 28.9807 23.4247 29.07C23.4264 29.1603 23.4078 29.2499 23.3702 29.3321C23.3326 29.4143 23.277 29.4871 23.2075 29.5452C23.138 29.6033 23.0564 29.6452 22.9685 29.6678C22.8807 29.6905 22.7888 29.6933 22.6997 29.6761C20.2927 29.3514 17.8495 29.1422 15.6745 27.9011C15.3047 27.6919 14.9495 27.4538 14.558 27.1796C13.6137 29.4348 12.9537 31.7978 12.5932 34.2144C13.543 34.3587 14.4637 34.467 15.37 34.6329C17.7586 35.0615 20.0321 35.9778 22.0472 37.3242C24.0627 38.659 26.0565 40.0227 28.0647 41.3719C28.353 41.628 28.7259 41.7695 29.1124 41.7695C29.4988 41.7695 29.8717 41.628 30.16 41.3719L35.4162 37.822C35.525 37.7499 35.641 37.6633 35.757 37.5984C35.829 37.5481 35.9104 37.5126 35.9963 37.4941C36.0823 37.4755 36.1712 37.4743 36.2576 37.4904C36.3441 37.5066 36.4265 37.5397 36.4998 37.588C36.5732 37.6363 36.6362 37.6987 36.685 37.7715C36.7422 37.8437 36.7832 37.9272 36.8051 38.0164C36.8271 38.1057 36.8296 38.1986 36.8124 38.2888C36.7953 38.3791 36.7588 38.4647 36.7056 38.5397C36.6523 38.6148 36.5835 38.6776 36.5037 38.7239C36.1412 38.9981 35.7787 39.2434 35.3727 39.496L30.9357 42.5696C30.7727 42.7075 30.586 42.815 30.3847 42.8871C29.87 42.9953 29.8555 43.3344 29.8482 43.7601C29.7571 46.2654 30.1917 48.762 31.1242 51.0908C31.3272 51.5886 31.1895 51.9566 30.7835 52.1153C30.3775 52.2741 30.0585 52.072 29.8482 51.567C29.638 51.0619 29.4132 50.4125 29.1667 49.7415C28.9855 50.261 28.826 50.7011 28.6665 51.1413C28.6076 51.313 28.5399 51.4816 28.4635 51.6463C28.2677 52.0793 27.927 52.2596 27.5645 52.1153C27.4737 52.0772 27.3916 52.0211 27.3234 51.9503C27.2551 51.8796 27.202 51.7957 27.1674 51.7039C27.1328 51.612 27.1174 51.5141 27.1221 51.4162C27.1268 51.3182 27.1515 51.2222 27.1947 51.1341C27.4195 50.5063 27.6587 49.8858 27.8472 49.2437C28.3717 47.342 28.5847 45.3686 28.478 43.3994C28.46 43.3272 28.4276 43.2594 28.3828 43.1999C28.3379 43.1404 28.2816 43.0905 28.217 43.053C27.8762 42.8366 27.492 42.6779 27.1512 42.447C25.23 41.1266 23.3232 39.8279 21.402 38.5436C19.0547 36.975 16.3507 36.0152 13.5357 35.7513C13.3545 35.7513 13.1732 35.7008 12.992 35.6791C12.8107 35.6575 12.6585 35.6791 12.4265 35.6358L12.325 36.5955C13.1297 36.5017 13.2457 37.05 13.3545 37.6344C13.4632 38.2189 13.572 38.6734 13.688 39.1857C13.804 39.698 13.688 40.1165 13.253 40.2247C12.818 40.3329 12.528 40.1309 12.3612 39.5609C12.3612 39.5609 12.325 39.4887 12.209 39.4671C12.3032 40.5638 12.3757 41.6317 12.4917 42.75C12.5715 43.4715 12.7237 44.1931 12.847 44.9146C12.9267 45.3908 12.7237 45.7443 12.3177 45.8093C12.2236 45.8268 12.1268 45.8243 12.0337 45.8017C11.9407 45.7791 11.8535 45.7371 11.7781 45.6784C11.7026 45.6197 11.6406 45.5456 11.5961 45.4612C11.5517 45.3768 11.5258 45.2839 11.5202 45.1887C10.9412 42.3801 10.7509 39.5059 10.9547 36.646C11.1947 33.15 12.0052 29.7163 13.3545 26.4798C13.3823 26.4021 13.3909 26.319 13.3796 26.2373C13.3682 26.1557 13.3372 26.078 13.2892 26.0108C12.2873 24.9568 11.5165 23.7069 11.026 22.3406C10.5355 20.9742 10.3359 19.5213 10.44 18.0741C10.4436 18.014 10.4436 17.9538 10.44 17.8937C10.4217 17.8706 10.4047 17.8465 10.3892 17.8215C10.15 17.8215 9.88173 17.7638 9.61348 17.7133C9.52913 17.7026 9.44773 17.6755 9.37395 17.6334C9.30018 17.5913 9.2355 17.5351 9.18362 17.4681C9.13174 17.401 9.09369 17.3244 9.07166 17.2427C9.04963 17.1609 9.04404 17.0757 9.05523 16.9918C9.05974 16.9073 9.08136 16.8247 9.11877 16.7487C9.15618 16.6728 9.20863 16.6052 9.27295 16.5499C9.33728 16.4947 9.41216 16.4529 9.4931 16.4272C9.57404 16.4014 9.65938 16.3922 9.74398 16.4001C10.0548 16.415 10.3645 16.4463 10.672 16.4939C11.3535 14.1634 12.673 12.1648 13.572 9.94254C14.0361 8.8683 14.2825 7.71342 14.297 6.54419C14.2804 6.36231 14.3193 6.17968 14.4085 6.0201C14.4977 5.86052 14.6332 5.73138 14.7972 5.64951H15.283Z" fill="#1D2E66"/>
  <path d="M43.4275 5.64951C43.5916 5.73138 43.727 5.86052 43.8162 6.0201C43.9055 6.17968 43.9443 6.36231 43.9278 6.54419C43.975 8.01578 44.3462 9.45913 45.0153 10.7723C45.8055 12.3957 46.5523 14.0336 47.3135 15.6642C47.4223 15.9095 47.473 16.1837 47.5745 16.4939L48.4155 16.4074C48.9085 16.3568 49.2493 16.5805 49.2928 16.9846C49.3363 17.3886 49.0898 17.7061 48.5678 17.7566L47.85 17.8648C47.85 18.0236 47.85 18.1823 47.85 18.341C47.9256 19.7221 47.7206 21.1042 47.2472 22.4047C46.7738 23.7051 46.0419 24.8972 45.095 25.9098C45.0125 25.9851 44.9582 26.0862 44.941 26.1963C44.9239 26.3065 44.945 26.4192 45.0008 26.5158C46.8074 30.8045 47.6535 35.4333 47.4803 40.0804C47.3316 43.3895 46.6965 46.659 45.5953 49.7848C45.4358 50.2394 45.3053 50.7084 45.153 51.1701C45.0008 51.6319 44.6455 51.8917 44.2395 51.7618C43.8335 51.6319 43.703 51.2639 43.848 50.7444C44.3918 48.8252 44.9935 46.9204 45.472 44.9723C45.8906 43.1656 46.0782 41.3134 46.0303 39.4599C45.992 39.5899 45.946 39.7176 45.8925 39.8423C45.8366 39.9941 45.724 40.1186 45.5781 40.1899C45.4323 40.2611 45.2644 40.2736 45.1095 40.2247C45.0327 40.2159 44.9584 40.1917 44.8911 40.1536C44.8239 40.1155 44.7652 40.0642 44.7184 40.0028C44.6717 39.9414 44.6379 39.8713 44.6191 39.7966C44.6004 39.7219 44.597 39.6441 44.6093 39.5681C44.7472 38.7165 44.9336 37.8734 45.1675 37.0428C45.24 36.8047 45.6315 36.6676 45.8925 36.48L46.0303 36.581L45.936 35.6286C43.7498 35.7482 41.5999 36.2361 39.5778 37.0717L39.2008 37.2376C39.0343 37.3128 38.8454 37.3226 38.672 37.265C38.4986 37.2075 38.3534 37.0869 38.2655 36.9274C38.2236 36.8416 38.2007 36.7478 38.1984 36.6525C38.1961 36.5571 38.2146 36.4624 38.2524 36.3747C38.2902 36.2871 38.3466 36.2086 38.4177 36.1446C38.4888 36.0806 38.5729 36.0325 38.6643 36.0038C39.7458 35.5629 40.8521 35.1847 41.9775 34.871C43.065 34.5896 44.196 34.4886 45.3053 34.3082L45.7548 34.2433C45.3917 31.8069 44.7269 29.4246 43.7755 27.1508L42.7098 27.829C41.1367 28.6736 39.4125 29.2031 37.6348 29.3875C33.8911 30.0003 30.092 30.2108 26.303 30.0152C26.0601 30.0055 25.818 29.9814 25.578 29.943C25.4156 29.9266 25.2664 29.8468 25.1631 29.721C25.0598 29.5952 25.0108 29.4337 25.027 29.272C25.0211 29.1098 25.0792 28.9518 25.189 28.8317C25.2988 28.7117 25.4515 28.6392 25.6143 28.6299C25.7492 28.6154 25.8853 28.6154 26.0203 28.6299C30.5096 28.9085 35.0163 28.5833 39.4183 27.663C40.6709 27.3873 41.8499 26.8486 42.8765 26.0829C43.1303 25.9025 43.2318 25.7366 43.0578 25.4552C42.9827 25.3224 42.922 25.1822 42.8765 25.0367C42.8264 24.9547 42.7944 24.8631 42.7825 24.7678C42.7707 24.6726 42.7792 24.5759 42.8077 24.4842C42.8362 24.3925 42.8839 24.3078 42.9476 24.2358C43.0114 24.1639 43.0898 24.1061 43.1777 24.0665C43.2655 24.027 43.3608 24.0064 43.4572 24.0061C43.5537 24.0059 43.6491 24.0261 43.7371 24.0652C43.8251 24.1044 43.9038 24.1618 43.9679 24.2335C44.032 24.3052 44.0801 24.3896 44.109 24.4812L44.2758 24.777C45.063 23.8511 45.6564 22.778 46.0212 21.6208C46.386 20.4636 46.5148 19.2454 46.4 18.038L44.6673 18.2328C44.7905 18.3699 44.8775 18.4493 44.95 18.5358C45.0108 18.5944 45.0591 18.6644 45.092 18.7419C45.125 18.8194 45.142 18.9027 45.142 18.9868C45.142 19.0709 45.125 19.1542 45.092 19.2317C45.0591 19.3091 45.0108 19.3792 44.95 19.4377C44.8982 19.5047 44.8328 19.5601 44.7582 19.6004C44.6835 19.6408 44.6012 19.6651 44.5166 19.6719C44.4319 19.6787 44.3468 19.6678 44.2666 19.6399C44.1864 19.612 44.113 19.5677 44.051 19.5099C43.5339 19.1058 43.0336 18.6874 42.5503 18.2544C42.4769 18.1974 42.4162 18.1257 42.3724 18.044C42.3285 17.9622 42.3023 17.8722 42.2954 17.7798C42.2886 17.6874 42.3013 17.5945 42.3327 17.5073C42.3641 17.42 42.4135 17.3403 42.4778 17.2732C42.8258 16.8114 43.1665 16.3496 43.5218 15.8951C43.877 15.4405 44.2033 15.3972 44.544 15.6425C44.8848 15.8879 44.8993 16.227 44.66 16.6527L44.5368 16.8691L45.3778 16.7753L46.2333 16.6743C45.9723 16.0177 45.7548 15.4117 45.5083 14.8272C44.7833 13.3048 44.0583 11.8113 43.3333 10.2817C42.8608 9.0964 42.6149 7.83373 42.6083 6.55862C42.599 6.38685 42.6333 6.21552 42.7081 6.06042C42.7828 5.90532 42.8956 5.77145 43.036 5.67115L43.4275 5.64951Z" fill="#1D2E66"/>
  <path d="M18.2047 5.64949C18.6895 6.22447 18.9472 6.95547 18.9297 7.70582C18.9367 7.77864 18.9287 7.85211 18.9063 7.92178C18.884 7.99145 18.8476 8.05589 18.7995 8.11119C18.7514 8.16649 18.6925 8.21151 18.6264 8.24352C18.5603 8.27554 18.4884 8.29389 18.415 8.29746C18.3384 8.32082 18.2578 8.32889 18.1781 8.32122C18.0983 8.31354 18.0208 8.29026 17.9501 8.25273C17.8794 8.21519 17.8168 8.16413 17.7659 8.10247C17.7151 8.04081 17.677 7.96976 17.6537 7.89341C17.4708 7.42954 17.3466 6.9448 17.284 6.45037C17.284 6.19063 17.5087 5.90923 17.632 5.64227L18.2047 5.64949Z" fill="#1D2E66"/>
  <path d="M40.6 5.64951C41.1002 5.99583 41.1582 6.15457 40.9915 6.75343C40.8972 7.09976 40.8102 7.47495 40.7015 7.79963C40.6844 7.88923 40.6483 7.97416 40.5956 8.04879C40.5429 8.12342 40.4749 8.18602 40.396 8.23244C40.3171 8.27886 40.2292 8.30802 40.1381 8.31799C40.0471 8.32796 39.9549 8.31851 39.8677 8.29027C39.7841 8.2765 39.7043 8.24507 39.6339 8.19811C39.5634 8.15114 39.5039 8.08972 39.4593 8.01796C39.4146 7.94621 39.3859 7.86578 39.3751 7.78208C39.3643 7.69837 39.3716 7.61334 39.3965 7.53267C39.556 6.87609 39.556 6.14014 40.1215 5.64951H40.6Z" fill="#1D2E66"/>
  <path d="M13.05 47.3316C13.1588 47.4399 13.4415 47.5914 13.5213 47.8151C13.8838 48.8252 14.1955 49.8497 14.5073 50.8743C14.5408 50.9619 14.5557 51.0555 14.551 51.1492C14.5464 51.2429 14.5222 51.3346 14.4801 51.4185C14.4381 51.5024 14.379 51.5767 14.3066 51.6367C14.2342 51.6967 14.15 51.7411 14.0595 51.7672C13.969 51.7932 13.874 51.8003 13.7806 51.7879C13.6872 51.7756 13.5974 51.7441 13.5168 51.6954C13.4363 51.6468 13.3667 51.582 13.3126 51.5053C13.2584 51.4285 13.2209 51.3414 13.2023 51.2495C12.876 50.2754 12.5643 49.3014 12.267 48.3201C12.2178 48.2017 12.2012 48.0723 12.2188 47.9453C12.2365 47.8183 12.2879 47.6983 12.3676 47.5977C12.4474 47.497 12.5526 47.4193 12.6726 47.3725C12.7925 47.3258 12.9228 47.3117 13.05 47.3316Z" fill="#1D2E66"/>
  <path d="M17.5813 20.1015C17.5548 20.2142 17.5209 20.3251 17.4798 20.4334C17.1825 21.1549 16.8853 21.8187 16.5808 22.5114C16.3633 22.9948 16.0008 23.168 15.6093 22.9876C15.5224 22.9424 15.4457 22.8801 15.3837 22.8045C15.3218 22.7289 15.2758 22.6416 15.2487 22.5479C15.2216 22.4541 15.2139 22.3559 15.226 22.2591C15.2382 22.1623 15.2699 22.0689 15.3193 21.9847C15.631 21.2632 15.9573 20.5417 16.2763 19.8201C16.3323 19.6678 16.4442 19.5422 16.5894 19.4686C16.7347 19.395 16.9025 19.3788 17.0593 19.4233C17.2126 19.4571 17.349 19.5437 17.4445 19.6677C17.54 19.7918 17.5884 19.9454 17.5813 20.1015Z" fill="#1D2E66"/>
  <path d="M41.6223 19.3728C41.7165 19.4666 41.9703 19.6109 42.0718 19.8201C42.427 20.5416 42.7388 21.3065 43.0505 22.0641C43.0956 22.1469 43.1228 22.2382 43.1304 22.332C43.1381 22.4259 43.126 22.5204 43.0949 22.6093C43.0639 22.6983 43.0146 22.7799 42.9501 22.8489C42.8856 22.9178 42.8074 22.9727 42.7205 23.0099C42.6335 23.0471 42.5398 23.0659 42.4451 23.0651C42.3505 23.0642 42.2571 23.0438 42.1708 23.005C42.0845 22.9663 42.0073 22.9101 41.9441 22.84C41.8808 22.7699 41.833 22.6875 41.8035 22.598C41.47 21.8765 41.1438 21.1116 40.8393 20.3541C40.6 19.8346 40.9408 19.3584 41.6223 19.3728Z" fill="#1D2E66"/>
  <path d="M18.125 11.8401C18.125 11.3278 18.0525 10.8156 18.038 10.3033C18.0235 9.79101 18.27 9.49519 18.676 9.47354C18.775 9.47336 18.873 9.49336 18.9639 9.5323C19.0548 9.57123 19.1368 9.62829 19.2047 9.69994C19.2726 9.77159 19.3251 9.85633 19.3588 9.94893C19.3926 10.0415 19.407 10.14 19.401 10.2384C19.401 11.0032 19.459 11.7752 19.459 12.5472C19.459 13.0739 19.169 13.3842 18.734 13.377C18.299 13.3697 18.125 13.0523 18.125 12.5184V11.8401Z" fill="#1D2E66"/>
  <path d="M38.86 11.7319C38.86 11.198 38.918 10.6857 38.9542 10.1734C38.9542 9.98206 39.0306 9.79854 39.1666 9.66323C39.3025 9.52792 39.487 9.4519 39.6792 9.4519C39.8548 9.4748 40.0158 9.56081 40.132 9.69372C40.2482 9.82663 40.3115 9.99726 40.31 10.1734C40.31 11.0008 40.2882 11.8305 40.2447 12.6627C40.2339 12.825 40.1641 12.9779 40.0484 13.0929C39.9327 13.2078 39.779 13.2771 39.6159 13.2877C39.4527 13.2982 39.2913 13.2495 39.1615 13.1504C39.0318 13.0514 38.9427 12.9088 38.9107 12.7492C38.8672 12.439 38.8745 12.0782 38.86 11.7319Z" fill="#1D2E66"/>
  <path d="M19.198 15.3179C18.9588 16.1837 18.734 17.0639 18.473 17.9225C18.4306 18.0721 18.3309 18.1991 18.1952 18.276C18.0595 18.353 17.8989 18.3737 17.748 18.3338C17.665 18.3237 17.5849 18.2964 17.5131 18.2537C17.4412 18.2111 17.3791 18.154 17.3306 18.0861C17.2822 18.0182 17.2485 17.941 17.2317 17.8594C17.215 17.7778 17.2155 17.6937 17.2333 17.6123C17.4218 16.732 17.6465 15.859 17.9003 14.986C17.9208 14.9079 17.9573 14.835 18.0075 14.7717C18.0577 14.7084 18.1205 14.6561 18.192 14.6182C18.2635 14.5802 18.3422 14.5574 18.423 14.5512C18.5038 14.5449 18.585 14.5554 18.6615 14.5819C19.0095 14.6468 19.1618 14.921 19.198 15.3179Z" fill="#1D2E66"/>
  <path d="M39.15 15.2673C39.2225 14.8849 39.382 14.6324 39.7445 14.5458C39.8259 14.522 39.9114 14.515 39.9956 14.5252C40.0799 14.5354 40.1611 14.5626 40.2344 14.6052C40.3078 14.6477 40.3716 14.7047 40.4219 14.7727C40.4723 14.8406 40.5083 14.9181 40.5275 15.0004C40.7523 15.8301 40.9698 16.6599 41.1655 17.4968C41.1916 17.5812 41.1997 17.67 41.1894 17.7577C41.179 17.8454 41.1504 17.9299 41.1054 18.0059C41.0604 18.082 40.9999 18.1478 40.9279 18.1993C40.8558 18.2508 40.7738 18.2868 40.687 18.3049C40.6116 18.3409 40.5293 18.3604 40.4457 18.3621C40.362 18.3638 40.279 18.3478 40.2021 18.315C40.1253 18.2822 40.0563 18.2334 39.9999 18.172C39.9435 18.1105 39.9009 18.0378 39.875 17.9586C39.6068 17.0711 39.382 16.162 39.15 15.2673Z" fill="#1D2E66"/>
  <path d="M15.225 44.157C15.0604 44.3702 14.862 44.5554 14.6377 44.7053C14.5696 44.7353 14.4959 44.7508 14.4214 44.7508C14.3468 44.7509 14.2731 44.7355 14.2049 44.7056C14.1367 44.6757 14.0755 44.6321 14.0252 44.5773C13.9749 44.5226 13.9366 44.4581 13.9127 44.3878C13.601 43.587 13.311 42.7789 13.0572 41.9563C13.0165 41.8081 13.0354 41.6499 13.1098 41.5152C13.1842 41.3805 13.3084 41.28 13.456 41.2348C13.5231 41.1958 13.5975 41.1709 13.6746 41.1614C13.7517 41.152 13.8299 41.1583 13.9045 41.1799C13.9791 41.2015 14.0485 41.2379 14.1085 41.2871C14.1685 41.3362 14.2178 41.397 14.2535 41.4657C14.6015 42.3026 14.8915 43.1757 15.225 44.157Z" fill="#1D2E66"/>
  <path d="M45.3778 41.7543C45.2255 42.2089 45.124 42.5408 45.008 42.8654C44.8413 43.3561 44.6818 43.8395 44.486 44.3085C44.4579 44.3916 44.4129 44.4682 44.3539 44.5334C44.2949 44.5986 44.2231 44.651 44.143 44.6875C44.0628 44.724 43.976 44.7438 43.8878 44.7456C43.7997 44.7475 43.7121 44.7313 43.6305 44.6981C43.5473 44.6712 43.4703 44.6281 43.4039 44.5713C43.3376 44.5145 43.2833 44.4451 43.2442 44.3672C43.205 44.2894 43.1818 44.2045 43.176 44.1176C43.1701 44.0307 43.1817 43.9435 43.21 43.8611C43.4637 43.1396 43.7247 42.346 44.0002 41.5956C44.0223 41.5142 44.0618 41.4385 44.116 41.3737C44.1702 41.3089 44.2378 41.2565 44.3143 41.2202C44.3907 41.1839 44.4741 41.1644 44.5589 41.1632C44.6436 41.162 44.7275 41.179 44.805 41.2132C45.0443 41.3214 45.211 41.5884 45.3778 41.7543Z" fill="#1D2E66"/>
  <path d="M17.2115 48.4139C17.0302 48.6087 16.878 48.8973 16.6532 48.9623C16.525 48.99 16.3919 48.9861 16.2655 48.9508C16.1392 48.9156 16.0234 48.8502 15.9282 48.7603C15.4872 47.9846 15.0902 47.1848 14.7392 46.3648C14.7087 46.2933 14.6943 46.2159 14.6974 46.1382C14.7004 46.0605 14.7206 45.9845 14.7567 45.9155C14.7927 45.8465 14.8436 45.7864 14.9058 45.7393C14.968 45.6922 15.0398 45.6594 15.1162 45.6433C15.3555 45.5928 15.7832 45.6433 15.8775 45.8092C16.327 46.5813 16.6967 47.3966 17.0955 48.1975C17.0994 48.2407 17.0994 48.2841 17.0955 48.3273L17.2115 48.4139Z" fill="#1D2E66"/>
  <path d="M42.05 49.0633C41.4337 49.0633 41.0785 48.5799 41.325 48.1037C41.6512 47.3821 42.05 46.6606 42.3907 45.9391C42.4293 45.8595 42.4832 45.7883 42.5495 45.7294C42.6157 45.6706 42.6929 45.6253 42.7767 45.5961C42.8605 45.567 42.9493 45.5546 43.038 45.5595C43.1266 45.5645 43.2134 45.5869 43.2934 45.6252C43.3733 45.6636 43.4449 45.7173 43.5041 45.7832C43.5632 45.8491 43.6087 45.926 43.638 46.0094C43.6673 46.0928 43.6798 46.1811 43.6747 46.2693C43.6697 46.3576 43.6473 46.4439 43.6087 46.5235C43.2607 47.2451 42.8837 47.9666 42.5067 48.6881C42.369 48.8613 42.1225 48.955 42.05 49.0633Z" fill="#1D2E66"/>
  <path d="M18.2483 52.2163C18.0827 52.1381 17.9328 52.0305 17.806 51.8989C17.5413 51.5364 17.2991 51.1581 17.081 50.7661C17.0308 50.6898 16.9965 50.6043 16.9802 50.5146C16.964 50.4248 16.9661 50.3328 16.9864 50.2439C17.0067 50.155 17.0448 50.071 17.0984 49.9971C17.152 49.9232 17.2201 49.8608 17.2985 49.8137C17.4489 49.7216 17.6297 49.6919 17.8018 49.731C17.974 49.7702 18.1239 49.875 18.2193 50.0229C18.4826 50.4038 18.7246 50.7988 18.9443 51.2062C18.9936 51.3185 19.0135 51.4414 19.0019 51.5634C18.9903 51.6854 18.9477 51.8025 18.878 51.9035C18.8084 52.0046 18.714 52.0864 18.6038 52.1411C18.4937 52.1958 18.3713 52.2217 18.2483 52.2163Z" fill="#1D2E66"/>
  <path d="M40.6363 49.7054C41.209 49.7054 41.5498 50.2249 41.3613 50.6434C41.1032 51.1023 40.8074 51.5391 40.4768 51.9494C40.3874 52.0765 40.2515 52.1635 40.0983 52.1919C39.945 52.2202 39.7868 52.1875 39.6575 52.1009C39.5825 52.0696 39.5147 52.0236 39.4581 51.9656C39.4015 51.9075 39.3573 51.8387 39.3281 51.7631C39.299 51.6876 39.2855 51.607 39.2886 51.5262C39.2916 51.4453 39.3111 51.3659 39.3458 51.2928C39.6075 50.7992 39.9107 50.3286 40.252 49.8858C40.339 49.7848 40.5565 49.7848 40.6363 49.7054Z" fill="#1D2E66"/>
  <path d="M29.87 22.8649C29.87 23.0164 29.87 23.2257 29.8047 23.3339C29.7395 23.4421 29.3915 23.7957 29.174 23.7957C29.0418 23.7757 28.9165 23.7239 28.8091 23.6446C28.7017 23.5654 28.6154 23.4612 28.5577 23.3411C28.4525 22.9929 28.4525 22.6215 28.5577 22.2733C28.6211 22.1539 28.7096 22.0496 28.8172 21.9674C28.9248 21.8852 29.049 21.8271 29.1812 21.7971C29.2572 21.786 29.3347 21.7904 29.4089 21.8101C29.4832 21.8298 29.5526 21.8643 29.613 21.9115C29.6734 21.9588 29.7234 22.0178 29.7601 22.085C29.7968 22.1521 29.8194 22.226 29.8265 22.3021C29.8563 22.4882 29.8709 22.6765 29.87 22.8649Z" fill="#1D2E66"/>
</svg>