<svg xmlns="http://www.w3.org/2000/svg" width="59" height="59" viewBox="0 0 59 59" fill="none">
  <path d="M22.3831 25.2444C22.2799 25.3694 22.1693 25.4871 22.0734 25.6194C20.2837 28.3549 18.4891 31.0904 16.6896 33.8259C16.6001 33.9854 16.4884 34.1315 16.3578 34.2597C16.2499 34.3724 16.1034 34.4403 15.9475 34.4499C15.7916 34.4594 15.6379 34.4099 15.517 34.3112C15.3842 34.2313 15.2857 34.1051 15.2408 33.9571C15.1958 33.809 15.2075 33.6496 15.2736 33.5097C15.3456 33.3587 15.4294 33.2136 15.5244 33.0758C17.3091 30.3477 19.0865 27.6196 20.886 24.9061C21.9198 23.3913 22.4487 21.5903 22.3979 19.7587C22.2725 15.4422 22.1988 11.1331 22.125 6.8387C22.0948 6.65353 22.1208 6.4636 22.1997 6.29327C22.2785 6.12294 22.4066 5.97998 22.5675 5.88275H23.0248C23.1667 5.97037 23.2839 6.09268 23.3652 6.2381C23.4465 6.38351 23.4893 6.54721 23.4894 6.71369C23.5877 11.8758 23.6885 17.0404 23.7918 22.2074C23.8414 22.4445 23.8187 22.6909 23.7267 22.9149C23.6347 23.139 23.4776 23.3306 23.2755 23.4649C22.9805 23.6487 22.8994 24.2002 22.7224 24.5458L22.4716 25.0753L22.3831 25.2444Z" fill="white"/>
  <path d="M36.5579 5.88275C36.7257 5.97429 36.861 6.11522 36.9455 6.28631C37.03 6.45739 37.0594 6.6503 37.0299 6.8387C36.9856 7.75788 36.9856 8.66971 36.9561 9.58889C36.9561 10.133 36.6759 10.4198 36.2186 10.4125C35.7614 10.4051 35.5328 10.0816 35.5401 9.55213C35.5401 8.58882 35.5401 7.62552 35.636 6.66957C35.636 6.39749 35.9236 6.14748 36.0785 5.88275H36.5579Z" fill="white"/>
  <path d="M23.895 50.0035C23.5288 49.6601 23.1448 49.3361 22.7445 49.0328C22.3347 48.7577 21.8485 48.6182 21.3548 48.634C20.861 48.6499 20.3848 48.8203 19.9936 49.1211C19.5437 49.4152 19.1455 49.3932 18.8947 49.0549C18.644 48.7166 18.7546 48.3196 19.175 47.996C19.8577 47.4885 20.6921 47.2256 21.5433 47.2496C22.3945 47.2736 23.2127 47.5832 23.8655 48.1284C24.544 48.6946 25.1782 49.3196 25.8346 49.9226C26.3153 50.4118 26.889 50.8004 27.5222 51.0657C28.1554 51.3309 28.8353 51.4676 29.5221 51.4676C30.2089 51.4676 30.8888 51.3309 31.522 51.0657C32.1552 50.8004 32.7289 50.4118 33.2096 49.9226C33.8586 49.3196 34.5002 48.6946 35.1787 48.121C35.8289 47.5877 36.6388 47.2859 37.4803 47.2632C38.3219 47.2406 39.147 47.4985 39.825 47.996C40.2527 48.3196 40.3634 48.7314 40.1274 49.0549C39.8914 49.3785 39.4784 49.4373 39.0359 49.1431C38.5696 48.7841 37.9869 48.6088 37.3992 48.6508C36.8116 48.6929 36.26 48.9493 35.8499 49.3711L35.1124 50.0256C35.9049 50.5577 36.7829 50.9507 37.7084 51.1874C38.0313 51.2824 38.362 51.3489 38.6966 51.3859C38.8953 51.3745 39.0902 51.3271 39.2719 51.2462C39.4303 51.1914 39.5854 51.1276 39.7365 51.055C40.3486 50.7756 40.9681 50.5256 41.5581 50.2094C41.89 50.0256 42.185 49.805 42.5685 50.0329C42.952 50.2609 42.9299 50.4594 42.8192 51.055C44.0966 50.6907 45.2381 49.9592 46.1011 48.952C46.9103 48.0523 47.4715 46.9588 47.7301 45.7781C47.9886 44.5975 47.9356 43.3702 47.5761 42.2162C47.5761 42.1574 47.5319 42.0985 47.5171 42.0397C47.377 41.547 47.5171 41.1794 47.9006 41.047C48.2841 40.9146 48.6824 41.1058 48.8446 41.6132C49.2398 42.7679 49.3746 43.9953 49.2395 45.2079C49.1043 46.4204 48.7026 47.5884 48.0629 48.6284C47.3662 49.7967 46.4011 50.7833 45.2471 51.5069C44.0931 52.2305 42.7833 52.6704 41.4254 52.7905C39.0008 53.1132 36.5395 52.5771 34.4707 51.2757L34.1536 51.0845H34.0651C32.8412 52.2436 31.2176 52.8899 29.5295 52.8899C27.8414 52.8899 26.2178 52.2436 24.9939 51.0845C24.4334 51.3712 23.8876 51.7022 23.2976 51.9522C21.8329 52.6357 20.225 52.9584 18.6092 52.8931C16.9934 52.8278 15.4169 52.3765 14.0125 51.5771C12.3445 50.6156 11.0577 49.1129 10.3665 47.3198C9.67529 45.5266 9.6216 43.5514 10.2144 41.7235C10.3766 41.2382 10.6495 40.9882 11.0256 41.0838C11.4017 41.1794 11.7115 41.5691 11.5345 42.1427C11.2521 43.0377 11.1503 43.9797 11.235 44.9142C11.3198 45.8487 11.5893 46.7572 12.0282 47.5872C12.4671 48.4172 13.0665 49.1524 13.7919 49.7501C14.5173 50.3478 15.3543 50.7963 16.2545 51.0697C16.2545 50.908 16.166 50.783 16.2029 50.6874C16.284 50.4594 16.3504 50.1579 16.5274 50.0476C16.6416 49.9895 16.7679 49.9592 16.8961 49.9592C17.0243 49.9592 17.1507 49.9895 17.2649 50.0476C17.998 50.4837 18.768 50.8553 19.5659 51.158C19.8227 51.28 20.1021 51.3475 20.3865 51.3564C20.6708 51.3652 20.9539 51.3152 21.2179 51.2095C22.125 50.9153 23.0174 50.5477 23.9097 50.2094L23.895 50.0035Z" fill="white"/>
  <path d="M36.6611 25.0753C36.4251 24.5752 36.1965 24.0752 35.9679 23.6046C35.9679 23.5458 35.9163 23.4649 35.8646 23.4502C35.282 23.2369 35.3263 22.7148 35.3336 22.2663C35.3877 19.1925 35.4369 16.1188 35.4811 13.045C35.4738 12.9103 35.4738 12.7753 35.4811 12.6406C35.4858 12.5556 35.5073 12.4723 35.5444 12.3956C35.5814 12.3188 35.6333 12.2502 35.697 12.1935C35.7607 12.1368 35.835 12.0932 35.9157 12.0651C35.9963 12.0371 36.0817 12.0253 36.167 12.0302C36.2551 12.0283 36.3428 12.0437 36.425 12.0755C36.5072 12.1073 36.5822 12.155 36.6459 12.2158C36.7096 12.2766 36.7607 12.3493 36.7962 12.4297C36.8317 12.5102 36.851 12.5968 36.8529 12.6847C36.8602 12.7752 36.8602 12.8662 36.8529 12.9568C36.875 15.2437 36.8013 17.5527 36.7275 19.8543C36.6718 21.5946 37.1673 23.3081 38.1435 24.7517C39.9528 27.4921 41.7548 30.2399 43.5494 32.9949C43.9476 33.6053 43.9403 34.0244 43.5494 34.2744C43.1585 34.5245 42.8119 34.348 42.4063 33.7671L37.0299 25.5974C36.9201 25.4556 36.8019 25.3206 36.6759 25.1929C36.6759 25.1929 36.6685 25.0973 36.6611 25.0753Z" fill="white"/>
  <path d="M45.4374 37.1717L48.3136 34.7892C48.4316 34.6863 48.5422 34.5907 48.6676 34.4951C48.8145 34.3719 49.0037 34.3107 49.1951 34.3245C49.3865 34.3382 49.565 34.4258 49.6927 34.5686C49.7493 34.6412 49.7907 34.7243 49.8147 34.813C49.8387 34.9017 49.8446 34.9943 49.8323 35.0854C49.8199 35.1765 49.7895 35.2642 49.7427 35.3433C49.696 35.4225 49.6338 35.4916 49.56 35.5466C48.9257 36.0981 48.2694 36.6276 47.6204 37.1717L46.3961 38.1939C46.433 38.238 46.4404 38.2747 46.4625 38.2747C47.0525 38.385 47.3032 38.6351 47.2516 39.0836C47.2 39.5322 46.8829 39.716 46.2781 39.6572C45.6734 39.5984 45.1792 39.5395 44.6335 39.466C44.5273 39.467 44.4221 39.4452 44.3252 39.402C44.2283 39.3588 44.1418 39.2952 44.0718 39.2156C44.0018 39.136 43.9498 39.0423 43.9195 38.9408C43.8891 38.8393 43.8811 38.7325 43.896 38.6277C43.896 38.1056 43.955 37.5909 43.9845 37.0688C43.9845 36.429 44.2721 36.0908 44.722 36.1055C45.1719 36.1202 45.4079 36.429 45.4374 37.1717Z" fill="white"/>
  <path d="M13.7101 37.1644C13.7101 36.9438 13.7101 36.8261 13.7101 36.7011C13.7209 36.5461 13.7884 36.4005 13.9 36.292C14.0115 36.1835 14.1592 36.1197 14.3149 36.1128C14.3915 36.0957 14.4708 36.0942 14.548 36.1084C14.6252 36.1227 14.6988 36.1523 14.7642 36.1956C14.8297 36.2388 14.8857 36.2949 14.9288 36.3603C14.972 36.4256 15.0015 36.4991 15.0155 36.5761C15.1153 37.3467 15.167 38.1228 15.1704 38.8998C15.1704 39.2381 14.868 39.4145 14.5361 39.4587C13.9388 39.5395 13.3488 39.6131 12.7514 39.6646C12.154 39.716 11.918 39.4954 11.8738 39.0836C11.8295 38.6718 12.0581 38.3924 12.567 38.2895C12.6113 38.2895 12.6629 38.2895 12.8104 38.1497C12.7013 38.1077 12.5974 38.0534 12.5006 37.988C11.5419 37.1742 10.5708 36.3727 9.58751 35.5834C9.43085 35.4687 9.32592 35.297 9.29554 35.1056C9.26516 34.9142 9.31178 34.7186 9.42526 34.5613C9.49 34.4861 9.5693 34.4248 9.65838 34.381C9.74747 34.3372 9.84452 34.3118 9.9437 34.3063C10.0429 34.3008 10.1421 34.3154 10.2356 34.3491C10.329 34.3828 10.4146 34.4349 10.4873 34.5024L10.8044 34.7672L13.275 36.8114C13.3709 36.9144 13.5036 37.01 13.7101 37.1644Z" fill="white"/>
  <path d="M22.3831 25.2444L22.4716 25.0753C22.7666 24.8547 23.069 24.6929 23.4304 24.9282C23.5695 25.0284 23.6735 25.1696 23.7278 25.3319C23.782 25.4942 23.7838 25.6694 23.7327 25.8327C23.5926 26.6416 23.4599 27.4578 23.2976 28.2667C23.2863 28.368 23.254 28.4658 23.2028 28.554C23.1515 28.6422 23.0824 28.7188 22.9999 28.779C22.9174 28.8391 22.8232 28.8815 22.7234 28.9035C22.6236 28.9254 22.5202 28.9264 22.42 28.9064C22.0291 28.8035 21.8595 28.4432 21.9406 27.9505C22.125 27.0534 22.2356 26.1489 22.3831 25.2444Z" fill="white"/>
  <path d="M36.6611 25.0753C36.6611 25.0753 36.6611 25.1268 36.6611 25.1562C36.8381 26.1489 37.0299 27.1343 37.1847 28.0976C37.2006 28.1798 37.1998 28.2643 37.1822 28.3462C37.1647 28.4281 37.1309 28.5056 37.0827 28.5742C37.0346 28.6428 36.9731 28.701 36.9019 28.7455C36.8308 28.7899 36.7514 28.8196 36.6685 28.8329C36.5832 28.8594 36.4934 28.8679 36.4047 28.8578C36.316 28.8477 36.2303 28.8192 36.1533 28.7742C36.0762 28.7292 36.0095 28.6687 35.9572 28.5965C35.905 28.5243 35.8684 28.442 35.8499 28.3549C35.6581 27.4137 35.4885 26.4651 35.3779 25.5165C35.3854 25.3862 35.4209 25.259 35.482 25.1436C35.5431 25.0281 35.6283 24.9271 35.7319 24.8473C36.0564 24.6635 36.3735 24.8767 36.6611 25.0753Z" fill="white"/>
  <path d="M14.5287 45.0988C14.7054 45.1125 14.8711 45.1891 14.9957 45.3147C15.1203 45.4403 15.1954 45.6064 15.2072 45.7826C15.3695 46.5768 15.5612 47.3783 15.7677 48.1651C15.8391 48.334 15.8446 48.5234 15.7832 48.6962C15.7218 48.8689 15.598 49.0126 15.4359 49.099C15.2639 49.1658 15.073 49.1659 14.9009 49.0992C14.7289 49.0325 14.5882 48.9038 14.5066 48.7387C14.0464 47.8267 13.8113 46.8182 13.8207 45.7973C13.8187 45.7044 13.8357 45.612 13.8706 45.5259C13.9056 45.4397 13.9577 45.3615 14.024 45.2962C14.0903 45.2308 14.1692 45.1796 14.256 45.1456C14.3428 45.1117 14.4356 45.0957 14.5287 45.0988Z" fill="white"/>
  <path d="M17.1985 40.5396C17.0952 40.8043 17.051 40.9661 16.9772 41.1132C16.5937 41.8485 16.2029 42.5839 15.8046 43.3192C15.7669 43.4107 15.7111 43.4937 15.6405 43.5632C15.5699 43.6327 15.4859 43.6873 15.3936 43.7237C15.3014 43.7601 15.2027 43.7775 15.1035 43.775C15.0043 43.7725 14.9066 43.75 14.8164 43.7089C14.7313 43.6585 14.6573 43.5915 14.5987 43.5119C14.5402 43.4323 14.4983 43.3418 14.4756 43.2457C14.4529 43.1496 14.4498 43.05 14.4665 42.9527C14.4833 42.8554 14.5195 42.7625 14.573 42.6795C14.9786 41.8926 15.3916 41.1132 15.8194 40.3411C15.8476 40.2645 15.8913 40.1946 15.9478 40.1356C16.0043 40.0766 16.0723 40.0298 16.1477 39.998C16.2231 39.9663 16.3042 39.9504 16.386 39.9512C16.4678 39.952 16.5485 39.9696 16.6232 40.0028C16.8431 40.1492 17.0374 40.3305 17.1985 40.5396Z" fill="white"/>
  <path d="M45.43 46.0988C45.1719 46.9518 44.9433 47.8122 44.6483 48.6578C44.6212 48.7542 44.5735 48.8437 44.5084 48.9199C44.4433 48.9961 44.3623 49.0573 44.2711 49.0993C44.1799 49.1413 44.0807 49.163 43.9803 49.1629C43.8799 49.1629 43.7806 49.1411 43.6895 49.099C43.3208 48.9299 43.2396 48.5402 43.3871 48.0769C43.6067 47.4008 43.7792 46.7104 43.9034 46.0106C43.9993 45.4076 44.1984 45.084 44.6409 45.0987C45.0834 45.1135 45.3194 45.4517 45.3046 46.062L45.43 46.0988Z" fill="white"/>
  <path d="M38.6081 33.9803C38.5196 33.9141 38.2763 33.8112 38.173 33.6273C37.7158 32.8332 37.2954 32.0169 36.8898 31.2007C36.84 31.1187 36.808 31.0272 36.7956 30.9322C36.7832 30.8371 36.7907 30.7406 36.8178 30.6486C36.8448 30.5566 36.8908 30.4713 36.9527 30.398C37.0146 30.3246 37.0911 30.2649 37.1774 30.2227C37.3538 30.1504 37.5515 30.1491 37.7289 30.219C37.9063 30.2889 38.0496 30.4247 38.1288 30.5977C38.5418 31.3331 38.9474 32.1346 39.3383 32.9067C39.6185 33.4656 39.3309 33.995 38.6081 33.9803Z" fill="white"/>
  <path d="M19.7945 35.6496C19.7407 35.8343 19.6767 36.016 19.6028 36.1937C19.2119 36.9291 18.821 37.6644 18.4228 38.3998C18.172 38.8557 17.7738 39.0101 17.405 38.8042C17.3213 38.7513 17.2491 38.6822 17.1928 38.6009C17.1365 38.5196 17.0972 38.4279 17.0772 38.3311C17.0572 38.2343 17.057 38.1345 17.0766 38.0377C17.0962 37.9408 17.1351 37.8489 17.1911 37.7674C17.5894 37.032 18.0024 36.2378 18.4154 35.4657C18.4446 35.3862 18.4898 35.3134 18.5481 35.2518C18.6064 35.1902 18.6766 35.1411 18.7546 35.1074C18.8325 35.0737 18.9165 35.0561 19.0015 35.0558C19.0864 35.0555 19.1706 35.0723 19.2488 35.1054C19.4774 35.2157 19.6323 35.4804 19.7945 35.6496Z" fill="white"/>
  <path d="M42.1629 38.2968C41.9711 38.4806 41.8015 38.7748 41.5802 38.8262C41.4474 38.8482 41.3112 38.8383 41.183 38.7974C41.0547 38.7565 40.9381 38.6857 40.8427 38.5909C40.3339 37.76 39.884 36.8923 39.4562 36.0172C39.4164 35.9419 39.3925 35.8593 39.3858 35.7744C39.3792 35.6895 39.39 35.6042 39.4176 35.5236C39.4453 35.4431 39.4891 35.369 39.5465 35.3059C39.6038 35.2428 39.6735 35.1921 39.7512 35.1569C39.8181 35.1097 39.894 35.0767 39.9742 35.06C40.0544 35.0432 40.1372 35.0432 40.2175 35.0597C40.2977 35.0763 40.3737 35.1091 40.4406 35.1562C40.5076 35.2033 40.5641 35.2636 40.6067 35.3334C41.123 36.2158 41.5802 37.1276 42.0817 38.0321C42.0894 38.0907 42.0894 38.15 42.0817 38.2086L42.1629 38.2968Z" fill="white"/>
  <path d="M44.7589 43.2016C44.5745 43.3928 44.4049 43.6943 44.191 43.7457C44.057 43.764 43.9206 43.751 43.7926 43.7076C43.6646 43.6642 43.5485 43.5916 43.4535 43.4957C42.9299 42.6501 42.48 41.7676 42.0375 40.8779C42.0034 40.8037 41.9845 40.7234 41.982 40.6419C41.9796 40.5603 41.9935 40.4791 42.0231 40.403C42.0527 40.3269 42.0972 40.2574 42.1542 40.1988C42.2111 40.1402 42.2793 40.0935 42.3546 40.0616C42.4172 40.0144 42.4888 39.9805 42.5651 39.9619C42.6413 39.9433 42.7205 39.9405 42.7979 39.9536C42.8753 39.9667 42.9491 39.9954 43.015 40.038C43.0808 40.0806 43.1372 40.1362 43.1806 40.2014C43.7042 41.0911 44.1689 42.0177 44.6556 42.9368C44.6673 42.9951 44.6673 43.0551 44.6556 43.1133L44.7589 43.2016Z" fill="white"/>
  <path d="M21.5276 30.1492C22.1324 30.1492 22.4864 30.6492 22.2651 31.0978C21.8521 31.9728 21.3875 32.8332 20.9081 33.6862C20.8664 33.7605 20.8098 33.8255 20.7419 33.8772C20.674 33.9289 20.5963 33.9662 20.5134 33.9869C20.4305 34.0076 20.3443 34.0111 20.26 33.9973C20.1757 33.9835 20.0951 33.9527 20.0231 33.9068C19.9491 33.8735 19.8824 33.8259 19.827 33.7666C19.7716 33.7074 19.7286 33.6378 19.7005 33.5618C19.6723 33.4859 19.6596 33.4051 19.6631 33.3242C19.6666 33.2432 19.6862 33.1638 19.7208 33.0906C20.1485 32.2155 20.6058 31.3551 21.0851 30.5021C21.181 30.2962 21.4318 30.2154 21.5276 30.1492Z" fill="white"/>
</svg>