<svg xmlns="http://www.w3.org/2000/svg" width="51" height="51" viewBox="0 0 51 51" fill="none">
  <g clip-path="url(#clip0_25_310)">
    <path d="M13.8756 4.42266C13.7063 4.50234 13.517 4.65176 13.4572 4.77129C13.3875 4.90078 13.3477 6.08613 13.3477 8.20781C13.3477 9.99082 13.3178 11.4551 13.2879 11.4551C13.2481 11.4551 12.8994 11.1164 12.5109 10.698C11.8734 10.0107 11.7639 9.94102 11.4252 9.94102C11.226 9.94102 10.9471 10.0107 10.8176 10.0904C10.5287 10.2896 10.3195 10.7777 10.3992 11.1064C10.4689 11.3654 12.0328 13.2182 13.2481 14.4633C13.8357 15.0709 13.9453 15.1406 14.2939 15.1406C14.6426 15.1406 14.7522 15.0709 15.3398 14.4633C16.5551 13.2182 18.1189 11.3654 18.1887 11.1064C18.2684 10.7777 18.0592 10.2896 17.7703 10.0904C17.6408 10.0107 17.3619 9.94102 17.1627 9.94102C16.824 9.94102 16.7145 10.0107 16.067 10.718L15.3398 11.485V8.45684C15.3398 6.66387 15.3 5.2793 15.2303 5.0502C15.0709 4.4625 14.4533 4.17363 13.8756 4.42266Z" fill="white"/>
    <path d="M36.477 4.43262C35.8893 4.6916 35.8594 4.90078 35.8594 8.38711V11.5049L35.1422 10.718C34.4947 10.0207 34.3752 9.94102 34.0565 9.94102C33.5883 9.94102 33.3094 10.0904 33.1201 10.459C32.9408 10.8076 32.9309 11.0268 33.1002 11.3256C33.3094 11.6941 36.0885 14.8119 36.3774 14.9813C36.7061 15.1805 37.1443 15.1904 37.4233 14.9912C37.7918 14.7322 40.6307 11.485 40.7402 11.2061C40.8797 10.8475 40.7004 10.3096 40.3816 10.1004C40.2522 10.0107 39.9733 9.94102 39.774 9.94102C39.4354 9.94102 39.3258 10.0107 38.6783 10.6981C38.2899 11.1164 37.9412 11.4551 37.9113 11.4551C37.8815 11.4551 37.8516 10.0008 37.8516 8.21778C37.8516 4.6418 37.8416 4.60196 37.234 4.39278C36.8555 4.26328 36.8854 4.26328 36.477 4.43262Z" fill="white"/>
    <path d="M1.21523 15.2203C0.667383 15.2801 0.537891 15.3299 0.288867 15.6187L0 15.9474L0.0199219 30.1219C0.0498047 43.9476 0.0498047 44.3062 0.239063 44.5154C0.52793 44.8342 0.946289 44.9039 1.74316 44.7445C3.16758 44.4656 4.82109 44.7545 6.24551 45.5314C7.86914 46.408 9.7916 46.8164 11.4352 46.6172C12.6703 46.4678 13.2281 46.2885 14.7422 45.5613C16.3559 44.7943 17.2523 44.5851 18.5373 44.6648C19.5732 44.7346 20.5395 45.0135 21.4857 45.5314C23.0994 46.408 24.982 46.8064 26.6355 46.6271C27.8607 46.4877 28.3986 46.3183 29.9824 45.5713C31.626 44.8043 32.124 44.6748 33.4688 44.6748C34.7039 44.6848 35.6004 44.9139 36.726 45.5314C38.7182 46.6172 41.0789 46.926 43.2305 46.3781C43.5891 46.2885 44.4357 45.9498 45.1231 45.6211C46.8662 44.7943 47.2746 44.6947 49.0178 44.6848C50.5717 44.6748 50.6912 44.6449 50.8904 44.1469C50.9701 43.9476 51 40.0529 50.9801 29.9027L50.9502 15.9176L50.6813 15.6885C50.3227 15.3797 49.4361 15.2402 47.8922 15.2402C45.6908 15.2402 44.1668 15.6387 41.9854 16.7842C40.2322 17.7006 39.0967 18.0392 37.3535 18.1787C35.5207 18.3281 33.7775 17.9297 31.5563 16.8639C29.8629 16.057 29.6836 16.0271 29.2354 16.4853C28.9066 16.814 28.8369 17.1527 29.0262 17.5512C29.1656 17.84 29.3947 17.9994 30.4605 18.5473C32.7814 19.7525 34.3154 20.141 36.6563 20.151C39.017 20.1609 40.4414 19.7924 42.852 18.5771C44.9836 17.4914 46.5275 17.1129 48.3902 17.2125L49.0078 17.2523V23.468V29.6836H48.4301C47.185 29.6836 46.1789 29.9625 44.4258 30.7892C42.8918 31.5064 42.2543 31.6758 41.059 31.6758C39.7939 31.6758 38.9572 31.4666 37.7121 30.8191C34.8035 29.325 32.1141 29.3051 29.2354 30.7494C28.0699 31.3371 27.1934 31.5861 26.0479 31.6459C24.7629 31.7156 23.8365 31.4965 22.2926 30.7394C20.6092 29.9226 19.8721 29.7433 18.1787 29.7334C16.4455 29.7334 15.8777 29.8728 14.0449 30.7394C12.3217 31.5562 11.6443 31.7156 10.21 31.6459C9.00469 31.5961 8.27754 31.3769 6.85313 30.6697C5.64785 30.0621 4.52227 29.7732 3.16758 29.7135L1.99219 29.6537V23.3783V17.1129L2.86875 17.1826C4.84102 17.342 6.05625 17.6906 7.8293 18.6369C11.1662 20.4099 14.8219 20.6889 18.1787 19.4437C19.3143 19.0254 21.8443 17.7703 22.0734 17.5213C22.3623 17.2025 22.3225 16.5949 21.9838 16.2562C21.5156 15.7881 21.1271 15.8678 19.1748 16.8041C17.2623 17.7205 16.8738 17.8599 15.5391 18.0891C13.9951 18.358 11.983 18.1787 10.459 17.6508C10.1602 17.5412 9.28359 17.1428 8.5166 16.7543C7.04238 16.0172 6.02637 15.6486 4.72148 15.3996C3.76523 15.2203 2.06191 15.1406 1.21523 15.2203ZM4.78125 31.9746C5.13984 32.0941 5.94668 32.4328 6.57422 32.7217C8.2875 33.5086 8.73574 33.6182 10.5586 33.6182C12.4313 33.6182 12.8496 33.5185 14.7422 32.6221C16.4654 31.8152 16.7443 31.7355 18.1289 31.7355C19.5035 31.7355 19.9717 31.8551 21.7148 32.6719C23.4979 33.5086 23.9561 33.6082 25.749 33.6182C27.552 33.6182 28.1795 33.4687 30.082 32.5723C32.6719 31.357 34.2457 31.367 36.8555 32.6221C38.7381 33.5185 39.1465 33.6182 41.0889 33.6082C42.5631 33.6082 42.7523 33.5883 43.5293 33.3293C43.9975 33.1699 44.8043 32.8312 45.3223 32.5723C46.4977 31.9746 47.1352 31.7853 48.191 31.7057L49.0078 31.6459V37.1244V42.6029L48.1412 42.6726C46.7268 42.7822 46.0395 42.9814 44.366 43.7883C42.9715 44.4656 42.2344 44.6549 41.0391 44.6549C39.8936 44.6648 39.0967 44.4656 37.9611 43.9178C35.8793 42.8918 35.0924 42.6826 33.3691 42.6926C31.8252 42.7025 30.7893 42.9615 29.2354 43.7285C27.8109 44.4258 27.0041 44.635 25.7092 44.635C24.4939 44.625 23.8266 44.4557 22.4619 43.7883C19.374 42.2842 16.9535 42.2642 13.9951 43.7285C12.5607 44.4357 11.8336 44.625 10.5088 44.625C9.26367 44.625 8.41699 44.4058 7.09219 43.7285C6.56426 43.4596 5.85703 43.1508 5.52832 43.0412C4.72148 42.7822 3.46641 42.6029 2.65957 42.6527L1.99219 42.6826V37.1642V31.6459L3.06797 31.7057C3.7752 31.7355 4.35293 31.8351 4.78125 31.9746Z" fill="white"/>
    <path d="M9.55255 35.9092C8.51661 36.2479 7.62012 37.1344 7.36114 38.0807C7.18184 38.7381 7.29141 39.8039 7.6002 40.4016C8.3672 41.9156 10.3195 42.5631 11.8137 41.8061C13.7162 40.8399 14.1545 38.3695 12.7002 36.7758C11.9731 35.959 10.5686 35.5805 9.55255 35.9092ZM10.8873 37.8914C11.8934 38.3098 11.7539 39.9035 10.6981 40.1027C10.2299 40.1924 9.89122 40.0828 9.55255 39.7441C9.03458 39.2361 9.21387 38.25 9.88126 37.9213C10.2897 37.7221 10.469 37.7121 10.8873 37.8914Z" fill="white"/>
    <path d="M40.2422 35.8893C39.3357 36.1482 38.5189 36.8555 38.1305 37.732C37.8117 38.4393 37.8316 39.525 38.1604 40.2422C38.4791 40.9195 38.9971 41.4574 39.6744 41.816C40.1227 42.0451 40.3119 42.085 41.0391 42.085C41.7662 42.085 41.9654 42.0451 42.4535 41.8061C44.2564 40.9195 44.7844 38.6186 43.5492 37.0049C42.842 36.0686 41.3578 35.5705 40.2422 35.8893ZM41.9156 38.2002C42.6627 39.007 42.0152 40.2621 40.9096 40.1127C40.4314 40.043 40.0729 39.7242 39.9334 39.2361C39.8338 38.9273 39.8437 38.8078 40.0031 38.4791C40.3916 37.6922 41.318 37.5527 41.9156 38.2002Z" fill="white"/>
    <path d="M25.1514 36.6961C24.484 37.3635 24.9322 38.4094 25.8686 38.3795C26.3666 38.3695 26.7949 37.9014 26.7949 37.3934C26.7949 36.5865 25.7191 36.1283 25.1514 36.6961Z" fill="white"/>
    <path d="M24.992 15.5291C24.484 16.0471 24.6633 16.8041 25.3605 17.093C26.3367 17.5014 27.1535 16.0969 26.3267 15.4394C25.9283 15.1307 25.3605 15.1705 24.992 15.5291Z" fill="white"/>
    <path d="M25.241 19.5533C25.0418 19.6629 22.5914 22.3523 22.0435 23.0496C21.6252 23.5775 21.8045 24.3545 22.4121 24.6035C22.9002 24.8027 23.209 24.6533 23.976 23.8266L24.6931 23.0596L24.7031 25.5697C24.7031 27.1535 24.743 28.1695 24.8127 28.3189C24.8724 28.4484 25.0418 28.6277 25.2012 28.7174C25.6394 28.9764 25.9781 28.9266 26.3566 28.548L26.6953 28.2094V25.6295V23.0596L27.4224 23.8266C27.8109 24.2449 28.2392 24.6234 28.3687 24.6533C28.7273 24.7529 29.2752 24.5238 29.4346 24.2051C29.6736 23.7369 29.6238 23.3584 29.2652 22.94C27.8906 21.3463 26.4363 19.7426 26.2072 19.6031C25.9084 19.3939 25.5398 19.384 25.241 19.5533Z" fill="white"/>
  </g>
  <defs>
    <clipPath id="clip0_25_310">
      <rect width="51" height="51" fill="white"/>
    </clipPath>
  </defs>
</svg>