<svg xmlns="http://www.w3.org/2000/svg" width="58" height="58" viewBox="0 0 58 58" fill="none">
  <path d="M23.3276 55.3233C23.1574 55.1857 23.0252 55.007 22.9435 54.804C22.8618 54.6009 22.8333 54.3804 22.8607 54.1633C22.8781 52.4639 22.8607 50.7645 22.8781 49.0651C22.9016 48.9013 22.8619 48.7347 22.7671 48.599C22.6724 48.4633 22.5296 48.3687 22.3677 48.3343C21.3991 47.9718 20.4421 47.5774 19.4909 47.1743C18.8645 46.9075 18.7166 46.1593 19.2502 45.8606C19.5505 45.7309 19.8893 45.7226 20.1956 45.8374C21.721 46.4174 23.2319 47.0177 24.7399 47.6325C24.9614 47.7363 25.2029 47.7901 25.4475 47.7901C25.6921 47.7901 25.9336 47.7363 26.1551 47.6325C26.506 47.4672 26.883 47.357 27.2426 47.2033C27.6022 47.0496 28.0227 46.9133 28.3736 47.2642C28.7245 47.6151 28.6114 48.0008 28.3243 48.4532C29.4379 48.4532 30.4935 48.5489 31.5143 48.4387C37.439 47.7949 41.8499 44.7093 44.8108 39.6662C48.5982 33.2166 48.7867 26.4799 45.8403 19.633C45.7997 19.5402 45.7504 19.4503 45.7127 19.343C45.5184 18.8587 45.6518 18.4469 46.0578 18.2613C46.4638 18.0757 46.864 18.2381 47.096 18.7137C47.9735 20.5004 48.5973 22.4008 48.9491 24.36C50.0105 30.3804 49.0622 36.0383 45.6982 41.18C42.7141 45.7446 38.5845 48.7403 33.1528 49.7582C30.4499 50.2617 27.6659 50.1115 25.0328 49.3203C24.8878 49.2768 24.7428 49.2362 24.592 49.1985C24.5361 49.1925 24.4797 49.1925 24.4238 49.1985C24.4238 49.3667 24.3948 49.5407 24.3948 49.7176C24.3948 51.1937 24.3948 52.6727 24.3948 54.1517C24.4214 54.3688 24.3925 54.589 24.3108 54.7919C24.2292 54.9947 24.0974 55.1736 23.9279 55.3117L23.3276 55.3233Z" fill="#1D2E66"/>
  <path d="M14.964 55.3233C14.8057 55.1769 14.6828 54.9963 14.6049 54.7953C14.527 54.5943 14.4961 54.3781 14.5145 54.1633C14.4623 52.4233 14.4304 50.7007 14.2709 48.981C14.1346 47.5136 13.4299 46.2405 12.5715 45.0544C11.9915 44.2453 11.3912 43.4304 10.8837 42.572C10.3672 41.7474 10.0502 40.8136 9.95812 39.845C9.86598 38.8763 10.0012 37.8996 10.353 36.9924C11.1331 34.8783 13.1428 33.5124 15.515 33.3993C17.1018 33.3389 18.6739 33.7236 20.0535 34.51C21.2135 35.1393 22.3561 35.815 23.5335 36.4327C24.1721 36.8056 24.9195 36.9479 25.6505 36.8358C27.0831 36.5777 27.8748 35.4902 27.7704 33.9358C27.7041 32.6364 27.2685 31.3829 26.5147 30.3224C25.4388 28.8463 24.2556 27.4398 23.0347 26.0739C22.0864 25.0154 21.0221 24.07 20.01 23.0492C19.9027 22.9419 19.7867 22.8404 19.6881 22.7244C19.615 22.6548 19.5566 22.5712 19.5162 22.4787C19.4759 22.3861 19.4545 22.2864 19.4532 22.1855C19.452 22.0846 19.471 21.9844 19.5091 21.8909C19.5471 21.7974 19.6035 21.7124 19.6749 21.6411C19.7463 21.5697 19.8312 21.5133 19.9247 21.4752C20.0182 21.4372 20.1184 21.4182 20.2193 21.4194C20.3203 21.4207 20.4199 21.4421 20.5125 21.4824C20.605 21.5227 20.6886 21.5812 20.7582 21.6543C23.0405 23.8873 25.3982 26.0536 27.2745 28.6636C28.3765 30.1977 29.1392 31.8884 29.2784 33.814C29.5075 36.9663 26.9004 39.1065 23.8728 38.1843C23.0295 37.8775 22.2137 37.5001 21.4339 37.0562C20.3 36.4762 19.2067 35.8266 18.0496 35.3162C16.9592 34.8515 15.7432 34.7717 14.6015 35.09C14.0339 35.2264 13.5017 35.4814 13.0398 35.8383C12.5778 36.1951 12.1967 36.6457 11.9214 37.1605C11.6461 37.6752 11.4828 38.2423 11.4424 38.8247C11.4021 39.407 11.4854 39.9913 11.687 40.5391C11.9856 41.4771 12.4546 42.352 13.0703 43.1201C15.3526 45.7997 16.1704 48.9056 16.0573 52.3392C16.037 52.9656 16.037 53.5978 16.0573 54.2242C16.0811 54.4338 16.0488 54.6461 15.9637 54.8392C15.8786 55.0323 15.7438 55.1993 15.573 55.3233H14.964Z" fill="#1D2E66"/>
  <path d="M20.3957 10.237C21.6949 9.60187 22.8491 8.88847 24.1048 8.45057C30.1948 6.32777 35.8382 7.36597 41.0002 11.1592C42.6748 12.4174 44.1358 13.9371 45.327 15.66C45.5474 15.9703 45.6779 16.2864 45.4807 16.6518C45.1907 17.1767 44.5614 17.1651 44.138 16.6373C43.5232 15.8717 42.949 15.0626 42.2704 14.3521C38.744 10.6546 34.4433 8.76957 29.29 8.93197C28.8144 8.94647 28.3417 9.00447 27.8748 9.04217C27.8023 10.0427 27.4137 10.3211 26.5089 9.92957C26.1764 9.76458 25.8094 9.68115 25.4382 9.68619C25.067 9.69123 24.7024 9.7846 24.3745 9.95857C23.2957 10.5212 22.2082 11.0664 21.0105 11.6783C21.4049 12.1307 21.6804 12.4874 21.9936 12.8064C22.3996 13.2182 22.4779 13.6126 22.1763 13.9664C21.8747 14.3202 21.3904 14.3318 20.9641 13.9374C19.6098 12.6817 18.9341 11.0635 18.6441 9.28287C18.3772 7.46247 18.4619 5.60778 18.8935 3.81927C18.9128 3.64058 18.9931 3.47401 19.121 3.34773C19.2488 3.22144 19.4164 3.14318 19.5953 3.12617C20.1173 3.06527 20.4653 3.52347 20.3986 4.10057C20.2623 5.44617 20.1086 6.79757 20.0709 8.16057C20.0709 8.84207 20.3 9.54387 20.3957 10.237Z" fill="#1D2E66"/>
  <path d="M11.3999 7.93727C11.5662 6.66127 11.7334 5.38527 11.9016 4.10927C11.922 3.99225 11.9511 3.8769 11.9886 3.76417C12.0058 3.66376 12.0426 3.56772 12.097 3.48156C12.1514 3.3954 12.2222 3.32082 12.3054 3.26209C12.3887 3.20336 12.4827 3.16164 12.5821 3.13931C12.6815 3.11698 12.7843 3.11449 12.8847 3.13197C13.3197 3.22187 13.5314 3.60467 13.4647 4.10637C13.3139 5.28087 13.1022 6.45827 13.0529 7.63857C12.8847 11.6986 14.3115 15.138 17.2202 17.9742C17.6929 18.4353 18.1279 18.937 18.5745 19.4242C18.9428 19.8302 18.9631 20.2942 18.6383 20.5987C18.3135 20.9032 17.8495 20.8887 17.4783 20.4798C16.3763 19.2589 15.2337 18.067 14.21 16.7765C12.3656 14.442 11.6435 11.6928 11.5043 8.76377C11.5043 8.49407 11.5043 8.22147 11.5043 7.94887L11.3999 7.93727Z" fill="#1D2E66"/>
  <path d="M30.6588 20.59H32.2683C32.489 20.5842 32.7099 20.5929 32.9295 20.6161C33.113 20.6414 33.2806 20.7339 33.3998 20.8757C33.5191 21.0174 33.5815 21.1984 33.575 21.3835C33.5685 21.5686 33.4935 21.7448 33.3647 21.8778C33.2358 22.0109 33.0621 22.0914 32.8773 22.1038C32.3524 22.127 31.8275 22.1038 31.2997 22.1038H30.6646C30.827 22.2981 30.9314 22.3938 31.0126 22.5185C31.1301 22.6565 31.1899 22.8344 31.1796 23.0153C31.1694 23.1962 31.0898 23.3662 30.9575 23.49C30.9019 23.5618 30.8323 23.6215 30.753 23.6656C30.6736 23.7097 30.5861 23.7372 30.4958 23.7464C30.4055 23.7556 30.3142 23.7464 30.2276 23.7193C30.1409 23.6921 30.0607 23.6477 29.9918 23.5886C29.3107 23.0274 28.6602 22.4301 28.043 21.7993C27.7356 21.4803 27.8168 21.0656 28.1474 20.7553C28.7042 20.2333 29.2668 19.7142 29.8381 19.2096C29.9071 19.134 29.9905 19.0729 30.0834 19.0299C30.1763 18.9869 30.2768 18.9628 30.3791 18.959C30.4814 18.9552 30.5835 18.9719 30.6793 19.0079C30.7751 19.044 30.8628 19.0987 30.9372 19.169C31.2504 19.459 31.2504 19.8679 30.9372 20.2594C30.8792 20.358 30.8125 20.4276 30.6588 20.59Z" fill="#1D2E66"/>
  <path d="M33.3877 28.3591C33.5733 28.565 33.6574 28.6491 33.7299 28.739C33.7937 28.8085 33.843 28.89 33.8749 28.9788C33.9069 29.0675 33.9208 29.1618 33.916 29.256C33.9111 29.3502 33.8875 29.4425 33.8466 29.5275C33.8057 29.6125 33.7483 29.6885 33.6777 29.7511C33.6197 29.8207 33.5483 29.878 33.4678 29.9195C33.3872 29.961 33.2991 29.9859 33.2088 29.9927C33.1184 29.9994 33.0276 29.9879 32.9418 29.9589C32.8559 29.9298 32.7768 29.8838 32.7091 29.8236C32.0479 29.2668 31.407 28.681 30.7951 28.0836C30.4761 27.7675 30.5341 27.3499 30.8995 27.0048C31.4505 26.477 32.016 25.9608 32.5873 25.4533C32.6584 25.3798 32.7436 25.3213 32.8377 25.2814C32.9319 25.2415 33.0331 25.2209 33.1354 25.2209C33.2377 25.2209 33.3389 25.2415 33.4331 25.2814C33.5272 25.3213 33.6124 25.3798 33.6835 25.4533C33.9938 25.7665 33.9735 26.1551 33.6603 26.5437C33.5965 26.6191 33.5298 26.6916 33.3703 26.8569H35.2263C35.4131 26.8474 35.6004 26.863 35.7831 26.9033C35.9512 26.9416 36.0985 27.0422 36.1953 27.1848C36.2922 27.3274 36.3314 27.5014 36.3051 27.6718C36.3016 27.8408 36.2341 28.0021 36.1162 28.1233C35.9983 28.2444 35.8388 28.3162 35.67 28.3243C35.1799 28.3649 34.6869 28.3533 34.1939 28.3591H33.3877Z" fill="#1D2E66"/>
  <path d="M39.266 35.2408C39.0862 35.786 38.976 36.1949 38.8223 36.5893C38.6309 37.0968 38.4424 37.6072 38.2075 38.0915C38.1227 38.2592 37.9781 38.3891 37.8023 38.4554C37.6265 38.5217 37.4322 38.5197 37.2577 38.4498C37.0833 38.3799 36.9414 38.2471 36.8601 38.0777C36.7787 37.9083 36.7639 37.7146 36.8184 37.5347C37.1084 36.685 37.4245 35.8469 37.7638 35.0175C37.7918 34.9355 37.8366 34.8602 37.8952 34.7964C37.9538 34.7326 38.025 34.6817 38.1043 34.6468C38.1836 34.6119 38.2693 34.5938 38.356 34.5938C38.4426 34.5937 38.5283 34.6116 38.6077 34.6463C38.8598 34.805 39.0825 35.0061 39.266 35.2408Z" fill="#1D2E66"/>
  <path d="M34.7043 43.2854C34.046 43.2593 33.6545 42.6445 33.9561 42.1776C34.4491 41.4091 34.9943 40.6725 35.5511 39.9475C35.6047 39.8744 35.6726 39.8128 35.7507 39.7665C35.8287 39.7203 35.9153 39.6903 36.0053 39.6784C36.0952 39.6665 36.1867 39.6729 36.2741 39.6972C36.3615 39.7215 36.443 39.7633 36.5139 39.8199C36.8503 40.0374 37.0127 40.3999 36.7865 40.7421C36.2703 41.5338 35.7077 42.2994 35.1364 43.0621C35.0291 43.21 34.8 43.239 34.7043 43.2854Z" fill="#1D2E66"/>
  <path d="M32.6743 12.0901C32.6743 12.7977 32.0073 13.1573 31.4911 12.8151C30.7719 12.3366 30.073 11.8291 29.3828 11.3129C29.2321 11.1972 29.1309 11.0286 29.0995 10.8412C29.0681 10.6538 29.109 10.4614 29.2138 10.3029C29.3186 10.1444 29.4796 10.0316 29.6643 9.98703C29.849 9.94251 30.0438 9.96967 30.2093 10.063C30.9575 10.556 31.6854 11.0867 32.3988 11.629C32.5224 11.7614 32.6163 11.9186 32.6743 12.0901Z" fill="#1D2E66"/>
  <path d="M36.4675 16.4459C36.3399 16.5996 36.2007 16.9157 35.9803 16.9853C35.8431 17.0268 35.6982 17.0362 35.5569 17.0125C35.4155 16.9889 35.2816 16.9329 35.1654 16.849C34.5564 16.1704 34.0054 15.4367 33.4631 14.6972C33.3596 14.5575 33.3148 14.383 33.338 14.2108C33.3613 14.0385 33.4509 13.8822 33.5878 13.775C33.8778 13.5082 34.2664 13.4183 34.5042 13.6909C35.1712 14.4536 35.7657 15.2743 36.3834 16.0805C36.4298 16.1414 36.424 16.24 36.4675 16.4459Z" fill="#1D2E66"/>
  <path d="M39.092 21.3759C38.8194 21.6427 38.6396 21.924 38.3844 22.04C38.305 22.0783 38.2185 22.0996 38.1304 22.1026C38.0423 22.1056 37.9546 22.0903 37.8728 22.0576C37.7909 22.0248 37.7168 21.9754 37.6551 21.9125C37.5934 21.8495 37.5455 21.7745 37.5144 21.692C37.1432 20.8742 36.7991 20.0458 36.482 19.2067C36.4123 19.0377 36.4118 18.8481 36.4807 18.6788C36.5497 18.5095 36.6824 18.3741 36.8503 18.3019C37.1751 18.125 37.5637 18.154 37.7203 18.4498C38.2133 19.3749 38.6164 20.3406 39.092 21.3759Z" fill="#1D2E66"/>
  <path d="M40.1331 26.68C40.1412 26.8876 40.0728 27.091 39.9407 27.2515C39.8086 27.4119 39.6221 27.5181 39.4168 27.55C39.3194 27.5604 39.221 27.5515 39.1271 27.5237C39.0332 27.4959 38.9457 27.4499 38.8697 27.3881C38.7937 27.3264 38.7306 27.2503 38.6842 27.1641C38.6377 27.0779 38.6088 26.9833 38.599 26.8859C38.4598 26.0478 38.3409 25.2097 38.2307 24.3716C38.1997 24.1729 38.2485 23.97 38.3663 23.8071C38.4842 23.6442 38.6616 23.5344 38.86 23.5016C38.9568 23.4836 39.0561 23.485 39.1524 23.5057C39.2486 23.5263 39.3398 23.5658 39.4207 23.6219C39.5016 23.678 39.5706 23.7495 39.6237 23.8324C39.6767 23.9153 39.7129 24.0079 39.73 24.1048C39.8866 24.9719 39.9997 25.8303 40.1331 26.68Z" fill="#1D2E66"/>
  <path d="M40.136 30.3891C40.0838 30.8618 40.0142 31.5868 39.9127 32.306C39.8257 32.915 39.5009 33.1934 39.0427 33.1325C38.5845 33.0716 38.3496 32.7062 38.4163 32.1059C38.4917 31.4302 38.5758 30.7603 38.628 30.0759C38.6802 29.3915 38.9441 29.0667 39.4574 29.0957C39.9707 29.1247 40.1708 29.4756 40.136 30.3891Z" fill="#1D2E66"/>
  <path d="M30.3978 47.0989C30.2325 46.9539 29.9077 46.8089 29.8178 46.5682C29.7816 46.4293 29.7782 46.2839 29.8079 46.1435C29.8376 46.0031 29.8996 45.8715 29.9889 45.7591C30.6619 45.1675 31.3656 44.6119 32.0972 44.0945C32.1693 44.0396 32.2515 43.9995 32.3391 43.9765C32.4267 43.9535 32.518 43.948 32.6078 43.9604C32.6975 43.9728 32.784 44.0028 32.8621 44.0487C32.9402 44.0946 33.0084 44.1555 33.0629 44.2279C33.1277 44.2849 33.1802 44.3544 33.2174 44.4323C33.2545 44.5102 33.2755 44.5948 33.279 44.681C33.2826 44.7672 33.2686 44.8532 33.2379 44.9338C33.2072 45.0145 33.1605 45.0881 33.1006 45.1501C32.3495 45.8026 31.5433 46.3884 30.7516 46.9945C30.7023 47.0438 30.6037 47.0438 30.3978 47.0989Z" fill="#1D2E66"/>
</svg>