<svg xmlns="http://www.w3.org/2000/svg" width="23" height="23" viewBox="0 0 23 23" fill="none">
  <g clip-path="url(#clip0_32_74)">
    <path d="M22.1558 0.845289C21.8122 0.497536 21.3847 0.244275 20.9147 0.109975C20.4446 -0.0243244 19.9479 -0.0351232 19.4724 0.0786221L4.1391 3.30821C3.25607 3.42931 2.42439 3.79454 1.73771 4.36277C1.05104 4.931 0.536644 5.67966 0.252462 6.52443C-0.0317207 7.36921 -0.0744045 8.27655 0.129217 9.14428C0.332839 10.012 0.774678 10.8056 1.40498 11.4358L3.05139 13.0813C3.1405 13.1704 3.21117 13.2762 3.25935 13.3926C3.30754 13.509 3.33228 13.6338 3.33219 13.7598V16.7958C3.3343 17.2227 3.43257 17.6436 3.61969 18.0272L3.61202 18.034L3.63694 18.0589C3.91774 18.6235 4.37637 19.0801 4.94219 19.3584L4.9671 19.3833L4.97381 19.3756C5.35749 19.5627 5.7784 19.661 6.20527 19.6631H9.24127C9.49528 19.6629 9.73897 19.7636 9.91881 19.943L11.5643 21.5884C12.0056 22.0346 12.5309 22.3891 13.1099 22.6314C13.6888 22.8736 14.31 22.9989 14.9376 23C15.4606 22.9994 15.9801 22.9139 16.4757 22.747C17.3128 22.4722 18.0564 21.9689 18.6226 21.2939C19.1889 20.619 19.5552 19.7992 19.6804 18.9271L22.9148 3.56025C23.0344 3.08074 23.0274 2.57836 22.8943 2.10239C22.7612 1.62643 22.5067 1.19323 22.1558 0.845289ZM4.40839 11.7281L2.76102 10.0827C2.37742 9.7083 2.10856 9.23228 1.986 8.71048C1.86344 8.18868 1.89227 7.64274 2.0691 7.13675C2.24054 6.61764 2.55747 6.1587 2.9822 5.8145C3.40692 5.4703 3.92157 5.25533 4.46494 5.19516L19.6459 1.99912L5.24694 16.4V13.7598C5.24839 13.3825 5.17502 13.0087 5.03109 12.66C4.88716 12.3113 4.67551 11.9945 4.40839 11.7281ZM17.7973 18.5994C17.7237 19.1287 17.504 19.627 17.163 20.0384C16.8219 20.4499 16.3729 20.7581 15.8664 20.9285C15.3598 21.0989 14.8158 21.1247 14.2955 21.0031C13.7751 20.8815 13.2989 20.6173 12.9203 20.24L11.272 18.5917C11.0059 18.3242 10.6894 18.1121 10.3409 17.9676C9.99232 17.8232 9.61857 17.7493 9.24127 17.7503H6.60106L21.0019 3.35421L17.7973 18.5994Z" fill="white"/>
  </g>
  <defs>
    <clipPath id="clip0_32_74">
      <rect width="23" height="23" fill="white"/>
    </clipPath>
  </defs>
</svg>