<svg xmlns="http://www.w3.org/2000/svg" width="23" height="23" viewBox="0 0 23 23" fill="none">
  <g clip-path="url(#clip0_32_78)">
    <path d="M14.356 6.73036V2.89703C14.356 2.64286 14.4569 2.39911 14.6367 2.21939C14.8164 2.03966 15.0601 1.9387 15.3143 1.9387C15.5685 1.9387 15.8122 2.03966 15.9919 2.21939C16.1717 2.39911 16.2726 2.64286 16.2726 2.89703V5.39924C16.8764 4.79166 20.7778 0.870155 21.3451 0.302822C21.4335 0.211291 21.5392 0.138283 21.6562 0.0880579C21.7731 0.0378326 21.8988 0.0113958 22.0261 0.0102901C22.1533 0.00918435 22.2795 0.0334318 22.3973 0.0816177C22.5151 0.129804 22.6221 0.200963 22.7121 0.290943C22.802 0.380924 22.8732 0.487924 22.9214 0.605699C22.9696 0.723475 22.9938 0.849668 22.9927 0.976915C22.9916 1.10416 22.9652 1.22991 22.9149 1.34683C22.8647 1.46375 22.7917 1.5695 22.7002 1.65791C22.1328 2.22524 18.2516 6.12853 17.6517 6.73036H20.106C20.3601 6.73036 20.6039 6.83133 20.7836 7.01105C20.9633 7.19077 21.0643 7.43453 21.0643 7.6887C21.0643 7.94286 20.9633 8.18662 20.7836 8.36634C20.6039 8.54606 20.3601 8.64703 20.106 8.64703H16.2726C15.7643 8.64703 15.2768 8.4451 14.9173 8.08565C14.5579 7.72621 14.356 7.23869 14.356 6.73036ZM22.1137 16.0636C22.669 16.6205 22.9809 17.3749 22.9809 18.1614C22.9809 18.9479 22.669 19.7023 22.1137 20.2592L21.2397 21.2654C13.39 28.7768 -5.7077 9.6849 1.68968 1.81124L2.79176 0.852905C3.34916 0.312928 4.09675 0.0141132 4.87278 0.0211077C5.64881 0.0281022 6.39089 0.340344 6.93847 0.89028C6.96818 0.91903 8.74301 3.2267 8.74301 3.2267C9.2681 3.78113 9.56026 4.51602 9.55919 5.27964C9.55812 6.04326 9.2639 6.77732 8.73726 7.33028L7.62751 8.72561C8.24179 10.2178 9.1448 11.5739 10.2847 12.716C11.4245 13.8582 12.7788 14.7639 14.2697 15.3812L15.6737 14.2648C16.2255 13.7367 16.9596 13.4415 17.7234 13.4405C18.4871 13.4394 19.222 13.7325 19.7753 14.259C19.7753 14.259 22.084 16.0348 22.1137 16.0636ZM20.796 17.457C20.796 17.457 18.5027 15.6917 18.473 15.663C18.2755 15.4672 18.0088 15.3574 17.7307 15.3574C17.4527 15.3574 17.1859 15.4672 16.9885 15.663C16.9626 15.6879 15.0297 17.2289 15.0297 17.2289C14.8994 17.3326 14.7444 17.4005 14.5799 17.4261C14.4154 17.4516 14.247 17.4339 14.0915 17.3746C12.1589 16.6556 10.4035 15.5294 8.94435 14.0726C7.48515 12.6157 6.35625 10.8621 5.63418 8.9307C5.57016 8.77301 5.54929 8.60112 5.57371 8.43269C5.59813 8.26426 5.66696 8.10538 5.77313 7.97236C5.77313 7.97236 7.31413 6.04228 7.34001 6.01736C7.53577 5.81993 7.6456 5.55316 7.6456 5.27513C7.6456 4.99711 7.53577 4.73034 7.34001 4.53291C7.31126 4.50416 5.54601 2.20895 5.54601 2.20895C5.34562 2.02927 5.0841 1.93304 4.81504 1.93999C4.54598 1.94694 4.28977 2.05654 4.09893 2.24632L2.99684 3.20465C-2.41007 9.70503 14.1423 25.3393 19.8376 19.9592L20.7116 18.952C20.9177 18.7629 21.0418 18.5008 21.0576 18.2216C21.0733 17.9424 20.9794 17.6681 20.796 17.457Z" fill="white"/>
  </g>
  <defs>
    <clipPath id="clip0_32_78">
      <rect width="23" height="23" fill="white"/>
    </clipPath>
  </defs>
</svg>