<svg xmlns="http://www.w3.org/2000/svg" width="38" height="38" viewBox="0 0 38 38" fill="none">
<rect width="38" height="38" rx="19" fill="white" fill-opacity="0.6"/>
<path fill-rule="evenodd" clip-rule="evenodd" d="M26.0869 11.9207C24.2062 10.0383 21.7059 9.00084 19.0423 9C13.5535 9 9.08625 13.4664 9.08373 18.9577C9.0829 20.7128 9.54176 22.426 10.4134 23.9366L9 29.0963L14.2786 27.7113C15.7331 28.5051 17.3709 28.923 19.0373 28.9238H19.0414C24.5294 28.9238 28.9975 24.4566 29 18.9652C29.0017 16.305 27.9667 13.8022 26.0869 11.9207ZM19.0423 27.2416H19.0389C17.5535 27.2416 16.0973 26.8422 14.8263 26.0877L14.524 25.9085L11.3915 26.73L12.228 23.6753L12.0312 23.3622C11.2022 22.0442 10.7651 20.521 10.766 18.9577C10.7676 14.3942 14.4813 10.6814 19.0465 10.6814C21.2571 10.6814 23.3354 11.5439 24.8978 13.108C26.4603 14.673 27.3203 16.7521 27.3194 18.9636C27.3169 23.5288 23.6041 27.2416 19.0423 27.2416ZM23.5824 21.0427C23.3337 20.9179 22.1103 20.3159 21.8817 20.233C21.654 20.1501 21.4882 20.1082 21.3215 20.3569C21.1549 20.6056 20.6793 21.1666 20.5336 21.3333C20.3887 21.4991 20.243 21.52 19.9943 21.3952C19.7457 21.2705 18.9435 21.0084 17.9931 20.1601C17.2537 19.5003 16.7538 18.6856 16.609 18.436C16.4641 18.1865 16.5939 18.0525 16.7178 17.9286C16.83 17.8172 16.9665 17.6381 17.0913 17.4924C17.2169 17.3483 17.2579 17.2445 17.3416 17.0779C17.4245 16.9121 17.3835 16.7664 17.3207 16.6416C17.2579 16.5177 16.7605 15.2927 16.5537 14.7944C16.3519 14.3088 16.1467 14.3749 15.9935 14.3674C15.8486 14.3598 15.6829 14.359 15.5162 14.359C15.3504 14.359 15.0808 14.421 14.853 14.6705C14.6253 14.92 13.9822 15.5221 13.9822 16.7463C13.9822 17.9713 14.874 19.1545 14.9979 19.3203C15.1218 19.4861 16.7521 21.9998 19.2483 23.0775C19.8419 23.3337 20.3058 23.4869 20.6667 23.6016C21.2629 23.7909 21.8055 23.7641 22.2342 23.7004C22.7124 23.6293 23.7063 23.0984 23.914 22.5173C24.1216 21.9362 24.1216 21.4371 24.0588 21.3341C23.9969 21.2294 23.8311 21.1675 23.5824 21.0427Z" fill="#2BB673"/>
</svg>