<svg xmlns="http://www.w3.org/2000/svg" width="24" height="24" viewBox="0 0 24 24" fill="none">
<g clip-path="url(#clip0_64_139)">
<path d="M11.9999 24.0001C10.576 24.0032 9.20803 23.4456 8.1919 22.4481L4.2499 18.8051C3.20474 17.7905 2.37149 16.5784 1.79852 15.2393C1.22554 13.9001 0.924248 12.4604 0.912124 11.0038C0.9 9.54727 1.17729 8.1028 1.72789 6.75426C2.2785 5.40572 3.09145 4.17996 4.11958 3.14812C5.14771 2.11628 6.37053 1.29892 7.71708 0.743464C9.06364 0.188009 10.5071 -0.0944764 11.9637 -0.0875962C13.4203 -0.0807161 14.861 0.215392 16.2023 0.783543C17.5435 1.35169 18.7586 2.18057 19.7769 3.22208C21.8397 5.28496 22.9986 8.08278 22.9986 11.0001C22.9986 13.9174 21.8397 16.7152 19.7769 18.7781L15.7859 22.4671C14.7739 23.455 13.4142 24.0056 11.9999 24.0001ZM11.9999 2.00008C10.2199 2.00006 8.47979 2.52789 6.99973 3.51683C5.51967 4.50576 4.36611 5.91137 3.68491 7.55592C3.00372 9.20046 2.82549 11.0101 3.17276 12.7559C3.52004 14.5018 4.37722 16.1054 5.6359 17.3641L9.5699 21.0001C10.2206 21.6219 11.0851 21.9704 11.9851 21.974C12.8852 21.9775 13.7523 21.6357 14.4079 21.0191L18.3919 17.3371C20.0674 15.6466 21.005 13.3612 20.9995 10.9811C20.9941 8.60097 20.0461 6.31992 18.3629 4.63708C17.5294 3.79862 16.5378 3.13383 15.4456 2.68119C14.3533 2.22854 13.1822 1.99704 11.9999 2.00008ZM11.9999 18.0001C10.6154 18.0001 9.26206 17.5895 8.11091 16.8204C6.95977 16.0512 6.06256 14.9579 5.53275 13.6789C5.00293 12.3998 4.86431 10.9923 5.13441 9.63445C5.4045 8.27658 6.07119 7.0293 7.05016 6.05033C8.02912 5.07136 9.2764 4.40468 10.6343 4.13458C11.9921 3.86448 13.3996 4.00311 14.6787 4.53292C15.9578 5.06273 17.051 5.95994 17.8202 7.11108C18.5894 8.26223 18.9999 9.61561 18.9999 11.0001C18.9978 12.8559 18.2596 14.6352 16.9473 15.9475C15.635 17.2598 13.8558 17.998 11.9999 18.0001ZM11.9999 6.00008C11.011 6.00008 10.0443 6.29332 9.22205 6.84273C8.39981 7.39214 7.75894 8.17303 7.38051 9.08666C7.00207 10.0003 6.90305 11.0056 7.09598 11.9755C7.2889 12.9454 7.76511 13.8363 8.46437 14.5356C9.16363 15.2349 10.0545 15.7111 11.0245 15.904C11.9944 16.0969 12.9997 15.9979 13.9133 15.6195C14.827 15.241 15.6078 14.6002 16.1573 13.7779C16.7067 12.9557 16.9999 11.989 16.9999 11.0001C16.9983 9.67448 16.471 8.40364 15.5337 7.4663C14.5963 6.52896 13.3255 6.00166 11.9999 6.00008ZM13.7069 12.7071C13.8944 12.5196 13.9997 12.2652 13.9997 12.0001C13.9997 11.7349 13.8944 11.4806 13.7069 11.2931L12.9999 10.5861V9.00008C12.9999 8.73486 12.8945 8.48051 12.707 8.29297C12.5195 8.10543 12.2651 8.00008 11.9999 8.00008C11.7347 8.00008 11.4803 8.10543 11.2928 8.29297C11.1053 8.48051 10.9999 8.73486 10.9999 9.00008V11.0001C11 11.2653 11.1054 11.5196 11.2929 11.7071L12.2929 12.7071C12.4804 12.8945 12.7347 12.9999 12.9999 12.9999C13.2651 12.9999 13.5194 12.8945 13.7069 12.7071Z" fill="white"/>
</g>
<defs>
<clipPath id="clip0_64_139">
<rect width="24" height="24" fill="white"/>
</clipPath>
</defs>
</svg>