<svg xmlns="http://www.w3.org/2000/svg" width="20" height="20" viewBox="0 0 20 20" fill="none">
<g clip-path="url(#clip0_535_10)">
<path d="M9.99996 20.0001C8.81334 20.0026 7.6734 19.538 6.82663 18.7067L3.54163 15.6709C2.67066 14.8254 1.97629 13.8154 1.49881 12.6994C1.02132 11.5834 0.770248 10.3837 0.760144 9.16988C0.750041 7.95607 0.981113 6.75234 1.43995 5.62856C1.89879 4.50477 2.57625 3.48331 3.43302 2.62344C4.2898 1.76358 5.30882 1.08244 6.43094 0.619563C7.55307 0.156683 8.75596 -0.0787208 9.96979 -0.0729873C11.1836 -0.0672539 12.3842 0.179503 13.5019 0.652962C14.6196 1.12642 15.6322 1.81715 16.4808 2.68507C18.1998 4.40415 19.1655 6.73566 19.1655 9.16674C19.1655 11.5978 18.1998 13.9293 16.4808 15.6484L13.155 18.7226C12.3116 19.5458 11.1785 20.0046 9.99996 20.0001ZM9.99996 1.66674C8.51659 1.66673 7.06653 2.10659 5.83315 2.9307C4.59977 3.75481 3.63846 4.92615 3.0708 6.29661C2.50314 7.66706 2.35461 9.17507 2.64401 10.6299C2.9334 12.0848 3.64772 13.4212 4.69663 14.4701L7.97496 17.5001C8.51724 18.0182 9.2376 18.3087 9.98764 18.3117C10.7377 18.3146 11.4603 18.0298 12.0066 17.5159L15.3266 14.4476C16.7228 13.0388 17.5042 11.1343 17.4996 9.15092C17.4951 7.16749 16.7051 5.26661 15.3025 3.86424C14.6078 3.16553 13.7815 2.61154 12.8713 2.23433C11.9612 1.85713 10.9852 1.66421 9.99996 1.66674ZM9.99996 15.0001C8.84624 15.0001 7.71842 14.658 6.75913 14.017C5.79985 13.376 5.05217 12.465 4.61066 11.3991C4.16915 10.3332 4.05363 9.16027 4.27871 8.02871C4.50379 6.89716 5.05936 5.85776 5.87517 5.04195C6.69098 4.22614 7.73038 3.67057 8.86193 3.44549C9.99349 3.22041 11.1664 3.33593 12.2323 3.77744C13.2982 4.21895 14.2092 4.96663 14.8502 5.92591C15.4912 6.8852 15.8333 8.01302 15.8333 9.16674C15.8315 10.7133 15.2164 12.196 14.1228 13.2896C13.0292 14.3832 11.5465 14.9983 9.99996 15.0001ZM9.99996 5.00007C9.17587 5.00007 8.37029 5.24444 7.68508 5.70228C6.99988 6.16012 6.46583 6.81087 6.15046 7.57223C5.8351 8.33359 5.75258 9.17136 5.91335 9.97962C6.07413 10.7879 6.47096 11.5303 7.05368 12.113C7.6364 12.6957 8.37883 13.0926 9.18708 13.2533C9.99534 13.4141 10.8331 13.3316 11.5945 13.0162C12.3558 12.7009 13.0066 12.1668 13.4644 11.4816C13.9223 10.7964 14.1666 9.99083 14.1666 9.16674C14.1653 8.06208 13.7259 7.00304 12.9448 6.22192C12.1637 5.44081 11.1046 5.0014 9.99996 5.00007ZM11.4225 10.5892C11.5787 10.433 11.6664 10.221 11.6664 10.0001C11.6664 9.7791 11.5787 9.56718 11.4225 9.41091L10.8333 8.82174V7.50007C10.8333 7.27906 10.7455 7.0671 10.5892 6.91082C10.4329 6.75454 10.221 6.66674 9.99996 6.66674C9.77895 6.66674 9.56699 6.75454 9.4107 6.91082C9.25442 7.0671 9.16663 7.27906 9.16663 7.50007V9.16674C9.16667 9.38774 9.2545 9.59966 9.41079 9.75591L10.2441 10.5892C10.4004 10.7455 10.6123 10.8332 10.8333 10.8332C11.0543 10.8332 11.2662 10.7455 11.4225 10.5892Z" fill="#2BB673"/>
</g>
<defs>
<clipPath id="clip0_535_10">
<rect width="20" height="20" fill="white"/>
</clipPath>
</defs>
</svg>