<svg xmlns="http://www.w3.org/2000/svg" width="524" height="159" viewBox="0 0 524 159" fill="none">
<path d="M133.173 3.91016C105.492 8.81563 92.2941 9.75 47.3273 9.75H6.09805L3.29492 12.6699C1.42617 14.4219 0.375 16.8746 0.375 19.0938C0.375 21.3129 1.42617 23.7656 3.29492 25.5176L6.09805 28.4375H47.3273C93.1117 28.4375 104.207 27.7367 136.327 22.4809C148.707 20.4953 159.92 19.2105 162.139 19.5609C164.124 20.0281 167.044 21.6633 168.562 23.1816C171.366 26.1016 171.366 26.2184 169.964 38.7156C168.329 53.8992 168.212 63.1262 169.73 76.3242C174.402 117.553 194.959 145.702 227.545 155.746C252.773 163.455 279.52 157.148 297.039 139.511C310.12 126.313 316.311 111.363 317.712 89.7558C318.763 70.9515 314.559 54.6 304.28 38.482C299.609 31.1238 299.375 25.868 303.58 22.0137C307.551 18.393 308.602 18.393 333.363 22.4809C365.015 27.8535 375.527 28.4375 449.225 28.4375H517.902L520.705 25.5176C524.209 22.1305 524.443 16.8746 521.406 13.1371L519.187 10.334L441.05 9.63319L363.029 9.04921L337.918 4.61093C304.981 -1.22891 299.258 -0.644928 289.564 9.28281C283.841 15.2395 281.505 22.0137 282.089 31.007C282.439 37.3141 283.491 40.0004 289.214 49.9281C297.506 64.4109 299.959 74.4555 299.025 89.0551C296.922 119.656 280.104 138.11 252.072 140.212C235.837 141.38 220.654 135.657 208.741 123.744C191.455 106.458 185.031 77.609 188.885 35.2117C190.17 21.6633 188.418 15.5898 181.877 9.86679C170.665 -0.0609436 161.321 -1.22891 133.173 3.91016Z" fill="black" fill-opacity="0.05"/>
</svg>