<svg xmlns="http://www.w3.org/2000/svg" width="150" height="412" viewBox="0 0 150 412" fill="none">
<path d="M133.904 3.31955C132.385 4.83792 125.494 15.7 118.37 27.6133C54.3648 134.482 14.5371 231.541 2.62383 309.094C-0.179297 327.781 -0.179297 362.587 2.62383 373.916C5.54375 385.245 9.39805 393.304 15.1211 399.495C28.6695 414.094 52.0289 415.846 64.643 403.232C70.7164 397.275 73.4027 390.034 74.3371 378.004C75.1547 366.791 73.1691 359.433 65.9277 347.637C59.0367 336.074 57.168 329.767 56.3504 314.35C53.0801 250.579 83.5641 144.644 135.539 39.7602C143.13 24.2262 149.438 10.4442 149.438 9.0426C149.438 7.64105 148.153 5.18832 146.518 3.66995C142.897 -0.0675354 137.407 -0.184357 133.904 3.31955ZM47.8242 223.131C40.3492 256.769 36.4949 292.158 37.6629 315.518C38.7141 335.607 41.4004 344.483 50.9777 358.849C54.0145 363.521 55.1824 366.558 55.6496 371.814C57.2848 389.567 48.1746 397.509 34.159 390.735C24.932 386.297 20.2602 374.617 19.0922 352.893C17.1066 319.255 26.9176 271.252 46.773 216.24C48.7586 210.751 50.6273 206.429 50.8609 206.663C51.0945 206.897 49.693 214.255 47.8242 223.131Z" fill="black" fill-opacity="0.05"/>
</svg>