<svg xmlns="http://www.w3.org/2000/svg" width="113" height="113" viewBox="0 0 113 113" fill="none">
<path d="M49.8574 3.01367C47.5215 5.23281 46.9375 6.98476 46.9375 11.5398C46.9375 21.1172 42.9664 31.8625 37.477 37.352C31.9875 42.8414 21.2422 46.8125 11.6648 46.8125C4.65703 46.8125 0.21875 50.4332 0.21875 56.1562C0.21875 61.8793 4.65703 65.5 11.6648 65.5C21.2422 65.5 31.9875 69.4711 37.477 74.9605C42.9664 80.45 46.9375 91.1953 46.9375 100.773C46.9375 107.78 50.5582 112.219 56.2812 112.219C62.0043 112.219 65.625 107.78 65.625 100.773C65.625 91.1953 69.5961 80.45 75.0855 74.9605C80.575 69.4711 91.3203 65.5 100.898 65.5C107.905 65.5 112.344 61.8793 112.344 56.1562C112.344 50.4332 107.905 46.8125 100.898 46.8125C91.3203 46.8125 80.575 42.8414 75.0855 37.352C69.5961 31.8625 65.625 21.1172 65.625 11.5398C65.625 4.53204 62.0043 0.09375 56.2812 0.09375C54.0621 0.09375 51.6094 1.14492 49.8574 3.01367ZM62.1211 50.9004L67.2602 56.1562L61.7707 61.7625L56.2812 67.252L50.7918 61.7625L45.3023 56.1562L50.4414 50.9004C53.2445 47.9805 55.9309 45.6445 56.2812 45.6445C56.6316 45.6445 59.318 47.9805 62.1211 50.9004Z" fill="black" fill-opacity="0.05"/>
</svg>